<svg id="svg" version="1.1" xmlns="http://www.w3.org/2000/svg" xmlns:xlink="http://www.w3.org/1999/xlink" width="400" height="400" viewBox="0, 0, 400,400"><g id="svgg"><path id="path0" d="M300.100 137.798 C 299.825 138.111,299.600 138.604,299.600 138.895 C 299.600 139.186,299.240 139.683,298.800 140.000 C 297.465 140.962,297.816 142.874,300.375 148.568 C 300.779 149.465,301.469 151.010,301.909 152.000 C 302.349 152.990,303.069 154.610,303.509 155.600 C 303.949 156.590,304.669 158.210,305.109 159.200 C 305.549 160.190,306.267 161.810,306.705 162.800 C 307.143 163.790,308.537 166.940,309.804 169.800 C 311.071 172.660,312.463 175.810,312.898 176.800 C 314.945 181.456,315.586 182.744,315.974 182.984 C 316.447 183.276,318.400 181.490,318.400 180.765 C 318.400 180.506,318.716 180.003,319.103 179.647 C 319.489 179.291,320.060 178.505,320.370 177.900 C 320.681 177.295,321.085 176.800,321.268 176.800 C 321.450 176.800,321.600 176.564,321.600 176.275 C 321.600 175.987,321.915 175.402,322.300 174.975 C 323.228 173.948,325.200 170.902,325.200 170.497 C 325.200 170.321,325.560 169.917,326.000 169.600 C 326.440 169.283,326.800 168.743,326.800 168.400 C 326.800 168.057,327.160 167.517,327.600 167.200 C 328.040 166.883,328.400 166.343,328.400 166.000 C 328.400 165.657,328.760 165.117,329.200 164.800 C 329.640 164.483,330.000 163.943,330.000 163.600 C 330.000 163.257,330.360 162.717,330.800 162.400 C 331.240 162.083,331.600 161.543,331.600 161.200 C 331.600 160.857,331.960 160.317,332.400 160.000 C 332.840 159.683,333.200 159.143,333.200 158.800 C 333.200 158.457,333.560 157.917,334.000 157.600 C 334.440 157.283,334.800 156.793,334.800 156.512 C 334.800 156.230,334.950 156.000,335.132 156.000 C 335.315 156.000,335.719 155.505,336.030 154.900 C 336.340 154.295,336.911 153.509,337.297 153.153 C 337.684 152.797,338.002 152.347,338.005 152.153 C 338.008 151.959,338.369 151.350,338.808 150.800 C 340.199 149.054,341.600 146.782,341.600 146.271 C 341.600 145.999,341.960 145.517,342.400 145.200 C 342.840 144.883,343.200 144.343,343.200 144.000 C 343.200 143.657,343.560 143.117,344.000 142.800 C 344.440 142.483,344.800 142.076,344.800 141.895 C 344.800 141.714,345.160 141.180,345.600 140.708 C 346.040 140.236,346.400 139.523,346.400 139.125 C 346.400 138.726,346.580 138.400,346.800 138.400 C 347.020 138.400,347.200 138.130,347.200 137.800 C 347.200 136.920,300.875 136.918,300.100 137.798 M181.230 173.300 C 180.601 174.675,179.727 176.610,179.288 177.600 C 178.850 178.590,178.128 180.210,177.683 181.200 C 177.239 182.190,175.409 186.330,173.617 190.400 C 171.824 194.470,170.116 198.340,169.821 199.000 C 169.526 199.660,168.905 201.055,168.442 202.100 C 167.622 203.951,166.884 205.611,165.155 209.500 C 164.691 210.545,163.908 212.300,163.416 213.400 C 162.403 215.664,161.861 218.400,162.425 218.400 C 162.631 218.400,162.800 218.760,162.800 219.200 C 162.800 219.640,162.980 220.000,163.200 220.000 C 163.420 220.000,163.600 220.360,163.600 220.800 C 163.600 221.240,163.780 221.600,164.000 221.600 C 164.220 221.600,164.400 222.050,164.400 222.600 C 164.400 223.150,164.580 223.600,164.800 223.600 C 165.020 223.600,165.200 223.960,165.200 224.400 C 165.200 224.840,165.380 225.200,165.600 225.200 C 165.820 225.200,166.000 225.560,166.000 226.000 C 166.000 226.440,166.180 226.800,166.400 226.800 C 166.620 226.800,166.800 227.149,166.800 227.576 C 166.800 228.003,166.980 228.464,167.200 228.600 C 167.420 228.736,167.600 229.287,167.600 229.824 C 167.600 230.361,167.780 230.800,168.000 230.800 C 168.220 230.800,168.400 231.160,168.400 231.600 C 168.400 232.040,168.580 232.400,168.800 232.400 C 169.020 232.400,169.200 232.760,169.200 233.200 C 169.200 233.640,169.380 234.000,169.600 234.000 C 169.820 234.000,170.000 234.272,170.000 234.605 C 170.000 234.938,170.180 235.568,170.400 236.005 C 170.620 236.442,170.980 237.158,171.200 237.595 C 171.420 238.032,171.600 238.647,171.600 238.961 C 171.600 239.276,171.735 239.593,171.900 239.667 C 172.399 239.888,174.000 243.222,174.000 244.038 C 174.000 244.457,174.136 244.800,174.302 244.800 C 174.593 244.800,175.410 246.831,175.871 248.700 C 175.993 249.195,176.252 249.600,176.447 249.600 C 176.641 249.600,176.806 249.915,176.813 250.300 C 176.819 250.685,177.359 252.075,178.013 253.390 C 178.666 254.704,179.200 256.009,179.200 256.290 C 179.200 256.570,179.380 256.800,179.600 256.800 C 179.820 256.800,180.000 257.250,180.000 257.800 C 180.000 258.350,180.180 258.800,180.400 258.800 C 180.620 258.800,180.800 259.160,180.800 259.600 C 180.800 260.040,180.980 260.400,181.200 260.400 C 181.420 260.400,181.600 260.760,181.600 261.200 C 181.600 261.640,181.780 262.000,182.000 262.000 C 182.220 262.000,182.400 262.272,182.400 262.605 C 182.400 262.938,182.580 263.568,182.800 264.005 C 183.020 264.442,183.380 265.158,183.600 265.595 C 183.820 266.032,184.000 266.662,184.000 266.995 C 184.000 267.328,184.180 267.600,184.400 267.600 C 184.620 267.600,184.800 267.960,184.800 268.400 C 184.800 268.840,184.980 269.200,185.200 269.200 C 185.420 269.200,185.600 269.549,185.600 269.976 C 185.600 270.403,185.780 270.864,186.000 271.000 C 186.220 271.136,186.400 271.597,186.400 272.024 C 186.400 272.451,186.580 272.800,186.800 272.800 C 187.020 272.800,187.200 273.160,187.200 273.600 C 187.200 274.040,187.380 274.400,187.600 274.400 C 187.820 274.400,188.000 274.760,188.000 275.200 C 188.000 275.640,188.180 276.000,188.400 276.000 C 188.620 276.000,188.800 276.349,188.800 276.776 C 188.800 277.203,188.980 277.664,189.200 277.800 C 189.420 277.936,189.600 278.487,189.600 279.024 C 189.600 279.561,189.780 280.000,190.000 280.000 C 190.220 280.000,190.400 280.360,190.400 280.800 C 190.400 281.240,190.580 281.600,190.800 281.600 C 191.020 281.600,191.200 281.949,191.200 282.376 C 191.200 282.803,191.358 283.250,191.551 283.370 C 191.744 283.489,192.106 284.399,192.357 285.393 L 192.812 287.200 218.618 287.200 C 242.828 287.200,244.442 287.157,244.692 286.500 C 244.839 286.115,245.284 285.451,245.680 285.025 C 246.076 284.598,246.400 284.013,246.400 283.725 C 246.400 283.436,246.550 283.200,246.732 283.200 C 246.915 283.200,247.320 282.705,247.632 282.100 C 247.945 281.495,248.515 280.651,248.900 280.225 C 249.285 279.798,249.600 279.213,249.600 278.925 C 249.600 278.636,249.780 278.400,250.000 278.400 C 250.220 278.400,250.400 278.164,250.400 277.875 C 250.400 277.587,250.760 276.964,251.200 276.492 C 251.640 276.020,252.000 275.474,252.000 275.279 C 252.000 275.084,252.360 274.598,252.800 274.200 C 253.240 273.802,253.600 273.234,253.600 272.938 C 253.600 272.642,253.750 272.400,253.932 272.400 C 254.115 272.400,254.520 271.905,254.832 271.300 C 255.145 270.695,255.715 269.851,256.100 269.425 C 256.485 268.998,256.800 268.490,256.800 268.296 C 256.800 268.102,257.063 267.680,257.384 267.359 C 259.086 265.657,258.720 264.198,253.980 253.800 C 253.378 252.480,252.506 250.545,252.043 249.500 C 251.579 248.455,250.840 246.790,250.400 245.800 C 249.960 244.810,249.240 243.190,248.800 242.200 C 248.360 241.210,247.620 239.545,247.154 238.500 C 245.707 235.247,244.739 233.068,243.912 231.200 C 242.170 227.264,241.887 226.800,241.222 226.800 C 240.844 226.800,240.281 227.295,239.970 227.900 C 239.660 228.505,239.089 229.291,238.703 229.647 C 238.316 230.003,238.000 230.548,238.000 230.859 C 238.000 231.169,237.640 231.683,237.200 232.000 C 236.760 232.317,236.400 232.815,236.400 233.106 C 236.400 233.398,235.950 234.086,235.400 234.636 C 234.850 235.186,234.400 235.780,234.400 235.956 C 234.400 236.132,233.950 236.799,233.400 237.438 C 232.851 238.077,232.401 238.785,232.400 239.012 C 232.400 239.238,232.040 239.683,231.600 240.000 C 231.160 240.317,230.800 240.857,230.800 241.200 C 230.800 241.543,230.440 242.083,230.000 242.400 C 229.560 242.717,229.200 243.124,229.200 243.305 C 229.200 243.486,228.840 244.020,228.400 244.492 C 227.960 244.964,227.600 245.587,227.600 245.875 C 227.600 246.164,227.441 246.400,227.246 246.400 C 227.051 246.400,226.593 246.985,226.229 247.700 C 225.113 249.889,224.032 251.599,223.197 252.495 C 222.759 252.966,222.400 253.510,222.400 253.704 C 222.400 253.898,222.125 254.332,221.789 254.668 C 221.048 255.409,220.000 254.755,220.000 253.551 C 220.000 253.138,219.820 252.800,219.600 252.800 C 219.380 252.800,219.200 252.440,219.200 252.000 C 219.200 251.560,219.020 251.200,218.800 251.200 C 218.580 251.200,218.400 250.928,218.400 250.595 C 218.400 250.262,218.192 249.587,217.938 249.095 C 216.967 247.218,216.800 246.793,216.800 246.205 C 216.800 245.872,216.620 245.600,216.400 245.600 C 216.180 245.600,216.000 245.240,216.000 244.800 C 216.000 244.360,215.820 244.000,215.600 244.000 C 215.380 244.000,215.200 243.651,215.200 243.224 C 215.200 242.797,215.020 242.336,214.800 242.200 C 214.580 242.064,214.400 241.603,214.400 241.176 C 214.400 240.749,214.220 240.400,214.000 240.400 C 213.780 240.400,213.600 240.040,213.600 239.600 C 213.600 239.160,213.420 238.800,213.200 238.800 C 212.980 238.800,212.800 238.440,212.800 238.000 C 212.800 237.560,212.620 237.200,212.400 237.200 C 212.180 237.200,212.000 236.761,212.000 236.224 C 212.000 235.687,211.820 235.136,211.600 235.000 C 211.380 234.864,211.200 234.403,211.200 233.976 C 211.200 233.549,211.020 233.200,210.800 233.200 C 210.580 233.200,210.400 232.840,210.400 232.400 C 210.400 231.960,210.220 231.600,210.000 231.600 C 209.780 231.600,209.600 231.240,209.600 230.800 C 209.600 230.360,209.420 230.000,209.200 230.000 C 208.980 230.000,208.800 229.638,208.800 229.195 C 208.800 228.752,208.632 228.077,208.426 227.695 C 207.557 226.083,206.800 224.240,206.800 223.739 C 206.800 223.442,206.653 223.200,206.472 223.200 C 206.292 223.200,205.900 222.300,205.600 221.200 C 205.300 220.100,204.908 219.200,204.728 219.200 C 204.547 219.200,204.400 218.840,204.400 218.400 C 204.400 217.960,204.220 217.600,204.000 217.600 C 203.780 217.600,203.600 217.240,203.600 216.800 C 203.600 216.360,203.420 216.000,203.200 216.000 C 202.980 216.000,202.800 215.561,202.800 215.024 C 202.800 214.487,202.620 213.936,202.400 213.800 C 202.180 213.664,202.000 213.203,202.000 212.776 C 202.000 212.349,201.820 212.000,201.600 212.000 C 201.380 212.000,201.200 211.640,201.200 211.200 C 201.200 210.760,201.020 210.400,200.800 210.400 C 200.580 210.400,200.400 210.040,200.400 209.600 C 200.400 209.160,200.220 208.800,200.000 208.800 C 199.780 208.800,199.600 208.350,199.600 207.800 C 199.600 207.250,199.420 206.800,199.200 206.800 C 198.980 206.800,198.800 206.440,198.800 206.000 C 198.800 205.560,198.620 205.200,198.400 205.200 C 198.180 205.200,198.000 204.840,198.000 204.400 C 198.000 203.960,197.820 203.600,197.600 203.600 C 197.380 203.600,197.200 203.150,197.200 202.600 C 197.200 202.050,197.020 201.600,196.800 201.600 C 196.580 201.600,196.400 201.150,196.400 200.600 C 196.400 200.050,196.220 199.600,196.000 199.600 C 195.780 199.600,195.600 199.240,195.600 198.800 C 195.600 198.360,195.420 198.000,195.200 198.000 C 194.980 198.000,194.800 197.640,194.800 197.200 C 194.800 196.760,194.620 196.400,194.400 196.400 C 194.180 196.400,194.000 195.950,194.000 195.400 C 194.000 194.850,193.820 194.400,193.600 194.400 C 193.380 194.400,193.200 194.040,193.200 193.600 C 193.200 193.160,193.020 192.800,192.800 192.800 C 192.580 192.800,192.400 192.440,192.400 192.000 C 192.400 191.560,192.240 191.200,192.045 191.200 C 191.849 191.200,191.563 190.528,191.409 189.707 C 191.255 188.886,190.785 187.502,190.364 186.632 C 189.944 185.762,189.600 184.814,189.600 184.525 C 189.600 184.236,189.420 184.000,189.200 184.000 C 188.980 184.000,188.800 183.640,188.800 183.200 C 188.800 182.760,188.620 182.400,188.400 182.400 C 188.180 182.400,187.995 182.085,187.990 181.700 C 187.984 181.315,187.264 179.562,186.390 177.804 C 185.515 176.047,184.800 174.292,184.800 173.904 C 184.800 173.517,184.620 173.200,184.400 173.200 C 184.180 173.200,184.000 172.917,184.000 172.571 C 184.000 171.957,183.096 170.800,182.616 170.800 C 182.483 170.800,181.859 171.925,181.230 173.300 " stroke="none" fill="#fbfbfb" fill-rule="evenodd"></path><path id="path1" d="M151.316 28.000 C 151.431 28.440,151.376 28.800,151.194 28.800 C 151.012 28.800,150.745 29.342,150.599 30.003 C 150.454 30.665,150.170 31.105,149.967 30.980 C 149.765 30.855,149.600 31.108,149.600 31.543 C 149.600 31.978,149.422 32.393,149.203 32.467 C 148.985 32.540,148.766 33.095,148.716 33.700 C 148.666 34.305,148.470 34.800,148.279 34.800 C 148.089 34.800,148.008 35.023,148.099 35.296 C 148.190 35.569,148.011 36.046,147.701 36.356 C 147.391 36.666,147.225 37.253,147.332 37.660 C 147.438 38.068,147.362 38.300,147.163 38.177 C 146.808 37.957,146.642 38.510,146.769 39.494 C 146.804 39.765,146.585 39.892,146.283 39.776 C 145.981 39.660,145.726 39.798,145.718 40.083 C 145.693 40.892,145.425 41.781,145.140 42.000 C 144.997 42.110,144.817 42.560,144.740 43.000 C 144.663 43.440,144.279 44.156,143.886 44.590 C 143.202 45.348,143.202 45.391,143.886 45.662 C 144.537 45.919,144.539 45.946,143.914 45.972 C 143.140 46.004,142.236 47.410,142.605 48.008 C 142.738 48.224,142.657 48.400,142.424 48.400 C 142.191 48.400,142.000 48.850,142.000 49.400 C 142.000 49.950,141.858 50.400,141.685 50.400 C 141.512 50.400,141.340 50.802,141.303 51.294 C 141.266 51.786,141.048 52.251,140.818 52.327 C 140.588 52.404,140.400 52.722,140.400 53.033 C 140.400 53.345,140.220 53.600,140.000 53.600 C 139.780 53.600,139.644 53.735,139.699 53.900 C 139.866 54.411,138.692 57.600,138.336 57.600 C 138.151 57.600,138.000 58.050,138.000 58.600 C 138.000 59.150,137.820 59.600,137.600 59.600 C 137.380 59.600,137.200 59.870,137.200 60.200 C 137.200 60.530,137.020 60.800,136.800 60.800 C 136.580 60.800,136.400 61.250,136.400 61.800 C 136.400 62.350,136.209 62.800,135.976 62.800 C 135.743 62.800,135.655 62.965,135.780 63.168 C 135.905 63.370,135.718 63.825,135.365 64.178 C 135.011 64.531,134.824 65.086,134.949 65.410 C 135.094 65.788,134.928 66.002,134.487 66.006 C 133.897 66.011,133.885 66.067,134.400 66.400 C 134.836 66.682,134.857 66.789,134.476 66.794 C 134.188 66.797,134.052 66.961,134.174 67.158 C 134.296 67.355,134.126 67.619,133.798 67.746 C 133.454 67.877,133.200 68.477,133.200 69.154 C 133.200 69.803,133.012 70.396,132.782 70.473 C 132.552 70.549,132.335 71.002,132.299 71.478 C 132.263 71.955,132.091 72.256,131.917 72.149 C 131.743 72.041,131.600 72.233,131.600 72.576 C 131.600 72.919,131.440 73.200,131.245 73.200 C 131.049 73.200,130.766 73.853,130.617 74.652 C 130.467 75.451,129.917 76.781,129.395 77.608 C 128.873 78.435,128.565 79.232,128.711 79.378 C 128.857 79.524,128.753 79.782,128.479 79.951 C 128.205 80.120,127.900 80.682,127.800 81.200 C 127.700 81.718,127.408 82.271,127.151 82.430 C 126.894 82.589,126.797 83.014,126.935 83.375 C 127.086 83.768,126.950 84.121,126.596 84.257 C 126.271 84.382,126.115 84.662,126.249 84.880 C 126.384 85.098,126.097 85.813,125.612 86.469 C 125.127 87.126,124.835 87.769,124.965 87.898 C 125.094 88.027,125.200 87.893,125.200 87.600 C 125.200 87.307,125.295 87.161,125.410 87.277 C 125.631 87.498,124.015 90.840,123.502 91.222 C 123.338 91.345,123.164 91.930,123.115 92.522 C 123.066 93.115,122.885 93.600,122.713 93.600 C 122.541 93.600,122.400 93.881,122.400 94.224 C 122.400 94.567,122.257 94.759,122.083 94.651 C 121.909 94.544,121.738 94.832,121.703 95.292 C 121.668 95.752,121.496 96.234,121.320 96.364 C 121.144 96.494,120.941 96.870,120.870 97.200 C 120.798 97.530,120.573 97.860,120.370 97.933 C 120.166 98.007,120.000 98.512,120.000 99.057 C 120.000 99.615,119.826 99.939,119.600 99.800 C 119.374 99.660,119.200 99.988,119.200 100.553 C 119.200 101.103,119.020 101.664,118.800 101.800 C 118.580 101.936,118.400 102.497,118.400 103.047 C 118.400 103.612,118.226 103.940,118.000 103.800 C 117.653 103.586,117.391 104.743,117.563 105.730 C 117.594 105.911,117.435 105.945,117.210 105.806 C 116.984 105.667,116.800 105.833,116.800 106.176 C 116.800 106.519,116.620 106.800,116.400 106.800 C 116.180 106.800,116.000 107.239,116.000 107.776 C 116.000 108.313,115.808 108.872,115.573 109.017 C 115.338 109.162,115.242 109.533,115.360 109.840 C 115.478 110.148,115.404 110.400,115.195 110.400 C 114.986 110.400,114.702 110.850,114.564 111.400 C 114.426 111.950,114.134 112.400,113.914 112.400 C 113.694 112.400,113.613 112.657,113.733 112.971 C 113.854 113.285,113.693 113.757,113.376 114.020 C 113.059 114.283,112.800 114.836,112.800 115.249 C 112.800 115.662,112.609 116.000,112.376 116.000 C 112.143 116.000,112.055 116.165,112.180 116.368 C 112.305 116.570,112.123 117.020,111.775 117.368 C 111.328 117.814,111.292 118.000,111.651 118.000 C 112.027 118.000,112.043 118.117,111.711 118.449 C 111.464 118.696,111.355 119.191,111.469 119.549 C 111.631 120.059,111.591 120.082,111.288 119.657 C 111.000 119.254,110.825 119.235,110.610 119.584 C 110.450 119.842,110.422 120.155,110.546 120.279 C 110.670 120.403,110.508 120.881,110.186 121.342 C 109.864 121.802,109.600 122.483,109.600 122.856 C 109.600 123.228,109.408 123.597,109.174 123.675 C 108.940 123.753,108.644 124.593,108.517 125.540 C 108.390 126.488,108.170 127.074,108.027 126.844 C 107.884 126.613,107.530 127.229,107.240 128.212 C 106.949 129.195,106.552 130.000,106.356 130.000 C 106.160 130.000,106.021 130.135,106.047 130.300 C 106.192 131.213,105.946 132.014,105.590 131.794 C 105.365 131.655,105.226 131.689,105.282 131.870 C 105.338 132.052,105.043 133.010,104.626 134.000 C 104.209 134.990,103.818 136.067,103.756 136.393 C 103.694 136.719,103.453 137.049,103.219 137.127 C 102.986 137.205,102.888 137.418,103.001 137.602 C 103.115 137.785,102.914 138.229,102.556 138.587 C 102.198 138.945,102.017 139.350,102.153 139.487 C 102.290 139.623,102.102 140.066,101.737 140.470 C 101.371 140.874,101.191 141.324,101.337 141.470 C 101.482 141.616,101.303 142.065,100.939 142.468 C 100.574 142.870,100.416 143.200,100.587 143.200 C 100.758 143.200,100.674 143.470,100.400 143.800 C 100.126 144.130,100.045 144.400,100.221 144.400 C 100.396 144.400,100.149 144.816,99.672 145.324 C 99.194 145.832,98.764 146.732,98.715 147.324 C 98.666 147.916,98.474 148.400,98.289 148.400 C 98.104 148.400,98.065 148.581,98.202 148.803 C 98.339 149.024,98.170 149.313,97.828 149.445 C 97.485 149.576,97.295 149.830,97.406 150.010 C 97.517 150.189,97.318 150.625,96.965 150.978 C 96.611 151.331,96.418 151.871,96.536 152.177 C 96.653 152.483,96.465 152.843,96.117 152.976 C 95.770 153.110,95.602 153.335,95.744 153.477 C 95.886 153.620,95.759 154.111,95.461 154.568 C 95.163 155.026,94.966 155.715,95.024 156.100 C 95.082 156.485,94.978 156.800,94.794 156.800 C 94.325 156.800,93.166 159.221,93.430 159.649 C 93.549 159.842,93.446 160.000,93.200 160.000 C 92.954 160.000,92.856 160.168,92.983 160.372 C 93.109 160.577,93.038 160.853,92.824 160.985 C 92.610 161.117,92.548 161.519,92.685 161.878 C 92.853 162.315,92.781 162.435,92.468 162.242 C 92.156 162.049,92.000 162.302,92.000 163.000 C 92.000 163.596,91.828 163.941,91.600 163.800 C 91.372 163.659,91.200 164.004,91.200 164.600 C 91.200 165.196,91.028 165.541,90.800 165.400 C 90.460 165.190,90.196 166.309,90.353 167.300 C 90.379 167.465,90.220 167.600,90.000 167.600 C 89.780 167.600,89.600 167.960,89.600 168.400 C 89.600 168.840,89.409 169.200,89.176 169.200 C 88.943 169.200,88.848 169.353,88.964 169.541 C 89.080 169.729,88.916 170.224,88.600 170.641 C 88.284 171.058,88.020 171.777,88.013 172.238 C 88.006 172.699,87.639 173.403,87.198 173.802 C 86.756 174.202,86.476 174.609,86.574 174.708 C 86.673 174.806,86.166 176.015,85.447 177.393 C 84.729 178.771,84.168 180.271,84.202 180.726 C 84.235 181.182,84.069 181.520,83.831 181.477 C 83.594 181.435,83.447 181.691,83.505 182.047 C 83.563 182.402,83.338 182.919,83.005 183.196 C 82.672 183.472,82.400 184.047,82.400 184.473 C 82.400 184.899,82.220 185.136,82.000 185.000 C 81.773 184.860,81.600 185.196,81.600 185.776 C 81.600 186.339,81.375 186.803,81.100 186.806 C 80.732 186.811,80.743 186.903,81.143 187.156 C 81.527 187.400,81.554 187.581,81.236 187.778 C 80.989 187.930,80.891 188.223,81.017 188.428 C 81.144 188.632,80.967 188.800,80.624 188.800 C 80.267 188.800,80.000 189.142,80.000 189.600 C 80.000 190.040,79.809 190.400,79.576 190.400 C 79.343 190.400,79.255 190.565,79.380 190.768 C 79.505 190.970,79.323 191.419,78.976 191.767 C 78.562 192.181,78.440 192.707,78.622 193.299 C 78.775 193.794,78.760 194.068,78.589 193.906 C 78.204 193.541,76.275 197.474,76.589 197.983 C 76.714 198.185,76.498 198.536,76.108 198.763 C 75.591 199.065,75.555 199.179,75.976 199.188 C 76.401 199.197,76.358 199.343,75.811 199.742 C 75.345 200.083,75.167 200.536,75.330 200.963 C 75.485 201.365,75.429 201.542,75.195 201.397 C 74.978 201.263,74.800 201.523,74.800 201.976 C 74.800 202.429,74.653 202.800,74.472 202.800 C 74.292 202.800,73.900 203.700,73.600 204.800 C 73.300 205.900,72.937 206.800,72.792 206.800 C 72.647 206.800,72.290 207.520,72.000 208.400 C 71.710 209.280,71.321 210.000,71.136 210.000 C 70.951 210.000,70.800 210.450,70.800 211.000 C 70.800 211.550,70.620 212.000,70.400 212.000 C 70.180 212.000,70.000 212.270,70.000 212.600 C 70.000 212.930,69.826 213.200,69.613 213.200 C 69.399 213.200,69.320 213.447,69.436 213.748 C 69.551 214.050,69.396 214.547,69.091 214.852 C 68.786 215.157,68.601 215.604,68.681 215.844 C 68.761 216.084,68.551 216.509,68.213 216.789 C 67.876 217.069,67.600 217.546,67.600 217.849 C 67.600 218.152,67.412 218.400,67.182 218.400 C 66.953 218.400,66.804 218.625,66.852 218.900 C 66.935 219.382,66.637 220.201,65.284 223.200 C 64.623 224.667,64.532 224.931,64.450 225.624 C 64.423 225.857,64.220 225.936,64.000 225.800 C 63.766 225.655,63.600 226.070,63.600 226.800 C 63.600 227.486,63.457 227.959,63.283 227.851 C 63.109 227.744,62.938 228.032,62.903 228.492 C 62.868 228.952,62.696 229.434,62.519 229.564 C 61.848 230.058,61.119 231.945,61.415 232.424 C 61.616 232.749,61.561 232.823,61.257 232.635 C 60.954 232.448,60.704 232.778,60.545 233.573 C 60.410 234.248,60.143 234.800,59.950 234.800 C 59.758 234.800,59.600 234.991,59.600 235.224 C 59.600 235.457,59.754 235.552,59.942 235.436 C 60.130 235.319,60.199 235.669,60.096 236.212 C 59.992 236.755,59.748 237.200,59.553 237.200 C 59.359 237.200,59.200 237.470,59.200 237.800 C 59.200 238.130,59.020 238.400,58.800 238.400 C 58.580 238.400,58.400 238.670,58.400 239.000 C 58.400 239.330,58.220 239.600,58.000 239.600 C 57.780 239.600,57.600 239.791,57.600 240.024 C 57.600 240.257,57.775 240.339,57.989 240.207 C 58.481 239.903,56.740 243.297,56.200 243.694 C 55.980 243.856,55.963 243.991,56.162 243.994 C 56.361 243.997,56.198 244.360,55.800 244.800 C 55.296 245.357,55.235 245.600,55.599 245.600 C 55.925 245.600,55.821 245.864,55.324 246.300 C 54.885 246.685,54.595 247.204,54.680 247.454 C 54.766 247.703,54.566 248.177,54.237 248.506 C 53.908 248.835,53.764 249.231,53.918 249.385 C 54.073 249.539,53.929 249.876,53.599 250.133 C 53.270 250.390,52.936 251.050,52.859 251.600 C 52.781 252.150,52.601 252.690,52.459 252.800 C 51.855 253.267,51.200 254.869,51.194 255.895 C 51.189 256.755,51.102 256.867,50.800 256.400 C 50.485 255.912,50.411 255.964,50.406 256.676 C 50.403 257.158,50.220 257.664,50.000 257.800 C 49.780 257.936,49.600 258.397,49.600 258.824 C 49.600 259.251,49.420 259.600,49.200 259.600 C 48.980 259.600,48.800 259.960,48.800 260.400 C 48.800 260.840,48.620 261.200,48.400 261.200 C 48.180 261.200,48.000 261.391,48.000 261.624 C 48.000 261.857,48.193 261.928,48.430 261.782 C 48.667 261.635,48.631 261.882,48.349 262.332 C 48.069 262.781,47.673 263.045,47.468 262.918 C 47.264 262.792,47.186 262.939,47.296 263.244 C 47.406 263.550,47.221 264.115,46.886 264.500 C 46.413 265.043,46.395 265.200,46.808 265.200 C 47.146 265.200,47.007 265.554,46.428 266.170 C 45.926 266.704,45.636 267.335,45.783 267.573 C 45.930 267.811,45.782 268.109,45.454 268.234 C 45.126 268.360,44.925 268.809,45.006 269.232 C 45.098 269.709,44.931 270.000,44.563 270.000 C 44.156 270.000,44.017 270.328,44.114 271.057 C 44.208 271.756,43.936 272.459,43.313 273.131 C 42.795 273.690,42.455 274.367,42.558 274.635 C 42.661 274.903,42.622 275.244,42.472 275.394 C 42.323 275.544,42.189 275.787,42.176 275.933 C 42.162 276.080,41.577 277.357,40.876 278.771 C 40.174 280.185,39.600 281.580,39.600 281.871 C 39.600 282.162,39.420 282.400,39.200 282.400 C 38.980 282.400,38.800 282.760,38.800 283.200 C 38.800 283.640,38.575 284.003,38.300 284.006 C 37.900 284.011,37.901 284.076,38.301 284.330 C 38.679 284.571,38.602 284.861,37.985 285.524 C 37.460 286.087,37.353 286.402,37.684 286.406 C 38.091 286.411,38.087 286.484,37.666 286.751 C 37.372 286.937,37.147 287.204,37.166 287.345 C 37.324 288.527,37.170 288.972,36.800 288.400 C 36.499 287.934,36.411 288.051,36.406 288.924 C 36.402 289.679,36.246 289.952,35.932 289.758 C 35.619 289.564,35.547 289.685,35.715 290.124 C 35.869 290.524,35.700 290.934,35.283 291.177 C 34.908 291.396,34.741 291.581,34.914 291.588 C 35.087 291.595,35.005 292.005,34.733 292.500 C 34.461 292.995,34.197 293.652,34.146 293.960 C 34.095 294.268,33.835 294.655,33.568 294.820 C 33.302 294.984,33.194 295.407,33.329 295.760 C 33.486 296.168,33.362 296.400,32.987 296.400 C 32.645 296.400,32.399 296.776,32.399 297.300 C 32.398 297.795,32.038 298.789,31.599 299.510 C 31.159 300.230,30.800 301.186,30.800 301.633 C 30.800 302.081,30.636 302.346,30.435 302.222 C 30.234 302.098,30.121 302.457,30.182 303.021 C 30.261 303.734,30.135 303.984,29.768 303.843 C 29.446 303.720,29.321 303.851,29.448 304.180 C 29.561 304.476,29.459 304.840,29.221 304.987 C 28.982 305.135,28.891 305.423,29.017 305.628 C 29.144 305.832,29.080 306.000,28.876 306.000 C 28.671 306.000,28.526 306.405,28.552 306.900 C 28.580 307.425,28.392 307.758,28.100 307.700 C 27.825 307.645,27.600 307.960,27.600 308.400 C 27.600 308.840,27.445 309.200,27.255 309.200 C 27.065 309.200,26.924 309.695,26.942 310.300 C 26.964 311.024,26.791 311.360,26.436 311.283 C 26.076 311.205,25.967 311.431,26.106 311.964 C 26.221 312.403,26.127 312.824,25.897 312.901 C 25.666 312.978,25.450 313.415,25.417 313.872 C 25.383 314.329,25.051 315.168,24.678 315.737 C 24.305 316.306,24.000 317.046,24.000 317.381 C 24.000 317.717,23.697 318.344,23.328 318.776 C 22.958 319.208,22.592 319.975,22.516 320.481 C 22.439 320.986,22.202 321.460,21.988 321.533 C 21.775 321.607,21.600 321.924,21.600 322.239 C 21.600 322.865,20.789 324.461,20.279 324.837 C 20.102 324.967,19.989 325.237,20.026 325.437 C 20.201 326.364,19.960 327.223,19.590 326.994 C 19.365 326.855,19.206 326.889,19.237 327.070 C 19.395 327.978,19.155 328.819,18.800 328.600 C 18.572 328.459,18.400 328.804,18.400 329.400 C 18.400 329.996,18.228 330.341,18.000 330.200 C 17.780 330.064,17.600 330.287,17.600 330.696 C 17.600 331.105,17.375 331.682,17.100 331.979 C 16.694 332.416,16.712 332.458,17.200 332.200 C 17.688 331.942,17.706 331.984,17.300 332.421 C 17.025 332.718,16.800 333.295,16.800 333.704 C 16.800 334.113,16.642 334.350,16.449 334.230 C 16.255 334.111,15.993 334.536,15.865 335.176 C 15.737 335.815,15.387 336.568,15.087 336.848 C 14.786 337.129,14.625 337.797,14.729 338.338 C 14.869 339.074,14.785 339.238,14.390 338.994 C 14.017 338.763,13.933 338.850,14.103 339.291 C 14.236 339.639,13.984 340.296,13.529 340.784 C 13.007 341.344,12.784 342.004,12.904 342.631 C 13.063 343.465,13.002 343.534,12.485 343.105 C 11.961 342.670,11.906 342.779,12.073 343.919 C 12.221 344.926,12.137 345.185,11.712 345.022 C 11.408 344.905,11.256 344.967,11.375 345.159 C 11.494 345.352,11.342 345.716,11.037 345.969 C 10.732 346.222,10.567 346.750,10.669 347.143 C 10.772 347.535,10.592 348.075,10.269 348.343 C 9.937 348.618,9.767 349.214,9.876 349.715 C 10.008 350.321,9.954 350.439,9.704 350.089 C 9.287 349.505,8.400 351.075,8.400 352.395 C 8.400 352.812,8.220 353.264,8.000 353.400 C 7.780 353.536,7.600 353.997,7.600 354.424 C 7.600 354.851,7.420 355.200,7.200 355.200 C 6.980 355.200,6.800 355.560,6.800 356.000 C 6.800 356.440,6.620 356.800,6.400 356.800 C 6.180 356.800,6.000 357.160,6.000 357.600 C 6.000 358.040,5.809 358.400,5.576 358.400 C 5.343 358.400,5.257 358.569,5.385 358.776 C 5.657 359.216,4.357 362.400,3.906 362.400 C 3.738 362.400,3.600 362.670,3.600 363.000 C 3.600 363.330,3.409 363.600,3.176 363.600 C 2.943 363.600,2.844 363.748,2.956 363.929 C 3.068 364.109,2.894 364.769,2.570 365.393 C 2.246 366.018,1.946 366.942,1.904 367.446 C 1.863 367.950,1.743 368.277,1.639 368.173 C 1.346 367.879,0.001 371.677,0.000 372.800 L 0.000 373.800 46.500 373.800 C 76.967 373.800,93.138 373.662,93.400 373.400 C 93.919 372.881,94.798 370.362,94.806 369.372 C 94.811 368.727,94.876 368.699,95.200 369.200 C 95.515 369.687,95.589 369.634,95.594 368.919 C 95.601 367.843,96.404 366.000,96.864 366.000 C 97.049 366.000,97.200 365.574,97.200 365.054 C 97.200 364.534,97.560 363.650,98.000 363.091 C 98.440 362.531,98.800 361.793,98.800 361.449 C 98.800 361.105,99.165 360.175,99.610 359.381 C 100.056 358.588,100.371 357.637,100.310 357.269 C 100.247 356.887,100.427 356.647,100.730 356.710 C 101.021 356.770,101.158 356.656,101.034 356.455 C 100.910 356.255,101.085 355.861,101.423 355.581 C 101.760 355.301,101.946 354.835,101.835 354.546 C 101.724 354.258,101.877 353.881,102.176 353.711 C 102.474 353.540,102.692 352.950,102.659 352.400 C 102.620 351.742,102.788 351.440,103.149 351.516 C 103.487 351.588,103.612 351.408,103.474 351.049 C 103.351 350.729,103.521 350.363,103.851 350.236 C 104.181 350.109,104.348 349.839,104.222 349.636 C 104.097 349.433,104.205 348.757,104.462 348.134 C 104.719 347.510,104.900 346.865,104.865 346.700 C 104.829 346.535,105.085 346.400,105.433 346.400 C 105.782 346.400,105.985 346.175,105.886 345.900 C 105.786 345.625,105.996 345.054,106.352 344.631 C 106.708 344.208,106.788 343.986,106.528 344.137 C 106.269 344.288,106.513 343.554,107.070 342.506 C 107.628 341.458,108.065 340.555,108.042 340.500 C 107.816 339.961,108.091 338.809,108.400 339.000 C 108.620 339.136,108.800 338.864,108.800 338.395 C 108.800 337.926,109.062 337.281,109.383 336.960 C 109.704 336.639,109.853 336.083,109.715 335.723 C 109.547 335.285,109.619 335.165,109.932 335.358 C 110.193 335.520,110.400 335.428,110.400 335.150 C 110.400 334.876,110.736 333.921,111.148 333.026 C 111.559 332.132,112.120 330.817,112.394 330.105 C 112.674 329.377,113.077 328.924,113.314 329.071 C 113.571 329.229,113.642 329.086,113.495 328.704 C 113.363 328.360,113.507 327.745,113.815 327.339 C 114.123 326.932,114.380 326.285,114.387 325.900 C 114.394 325.515,114.580 325.200,114.800 325.200 C 115.020 325.200,115.200 324.840,115.200 324.400 C 115.200 323.960,115.357 323.600,115.548 323.600 C 115.739 323.600,115.874 323.195,115.848 322.700 C 115.822 322.205,116.004 321.838,116.253 321.884 C 116.502 321.931,116.699 321.751,116.690 321.484 C 116.647 320.192,116.838 319.576,117.210 319.806 C 117.435 319.945,117.594 319.911,117.563 319.730 C 117.411 318.860,117.664 318.082,118.329 317.368 C 119.244 316.386,119.694 314.804,119.063 314.788 C 118.808 314.781,118.915 314.592,119.300 314.368 C 119.685 314.144,120.000 313.599,120.000 313.157 C 120.000 312.651,120.171 312.459,120.462 312.638 C 120.744 312.812,120.815 312.748,120.645 312.473 C 120.492 312.225,120.665 311.568,121.029 311.011 C 121.394 310.455,121.547 310.000,121.370 310.000 C 121.192 310.000,121.348 309.775,121.716 309.500 C 122.084 309.225,122.439 308.640,122.504 308.200 C 122.570 307.760,122.764 307.175,122.935 306.900 C 123.107 306.625,123.119 306.192,122.962 305.938 C 122.785 305.652,122.852 305.585,123.139 305.762 C 123.635 306.069,124.561 304.184,124.200 303.601 C 124.087 303.418,124.205 303.198,124.461 303.113 C 124.717 303.028,124.993 302.517,125.075 301.979 C 125.156 301.440,125.398 300.940,125.612 300.867 C 125.825 300.793,126.000 300.108,126.000 299.343 C 126.000 298.518,126.163 298.053,126.400 298.200 C 126.620 298.336,126.800 298.167,126.800 297.824 C 126.800 297.481,126.974 297.200,127.187 297.200 C 127.401 297.200,127.472 296.932,127.346 296.603 C 127.217 296.269,127.387 295.903,127.731 295.771 C 128.069 295.641,128.355 295.235,128.367 294.868 C 128.417 293.353,128.551 292.800,128.867 292.800 C 129.050 292.800,129.200 292.410,129.200 291.933 C 129.200 291.457,129.324 291.190,129.475 291.341 C 129.782 291.649,131.358 288.533,131.367 287.600 C 131.370 287.270,131.604 286.856,131.886 286.680 C 132.169 286.504,132.400 286.020,132.400 285.604 C 132.400 285.188,132.580 284.736,132.800 284.600 C 133.020 284.464,133.200 283.935,133.200 283.425 C 133.200 282.915,133.461 282.282,133.780 282.017 C 134.288 281.595,135.336 279.157,135.383 278.285 C 135.392 278.112,135.580 277.842,135.800 277.685 C 136.020 277.528,136.218 277.175,136.240 276.900 C 136.362 275.369,136.435 275.174,136.800 275.400 C 137.020 275.536,137.200 275.315,137.200 274.908 C 137.200 274.118,138.386 271.591,139.266 270.505 C 139.648 270.034,139.657 269.932,139.300 270.147 C 139.025 270.312,138.800 270.257,138.800 270.024 C 138.800 269.791,138.974 269.600,139.186 269.600 C 139.398 269.600,139.776 269.218,140.026 268.752 C 140.393 268.065,140.377 267.964,139.940 268.220 C 139.643 268.395,139.726 268.165,140.124 267.710 C 140.682 267.073,140.728 266.835,140.324 266.673 C 139.998 266.542,140.080 266.451,140.543 266.432 C 141.009 266.412,141.206 266.191,141.070 265.839 C 140.952 265.531,140.968 265.165,141.106 265.028 C 141.244 264.890,141.401 264.470,141.456 264.096 C 141.511 263.721,141.746 263.351,141.978 263.274 C 142.210 263.197,142.400 262.778,142.400 262.343 C 142.400 261.842,142.571 261.658,142.868 261.842 C 143.185 262.038,143.252 261.911,143.075 261.450 C 142.913 261.029,143.039 260.683,143.407 260.542 C 143.742 260.413,144.000 259.811,144.000 259.157 C 144.000 258.521,144.180 258.000,144.400 258.000 C 144.620 258.000,144.800 257.640,144.800 257.200 C 144.800 256.760,144.936 256.400,145.102 256.400 C 145.269 256.400,145.644 255.815,145.936 255.100 C 147.059 252.350,147.304 251.778,147.647 251.105 C 147.841 250.723,148.000 250.138,148.000 249.805 C 148.000 249.472,148.191 249.200,148.424 249.200 C 148.657 249.200,148.735 249.019,148.598 248.797 C 148.461 248.576,148.634 248.285,148.982 248.152 C 149.330 248.018,149.580 247.704,149.538 247.454 C 149.496 247.205,149.659 246.550,149.901 246.000 C 150.143 245.450,150.746 244.055,151.242 242.900 C 151.737 241.745,152.291 240.800,152.471 240.800 C 152.652 240.800,152.800 240.350,152.800 239.800 C 152.800 239.250,152.955 238.800,153.145 238.800 C 153.334 238.800,153.403 238.347,153.297 237.794 C 153.137 236.959,153.226 236.835,153.817 237.062 C 154.392 237.283,154.487 237.174,154.308 236.493 C 154.181 236.006,154.300 235.570,154.591 235.459 C 154.868 235.353,155.068 234.846,155.035 234.333 C 155.003 233.820,155.160 233.273,155.385 233.117 C 155.609 232.961,155.795 232.511,155.797 232.117 C 155.798 231.723,156.029 231.446,156.308 231.503 C 156.647 231.571,156.756 231.273,156.636 230.609 C 156.537 230.061,156.651 229.492,156.889 229.345 C 157.167 229.173,157.207 229.265,157.000 229.600 C 156.780 229.955,156.832 230.027,157.162 229.824 C 157.469 229.633,157.556 229.063,157.399 228.262 C 157.214 227.318,157.257 227.151,157.570 227.600 C 157.901 228.076,157.990 227.952,158.000 227.000 C 158.009 226.077,158.102 225.939,158.400 226.400 C 158.702 226.868,158.789 226.757,158.794 225.900 C 158.797 225.295,158.980 224.800,159.200 224.800 C 159.420 224.800,159.600 224.339,159.600 223.776 C 159.600 223.196,159.773 222.860,160.000 223.000 C 160.220 223.136,160.400 222.877,160.400 222.424 C 160.400 221.971,160.599 221.600,160.843 221.600 C 161.086 221.600,161.187 221.343,161.067 221.029 C 160.946 220.715,161.091 220.256,161.389 220.009 C 161.687 219.762,162.059 218.624,162.216 217.480 C 162.374 216.336,162.909 214.500,163.406 213.400 C 163.904 212.300,164.670 210.590,165.110 209.600 C 165.549 208.610,166.289 206.945,166.754 205.900 C 167.220 204.855,167.979 203.145,168.442 202.100 C 168.905 201.055,169.526 199.660,169.821 199.000 C 170.116 198.340,171.824 194.470,173.617 190.400 C 175.409 186.330,177.219 182.235,177.638 181.300 C 178.057 180.365,178.780 178.745,179.245 177.700 C 181.637 172.321,182.149 171.342,183.036 170.455 C 183.566 169.925,184.000 169.145,184.000 168.722 C 184.000 168.299,184.163 168.054,184.363 168.177 C 184.562 168.300,184.631 168.041,184.516 167.601 C 184.366 167.028,184.503 166.800,184.996 166.800 C 185.439 166.800,185.605 166.589,185.460 166.212 C 185.336 165.888,185.466 165.391,185.750 165.108 C 186.193 164.664,186.863 162.890,186.967 161.885 C 186.985 161.712,187.265 161.407,187.588 161.207 C 187.912 161.007,188.049 160.715,187.892 160.559 C 187.735 160.402,187.822 160.014,188.085 159.698 C 188.348 159.381,188.621 158.735,188.693 158.261 C 188.765 157.787,188.998 157.340,189.212 157.267 C 189.425 157.193,189.600 156.698,189.600 156.167 C 189.600 155.635,189.791 155.200,190.024 155.200 C 190.257 155.200,190.349 155.040,190.228 154.845 C 190.107 154.650,190.255 154.286,190.556 154.036 C 191.057 153.621,191.781 151.417,191.654 150.700 C 191.624 150.535,191.780 150.400,192.000 150.400 C 192.220 150.400,192.400 150.040,192.400 149.600 C 192.400 149.160,192.580 148.800,192.800 148.800 C 193.020 148.800,193.200 148.440,193.200 148.000 C 193.200 147.560,193.380 147.200,193.600 147.200 C 193.820 147.200,194.000 146.840,194.000 146.400 C 194.000 145.960,194.164 145.600,194.365 145.600 C 194.565 145.600,194.681 145.159,194.622 144.619 C 194.563 144.079,194.709 143.674,194.948 143.719 C 195.186 143.764,195.448 143.350,195.531 142.800 C 195.613 142.250,195.798 141.710,195.940 141.600 C 196.555 141.127,197.276 139.506,196.730 139.827 C 196.419 140.009,196.468 139.820,196.848 139.369 C 197.204 138.946,197.406 138.350,197.296 138.044 C 197.186 137.739,197.273 137.598,197.488 137.731 C 197.704 137.864,198.116 137.259,198.404 136.387 C 198.692 135.514,199.060 134.800,199.222 134.800 C 199.734 134.800,198.811 131.491,197.584 128.925 C 196.933 127.564,196.400 126.169,196.400 125.825 C 196.400 125.481,196.220 125.200,196.000 125.200 C 195.780 125.200,195.600 124.876,195.600 124.480 C 195.600 124.084,195.448 123.589,195.262 123.380 C 195.077 123.171,194.414 121.740,193.791 120.200 C 193.167 118.660,192.509 117.229,192.328 117.020 C 192.148 116.811,192.000 116.316,192.000 115.920 C 192.000 115.524,191.820 115.200,191.600 115.200 C 191.380 115.200,191.200 114.851,191.200 114.424 C 191.200 113.997,191.020 113.536,190.800 113.400 C 190.580 113.264,190.400 112.713,190.400 112.176 C 190.400 111.639,190.220 111.200,190.000 111.200 C 189.780 111.200,189.600 110.840,189.600 110.400 C 189.600 109.960,189.420 109.600,189.200 109.600 C 188.980 109.600,188.800 109.240,188.800 108.800 C 188.800 108.360,188.620 108.000,188.400 108.000 C 188.180 108.000,188.000 107.651,188.000 107.224 C 188.000 106.797,187.820 106.336,187.600 106.200 C 187.380 106.064,187.200 105.603,187.200 105.176 C 187.200 104.749,187.020 104.400,186.800 104.400 C 186.580 104.400,186.400 104.147,186.400 103.838 C 186.400 103.353,185.848 102.080,184.350 99.105 C 184.157 98.723,184.000 98.138,184.000 97.805 C 184.000 97.472,183.820 97.200,183.600 97.200 C 183.380 97.200,183.200 96.840,183.200 96.400 C 183.200 95.960,183.020 95.600,182.800 95.600 C 182.580 95.600,182.400 95.364,182.400 95.075 C 182.400 94.584,181.254 91.871,180.385 90.305 C 180.173 89.923,180.000 89.338,180.000 89.005 C 180.000 88.672,179.820 88.400,179.600 88.400 C 179.380 88.400,179.200 88.076,179.200 87.680 C 179.200 87.284,179.047 86.789,178.860 86.580 C 178.673 86.371,178.228 85.443,177.870 84.517 C 177.120 82.575,175.703 79.318,175.167 78.305 C 174.965 77.923,174.800 77.248,174.800 76.805 C 174.800 76.362,174.620 76.000,174.400 76.000 C 174.180 76.000,174.000 75.640,174.000 75.200 C 174.000 74.760,173.820 74.400,173.600 74.400 C 173.380 74.400,173.200 74.040,173.200 73.600 C 173.200 73.160,173.020 72.800,172.800 72.800 C 172.580 72.800,172.400 72.451,172.400 72.024 C 172.400 71.597,172.220 71.136,172.000 71.000 C 171.780 70.864,171.600 70.403,171.600 69.976 C 171.600 69.549,171.420 69.200,171.200 69.200 C 170.980 69.200,170.800 68.840,170.800 68.400 C 170.800 67.960,170.620 67.600,170.400 67.600 C 170.180 67.600,170.000 67.328,170.000 66.995 C 170.000 66.662,169.820 66.032,169.600 65.595 C 169.380 65.158,169.020 64.442,168.800 64.005 C 168.580 63.568,168.400 62.938,168.400 62.605 C 168.400 62.272,168.220 62.000,168.000 62.000 C 167.780 62.000,167.600 61.640,167.600 61.200 C 167.600 60.760,167.420 60.400,167.200 60.400 C 166.980 60.400,166.800 60.147,166.800 59.838 C 166.800 59.529,166.457 58.584,166.039 57.738 C 165.202 56.049,163.646 52.640,162.643 50.300 C 162.289 49.475,161.708 48.142,161.351 47.337 C 159.771 43.772,158.400 40.246,158.400 39.745 C 158.400 39.445,158.220 39.200,158.000 39.200 C 157.780 39.200,157.600 38.840,157.600 38.400 C 157.600 37.960,157.420 37.600,157.200 37.600 C 156.980 37.600,156.800 37.240,156.800 36.800 C 156.800 36.360,156.620 36.000,156.400 36.000 C 156.180 36.000,156.000 35.550,156.000 35.000 C 156.000 34.450,155.820 34.000,155.600 34.000 C 155.380 34.000,155.200 33.640,155.200 33.200 C 155.200 32.760,155.020 32.400,154.800 32.400 C 154.580 32.400,154.400 32.135,154.400 31.812 C 154.400 31.489,154.040 30.583,153.600 29.800 C 153.160 29.017,152.800 28.111,152.800 27.788 C 152.800 27.456,152.431 27.200,151.953 27.200 C 151.304 27.200,151.155 27.386,151.316 28.000 " stroke="none" fill="#0c9ce3" fill-rule="evenodd"></path><path id="path2" d="M199.700 26.300 C 174.125 26.357,153.200 26.487,153.200 26.590 C 153.200 26.692,153.630 27.727,154.155 28.888 C 154.681 30.050,155.511 31.900,156.000 33.000 C 156.489 34.100,157.334 35.982,157.877 37.183 C 158.420 38.383,160.539 43.153,162.585 47.783 C 164.632 52.412,166.757 57.190,167.308 58.400 C 168.265 60.500,168.964 62.064,170.842 66.300 C 171.305 67.345,171.924 68.740,172.217 69.400 C 172.510 70.060,174.582 74.740,176.821 79.800 C 180.995 89.232,181.811 91.076,183.200 94.200 C 183.640 95.190,184.360 96.810,184.800 97.800 C 185.240 98.790,185.960 100.410,186.400 101.400 C 186.840 102.390,187.580 104.055,188.046 105.100 C 188.511 106.145,189.251 107.810,189.690 108.800 C 190.130 109.790,190.938 111.590,191.485 112.800 C 197.754 126.653,199.600 131.242,199.600 132.970 C 199.600 133.976,199.780 134.800,200.000 134.800 C 200.220 134.800,200.400 135.160,200.400 135.600 C 200.400 136.040,200.580 136.400,200.800 136.400 C 201.020 136.400,201.200 136.760,201.200 137.200 C 201.200 137.640,201.380 138.000,201.600 138.000 C 201.820 138.000,202.000 138.450,202.000 139.000 C 202.000 139.550,202.180 140.000,202.400 140.000 C 202.620 140.000,202.800 140.360,202.800 140.800 C 202.800 141.240,202.980 141.600,203.200 141.600 C 203.420 141.600,203.600 141.960,203.600 142.400 C 203.600 142.840,203.780 143.200,204.000 143.200 C 204.220 143.200,204.400 143.560,204.400 144.000 C 204.400 144.440,204.580 144.800,204.800 144.800 C 205.020 144.800,205.200 145.340,205.200 146.000 C 205.200 146.660,205.380 147.200,205.600 147.200 C 205.820 147.200,206.000 147.560,206.000 148.000 C 206.000 148.440,206.180 148.800,206.400 148.800 C 206.620 148.800,206.800 149.160,206.800 149.600 C 206.800 150.040,206.980 150.400,207.200 150.400 C 207.420 150.400,207.600 150.760,207.600 151.200 C 207.600 151.640,207.756 152.000,207.948 152.000 C 208.139 152.000,208.392 152.596,208.510 153.325 C 208.722 154.630,210.311 158.410,210.812 158.800 C 210.953 158.910,211.318 159.855,211.622 160.900 C 211.926 161.945,212.315 162.800,212.487 162.800 C 212.659 162.800,212.800 163.160,212.800 163.600 C 212.800 164.040,212.980 164.400,213.200 164.400 C 213.420 164.400,213.600 164.760,213.600 165.200 C 213.600 165.640,213.780 166.000,214.000 166.000 C 214.220 166.000,214.400 166.439,214.400 166.976 C 214.400 167.513,214.580 168.064,214.800 168.200 C 215.020 168.336,215.200 168.797,215.200 169.224 C 215.200 169.651,215.380 170.000,215.600 170.000 C 215.820 170.000,216.000 170.360,216.000 170.800 C 216.000 171.240,216.180 171.600,216.400 171.600 C 216.620 171.600,216.800 171.960,216.800 172.400 C 216.800 172.840,216.980 173.200,217.200 173.200 C 217.420 173.200,217.600 173.650,217.600 174.200 C 217.600 174.750,217.780 175.200,218.000 175.200 C 218.220 175.200,218.400 175.560,218.400 176.000 C 218.400 176.440,218.580 176.800,218.800 176.800 C 219.020 176.800,219.200 177.160,219.200 177.600 C 219.200 178.040,219.380 178.400,219.600 178.400 C 219.820 178.400,220.000 178.760,220.000 179.200 C 220.000 179.640,220.180 180.000,220.400 180.000 C 220.620 180.000,220.800 180.540,220.800 181.200 C 220.800 181.860,220.980 182.400,221.200 182.400 C 221.420 182.400,221.600 182.760,221.600 183.200 C 221.600 183.640,221.780 184.000,222.000 184.000 C 222.220 184.000,222.400 184.360,222.400 184.800 C 222.400 185.240,222.580 185.600,222.800 185.600 C 223.020 185.600,223.200 185.960,223.200 186.400 C 223.200 186.840,223.380 187.200,223.600 187.200 C 223.820 187.200,224.000 187.650,224.000 188.200 C 224.000 188.750,224.136 189.200,224.302 189.200 C 224.593 189.200,225.410 191.231,225.871 193.100 C 225.993 193.595,226.252 194.000,226.447 194.000 C 226.641 194.000,226.800 194.279,226.800 194.619 C 226.800 194.960,227.160 195.984,227.600 196.894 C 228.040 197.805,228.400 198.786,228.400 199.075 C 228.400 199.364,228.580 199.600,228.800 199.600 C 229.020 199.600,229.200 199.960,229.200 200.400 C 229.200 200.840,229.380 201.200,229.600 201.200 C 229.820 201.200,230.000 201.650,230.000 202.200 C 230.000 202.750,230.180 203.200,230.400 203.200 C 230.620 203.200,230.800 203.453,230.800 203.762 C 230.800 204.428,232.468 207.741,232.900 207.933 C 233.065 208.007,233.200 208.592,233.200 209.233 C 233.200 209.875,233.380 210.400,233.600 210.400 C 233.820 210.400,234.000 210.760,234.000 211.200 C 234.000 211.640,234.180 212.000,234.400 212.000 C 234.620 212.000,234.800 212.360,234.800 212.800 C 234.800 213.240,234.980 213.600,235.200 213.600 C 235.420 213.600,235.600 213.960,235.600 214.400 C 235.600 214.840,235.780 215.200,236.000 215.200 C 236.220 215.200,236.400 215.639,236.400 216.176 C 236.400 216.713,236.580 217.264,236.800 217.400 C 237.020 217.536,237.200 217.997,237.200 218.424 C 237.200 218.851,237.380 219.200,237.600 219.200 C 237.820 219.200,238.000 219.560,238.000 220.000 C 238.000 220.440,238.180 220.800,238.400 220.800 C 238.620 220.800,238.800 221.160,238.800 221.600 C 238.800 222.040,238.980 222.400,239.200 222.400 C 239.420 222.400,239.600 222.850,239.600 223.400 C 239.600 223.950,239.780 224.400,240.000 224.400 C 240.220 224.400,240.400 224.748,240.400 225.173 C 240.400 225.598,240.751 226.058,241.181 226.194 C 241.978 226.447,242.653 227.700,245.600 234.400 C 246.519 236.490,247.595 238.920,247.990 239.800 C 248.386 240.680,249.069 242.210,249.509 243.200 C 249.949 244.190,250.689 245.855,251.154 246.900 C 251.620 247.945,252.340 249.565,252.754 250.500 C 255.741 257.230,256.753 259.496,257.665 261.500 C 258.145 262.555,258.494 264.056,258.450 264.874 C 258.381 266.161,259.703 269.661,261.631 273.295 C 261.834 273.677,262.000 274.262,262.000 274.595 C 262.000 274.928,262.180 275.200,262.400 275.200 C 262.620 275.200,262.800 275.560,262.800 276.000 C 262.800 276.440,262.980 276.800,263.200 276.800 C 263.420 276.800,263.600 277.160,263.600 277.600 C 263.600 278.040,263.780 278.400,264.000 278.400 C 264.220 278.400,264.400 278.839,264.400 279.376 C 264.400 279.913,264.580 280.464,264.800 280.600 C 265.020 280.736,265.200 281.197,265.200 281.624 C 265.200 282.051,265.380 282.400,265.600 282.400 C 265.820 282.400,266.000 282.760,266.000 283.200 C 266.000 283.640,266.180 284.000,266.400 284.000 C 266.620 284.000,266.800 284.360,266.800 284.800 C 266.800 285.240,266.980 285.600,267.200 285.600 C 267.420 285.600,267.600 286.050,267.600 286.600 C 267.600 287.150,267.780 287.600,268.000 287.600 C 268.220 287.600,268.400 287.853,268.400 288.162 C 268.400 288.828,270.068 292.141,270.500 292.333 C 270.665 292.407,270.800 292.992,270.800 293.633 C 270.800 294.275,270.980 294.800,271.200 294.800 C 271.420 294.800,271.600 295.160,271.600 295.600 C 271.600 296.040,271.780 296.400,272.000 296.400 C 272.220 296.400,272.400 296.760,272.400 297.200 C 272.400 297.640,272.580 298.000,272.800 298.000 C 273.020 298.000,273.200 298.360,273.200 298.800 C 273.200 299.240,273.380 299.600,273.600 299.600 C 273.820 299.600,274.000 300.039,274.000 300.576 C 274.000 301.113,274.180 301.664,274.400 301.800 C 274.620 301.936,274.800 302.293,274.800 302.594 C 274.800 302.895,275.430 304.505,276.200 306.172 C 276.970 307.839,277.600 309.473,277.600 309.802 C 277.600 310.131,277.780 310.400,278.000 310.400 C 278.220 310.400,278.400 310.760,278.400 311.200 C 278.400 311.640,278.580 312.000,278.800 312.000 C 279.020 312.000,279.200 312.360,279.200 312.800 C 279.200 313.240,279.380 313.600,279.600 313.600 C 279.820 313.600,280.000 314.039,280.000 314.576 C 280.000 315.113,280.180 315.664,280.400 315.800 C 280.620 315.936,280.800 316.397,280.800 316.824 C 280.800 317.251,280.980 317.600,281.200 317.600 C 281.420 317.600,281.600 317.960,281.600 318.400 C 281.600 318.840,281.780 319.200,282.000 319.200 C 282.220 319.200,282.400 319.560,282.400 320.000 C 282.400 320.440,282.580 320.800,282.800 320.800 C 283.020 320.800,283.200 321.250,283.200 321.800 C 283.200 322.350,283.380 322.800,283.600 322.800 C 283.820 322.800,284.000 323.160,284.000 323.600 C 284.000 324.040,284.180 324.400,284.400 324.400 C 284.620 324.400,284.800 324.760,284.800 325.200 C 284.800 325.640,284.980 326.000,285.200 326.000 C 285.420 326.000,285.600 326.360,285.600 326.800 C 285.600 327.240,285.780 327.600,286.000 327.600 C 286.220 327.600,286.400 328.140,286.400 328.800 C 286.400 329.460,286.580 330.000,286.800 330.000 C 287.020 330.000,287.200 330.360,287.200 330.800 C 287.200 331.240,287.380 331.600,287.600 331.600 C 287.820 331.600,288.000 331.960,288.000 332.400 C 288.000 332.840,288.180 333.200,288.400 333.200 C 288.620 333.200,288.800 333.560,288.800 334.000 C 288.800 334.440,288.980 334.800,289.200 334.800 C 289.420 334.800,289.600 335.239,289.600 335.776 C 289.600 336.313,289.780 336.864,290.000 337.000 C 290.220 337.136,290.400 337.597,290.400 338.024 C 290.400 338.451,290.580 338.800,290.800 338.800 C 291.020 338.800,291.200 339.160,291.200 339.600 C 291.200 340.040,291.366 340.400,291.568 340.400 C 291.771 340.400,292.062 340.985,292.215 341.700 C 292.368 342.415,292.833 343.709,293.247 344.575 C 293.661 345.441,294.000 346.386,294.000 346.675 C 294.000 346.964,294.180 347.200,294.400 347.200 C 294.620 347.200,294.800 347.560,294.800 348.000 C 294.800 348.440,294.980 348.800,295.200 348.800 C 295.420 348.800,295.600 349.079,295.600 349.419 C 295.600 349.760,295.960 350.784,296.400 351.694 C 296.840 352.605,297.200 353.586,297.200 353.875 C 297.200 354.164,297.380 354.400,297.600 354.400 C 297.820 354.400,298.000 354.760,298.000 355.200 C 298.000 355.640,298.180 356.000,298.400 356.000 C 298.620 356.000,298.800 356.450,298.800 357.000 C 298.800 357.550,298.980 358.000,299.200 358.000 C 299.420 358.000,299.600 358.360,299.600 358.800 C 299.600 359.240,299.780 359.600,300.000 359.600 C 300.220 359.600,300.400 359.960,300.400 360.400 C 300.400 360.840,300.580 361.200,300.800 361.200 C 301.020 361.200,301.200 361.560,301.200 362.000 C 301.200 362.440,301.380 362.800,301.600 362.800 C 301.820 362.800,302.000 363.239,302.000 363.776 C 302.000 364.313,302.180 364.864,302.400 365.000 C 302.620 365.136,302.800 365.597,302.800 366.024 C 302.800 366.451,302.980 366.800,303.200 366.800 C 303.420 366.800,303.600 367.160,303.600 367.600 C 303.600 368.040,303.780 368.400,304.000 368.400 C 304.220 368.400,304.400 368.760,304.400 369.200 C 304.400 369.640,304.580 370.000,304.800 370.000 C 305.020 370.000,305.200 370.450,305.200 371.000 C 305.200 371.550,305.367 372.000,305.572 372.000 C 305.777 372.000,306.002 372.405,306.072 372.900 L 306.200 373.800 339.400 374.049 C 357.660 374.185,378.792 374.427,386.361 374.586 L 400.122 374.875 399.858 372.355 C 399.714 370.969,399.416 369.656,399.198 369.438 C 398.979 369.219,398.800 368.716,398.800 368.320 C 398.800 367.924,398.620 367.600,398.400 367.600 C 398.180 367.600,398.000 367.240,398.000 366.800 C 398.000 366.360,397.820 366.000,397.600 366.000 C 397.380 366.000,397.200 365.728,397.200 365.395 C 397.200 365.062,397.020 364.432,396.800 363.995 C 396.580 363.558,396.220 362.842,396.000 362.405 C 395.780 361.968,395.600 361.353,395.600 361.039 C 395.600 360.724,395.465 360.407,395.300 360.333 C 394.801 360.112,393.200 356.778,393.200 355.962 C 393.200 355.543,393.020 355.200,392.800 355.200 C 392.580 355.200,392.400 354.840,392.400 354.400 C 392.400 353.960,392.220 353.600,392.000 353.600 C 391.780 353.600,391.599 353.285,391.598 352.900 C 391.596 352.515,391.326 351.684,390.998 351.054 C 390.669 350.424,390.400 349.738,390.400 349.529 C 390.400 349.185,388.469 344.806,387.568 343.105 C 387.366 342.723,387.200 342.138,387.200 341.805 C 387.200 341.472,387.020 341.200,386.800 341.200 C 386.580 341.200,386.400 340.840,386.400 340.400 C 386.400 339.960,386.220 339.600,386.000 339.600 C 385.780 339.600,385.600 339.240,385.600 338.800 C 385.600 338.360,385.420 338.000,385.200 338.000 C 384.980 338.000,384.800 337.561,384.800 337.024 C 384.800 336.487,384.620 335.936,384.400 335.800 C 384.180 335.664,384.000 335.203,384.000 334.776 C 384.000 334.349,383.820 334.000,383.600 334.000 C 383.380 334.000,383.200 333.640,383.200 333.200 C 383.200 332.760,383.020 332.400,382.800 332.400 C 382.580 332.400,382.400 332.040,382.400 331.600 C 382.400 331.160,382.220 330.800,382.000 330.800 C 381.780 330.800,381.600 330.339,381.600 329.776 C 381.600 329.196,381.427 328.860,381.200 329.000 C 380.980 329.136,380.800 328.912,380.800 328.503 C 380.800 327.591,379.911 325.607,379.500 325.603 C 379.335 325.601,379.200 325.240,379.200 324.800 C 379.200 324.360,379.020 324.000,378.800 324.000 C 378.580 324.000,378.400 323.460,378.400 322.800 C 378.400 322.140,378.220 321.600,378.000 321.600 C 377.780 321.600,377.600 321.240,377.600 320.800 C 377.600 320.360,377.420 320.000,377.200 320.000 C 376.980 320.000,376.800 319.640,376.800 319.200 C 376.800 318.760,376.620 318.400,376.400 318.400 C 376.180 318.400,376.000 318.040,376.000 317.600 C 376.000 317.160,375.820 316.800,375.600 316.800 C 375.380 316.800,375.200 316.348,375.200 315.795 C 375.200 315.242,375.031 314.477,374.826 314.095 C 374.620 313.713,373.974 312.320,373.391 311.000 C 372.808 309.680,372.166 308.287,371.965 307.905 C 371.764 307.523,371.600 306.938,371.600 306.605 C 371.600 306.272,371.420 306.000,371.200 306.000 C 370.980 306.000,370.800 305.640,370.800 305.200 C 370.800 304.760,370.620 304.400,370.400 304.400 C 370.180 304.400,370.000 304.128,370.000 303.795 C 370.000 303.462,369.820 302.832,369.600 302.395 C 369.380 301.958,369.020 301.242,368.800 300.805 C 368.580 300.368,368.400 299.738,368.400 299.405 C 368.400 299.072,368.220 298.800,368.000 298.800 C 367.780 298.800,367.600 298.440,367.600 298.000 C 367.600 297.560,367.420 297.200,367.200 297.200 C 366.980 297.200,366.800 296.851,366.800 296.424 C 366.800 295.997,366.620 295.536,366.400 295.400 C 366.180 295.264,366.000 294.803,366.000 294.376 C 366.000 293.949,365.820 293.600,365.600 293.600 C 365.380 293.600,365.200 293.240,365.200 292.800 C 365.200 292.360,365.020 292.000,364.800 292.000 C 364.580 292.000,364.400 291.640,364.400 291.200 C 364.400 290.760,364.220 290.400,364.000 290.400 C 363.780 290.400,363.600 289.961,363.600 289.424 C 363.600 288.887,363.420 288.336,363.200 288.200 C 362.980 288.064,362.800 287.603,362.800 287.176 C 362.800 286.749,362.620 286.400,362.400 286.400 C 362.180 286.400,362.000 286.040,362.000 285.600 C 362.000 285.160,361.820 284.800,361.600 284.800 C 361.380 284.800,361.200 284.440,361.200 284.000 C 361.200 283.560,361.020 283.200,360.800 283.200 C 360.580 283.200,360.400 282.761,360.400 282.224 C 360.400 281.687,360.220 281.136,360.000 281.000 C 359.780 280.864,359.600 280.403,359.600 279.976 C 359.600 279.549,359.420 279.200,359.200 279.200 C 358.980 279.200,358.800 278.840,358.800 278.400 C 358.800 277.960,358.640 277.600,358.445 277.600 C 358.249 277.600,357.971 276.970,357.826 276.200 C 357.682 275.430,357.381 274.800,357.158 274.800 C 356.935 274.800,356.844 274.652,356.956 274.471 C 357.068 274.291,356.898 273.640,356.580 273.026 C 356.261 272.411,356.000 271.659,356.000 271.354 C 356.000 271.049,355.820 270.800,355.600 270.800 C 355.380 270.800,355.200 270.440,355.200 270.000 C 355.200 269.560,355.053 269.200,354.872 269.200 C 354.692 269.200,354.300 268.300,354.000 267.200 C 353.700 266.100,353.308 265.200,353.128 265.200 C 352.947 265.200,352.800 264.840,352.800 264.400 C 352.800 263.960,352.620 263.600,352.400 263.600 C 352.180 263.600,352.000 263.240,352.000 262.800 C 352.000 262.360,351.820 262.000,351.600 262.000 C 351.380 262.000,351.200 261.550,351.200 261.000 C 351.200 260.450,351.020 260.000,350.800 260.000 C 350.580 260.000,350.400 259.640,350.400 259.200 C 350.400 258.760,350.220 258.400,350.000 258.400 C 349.780 258.400,349.600 258.040,349.600 257.600 C 349.600 257.160,349.420 256.800,349.200 256.800 C 348.980 256.800,348.800 256.451,348.800 256.024 C 348.800 255.597,348.620 255.136,348.400 255.000 C 348.180 254.864,348.000 254.313,348.000 253.776 C 348.000 253.239,347.820 252.800,347.600 252.800 C 347.380 252.800,347.200 252.440,347.200 252.000 C 347.200 251.560,347.020 251.200,346.800 251.200 C 346.580 251.200,346.400 250.840,346.400 250.400 C 346.400 249.960,346.220 249.600,346.000 249.600 C 345.780 249.600,345.600 249.328,345.600 248.995 C 345.600 248.407,345.433 247.982,344.462 246.105 C 344.208 245.613,344.000 244.938,344.000 244.605 C 344.000 244.272,343.820 244.000,343.600 244.000 C 343.380 244.000,343.200 243.640,343.200 243.200 C 343.200 242.760,343.020 242.400,342.800 242.400 C 342.580 242.400,342.400 242.128,342.400 241.795 C 342.400 241.462,342.242 240.877,342.049 240.495 C 341.199 238.814,340.400 236.726,340.400 236.186 C 340.400 235.864,340.220 235.600,340.000 235.600 C 339.780 235.600,339.600 235.328,339.600 234.995 C 339.600 234.662,339.420 234.032,339.200 233.595 C 338.980 233.158,338.620 232.442,338.400 232.005 C 338.180 231.568,338.000 230.938,338.000 230.605 C 338.000 230.272,337.820 230.000,337.600 230.000 C 337.380 230.000,337.200 229.640,337.200 229.200 C 337.200 228.760,337.020 228.400,336.800 228.400 C 336.580 228.400,336.400 228.051,336.400 227.624 C 336.400 227.197,336.220 226.736,336.000 226.600 C 335.780 226.464,335.600 226.003,335.600 225.576 C 335.600 225.149,335.420 224.800,335.200 224.800 C 334.980 224.800,334.800 224.440,334.800 224.000 C 334.800 223.560,334.620 223.200,334.400 223.200 C 334.180 223.200,334.000 222.840,334.000 222.400 C 334.000 221.960,333.820 221.600,333.600 221.600 C 333.380 221.600,333.200 221.161,333.200 220.624 C 333.200 220.087,333.020 219.536,332.800 219.400 C 332.580 219.264,332.400 218.803,332.400 218.376 C 332.400 217.949,332.220 217.600,332.000 217.600 C 331.780 217.600,331.600 217.240,331.600 216.800 C 331.600 216.360,331.420 216.000,331.200 216.000 C 330.980 216.000,330.800 215.640,330.800 215.200 C 330.800 214.760,330.620 214.400,330.400 214.400 C 330.180 214.400,330.000 214.065,330.000 213.656 C 330.000 212.854,327.595 207.887,327.100 207.667 C 326.935 207.593,326.800 207.008,326.800 206.367 C 326.800 205.725,326.620 205.200,326.400 205.200 C 326.180 205.200,326.000 204.840,326.000 204.400 C 326.000 203.960,325.820 203.600,325.600 203.600 C 325.380 203.600,325.199 203.285,325.198 202.900 C 325.196 202.515,324.926 201.684,324.598 201.054 C 324.269 200.424,323.995 199.704,323.990 199.454 C 323.984 199.204,323.264 197.562,322.390 195.804 C 321.515 194.047,320.800 192.292,320.800 191.904 C 320.800 191.517,320.620 191.200,320.400 191.200 C 320.180 191.200,320.000 190.840,320.000 190.400 C 320.000 189.960,319.820 189.600,319.600 189.600 C 319.380 189.600,319.200 189.240,319.200 188.800 C 319.200 188.360,319.020 188.000,318.800 188.000 C 318.580 188.000,318.400 187.651,318.400 187.224 C 318.400 186.797,318.220 186.336,318.000 186.200 C 317.780 186.064,317.600 185.591,317.600 185.148 C 317.600 184.256,316.970 183.495,315.894 183.088 C 315.506 182.941,315.015 182.365,314.803 181.809 C 314.592 181.253,314.036 179.943,313.567 178.899 C 313.099 177.854,312.443 176.370,312.110 175.600 C 311.777 174.830,311.095 173.300,310.595 172.200 C 310.095 171.100,309.418 169.570,309.090 168.800 C 308.761 168.030,308.104 166.530,307.629 165.467 C 300.037 148.483,298.000 143.525,298.000 142.029 C 298.000 141.133,297.820 140.400,297.600 140.400 C 297.380 140.400,297.200 139.961,297.200 139.424 C 297.200 138.887,297.020 138.336,296.800 138.200 C 296.580 138.064,296.400 137.603,296.400 137.176 C 296.400 136.749,296.220 136.400,296.000 136.400 C 295.780 136.400,295.600 136.040,295.600 135.600 C 295.600 135.160,295.420 134.800,295.200 134.800 C 294.980 134.800,294.800 134.440,294.800 134.000 C 294.800 133.560,294.620 133.200,294.400 133.200 C 294.180 133.200,294.000 132.750,294.000 132.200 C 294.000 131.650,293.820 131.200,293.600 131.200 C 293.380 131.200,293.200 130.750,293.200 130.200 C 293.200 129.650,293.020 129.200,292.800 129.200 C 292.580 129.200,292.400 128.840,292.400 128.400 C 292.400 127.960,292.243 127.600,292.050 127.600 C 291.858 127.600,291.592 127.061,291.460 126.402 C 291.329 125.744,290.856 124.450,290.410 123.527 C 289.965 122.605,289.600 121.614,289.600 121.325 C 289.600 121.036,289.420 120.800,289.200 120.800 C 288.980 120.800,288.800 120.440,288.800 120.000 C 288.800 119.560,288.620 119.200,288.400 119.200 C 288.180 119.200,288.000 118.921,288.000 118.581 C 288.000 118.240,287.640 117.216,287.200 116.306 C 286.760 115.395,286.400 114.414,286.400 114.125 C 286.400 113.836,286.220 113.600,286.000 113.600 C 285.780 113.600,285.600 113.240,285.600 112.800 C 285.600 112.360,285.420 112.000,285.200 112.000 C 284.980 112.000,284.800 111.550,284.800 111.000 C 284.800 110.450,284.620 110.000,284.400 110.000 C 284.180 110.000,284.000 109.640,284.000 109.200 C 284.000 108.760,283.820 108.400,283.600 108.400 C 283.380 108.400,283.200 108.040,283.200 107.600 C 283.200 107.160,283.020 106.800,282.800 106.800 C 282.580 106.800,282.400 106.440,282.400 106.000 C 282.400 105.560,282.220 105.200,282.000 105.200 C 281.780 105.200,281.600 104.660,281.600 104.000 C 281.600 103.340,281.420 102.800,281.200 102.800 C 280.980 102.800,280.800 102.440,280.800 102.000 C 280.800 101.560,280.620 101.200,280.400 101.200 C 280.180 101.200,280.000 100.840,280.000 100.400 C 280.000 99.960,279.820 99.600,279.600 99.600 C 279.380 99.600,279.200 99.328,279.200 98.995 C 279.200 98.662,278.992 97.987,278.738 97.495 C 277.767 95.618,277.600 95.193,277.600 94.605 C 277.600 94.272,277.420 94.000,277.200 94.000 C 276.980 94.000,276.800 93.640,276.800 93.200 C 276.800 92.760,276.664 92.400,276.498 92.400 C 276.331 92.400,276.003 91.905,275.767 91.300 C 274.887 89.040,274.313 87.373,274.113 86.500 C 273.999 86.005,273.748 85.600,273.553 85.600 C 273.359 85.600,273.200 85.328,273.200 84.995 C 273.200 84.662,273.043 84.077,272.850 83.695 C 271.352 80.720,270.800 79.447,270.800 78.962 C 270.800 78.653,270.620 78.400,270.400 78.400 C 270.180 78.400,270.000 78.051,270.000 77.624 C 270.000 77.197,269.820 76.736,269.600 76.600 C 269.380 76.464,269.200 76.003,269.200 75.576 C 269.200 75.149,269.020 74.800,268.800 74.800 C 268.580 74.800,268.400 74.440,268.400 74.000 C 268.400 73.560,268.220 73.200,268.000 73.200 C 267.780 73.200,267.600 72.840,267.600 72.400 C 267.600 71.960,267.420 71.600,267.200 71.600 C 266.980 71.600,266.800 71.161,266.800 70.624 C 266.800 70.087,266.620 69.536,266.400 69.400 C 266.180 69.264,266.000 68.803,266.000 68.376 C 266.000 67.949,265.820 67.600,265.600 67.600 C 265.380 67.600,265.200 67.240,265.200 66.800 C 265.200 66.360,265.020 66.000,264.800 66.000 C 264.580 66.000,264.400 65.640,264.400 65.200 C 264.400 64.760,264.220 64.400,264.000 64.400 C 263.780 64.400,263.600 63.939,263.600 63.376 C 263.600 62.796,263.427 62.460,263.200 62.600 C 262.980 62.736,262.800 62.494,262.800 62.061 C 262.800 61.227,261.206 57.892,260.700 57.667 C 260.535 57.593,260.400 57.008,260.400 56.367 C 260.400 55.725,260.220 55.200,260.000 55.200 C 259.780 55.200,259.600 54.840,259.600 54.400 C 259.600 53.960,259.420 53.600,259.200 53.600 C 258.980 53.600,258.800 53.251,258.800 52.824 C 258.800 52.397,258.634 51.945,258.431 51.819 C 258.228 51.694,257.938 51.008,257.788 50.295 C 257.559 49.213,255.316 44.051,253.968 41.505 C 253.766 41.123,253.600 40.538,253.600 40.205 C 253.600 39.872,253.420 39.600,253.200 39.600 C 252.980 39.600,252.800 39.240,252.800 38.800 C 252.800 38.360,252.620 38.000,252.400 38.000 C 252.180 38.000,252.000 37.651,252.000 37.224 C 252.000 36.797,251.820 36.336,251.600 36.200 C 251.380 36.064,251.200 35.513,251.200 34.976 C 251.200 34.439,251.020 34.000,250.800 34.000 C 250.580 34.000,250.400 33.640,250.400 33.200 C 250.400 32.760,250.220 32.400,250.000 32.400 C 249.780 32.400,249.600 32.040,249.600 31.600 C 249.600 31.160,249.420 30.800,249.200 30.800 C 248.980 30.800,248.800 30.451,248.800 30.024 C 248.800 29.597,248.620 29.136,248.400 29.000 C 248.180 28.864,248.000 28.431,248.000 28.038 C 248.000 27.373,246.744 25.879,246.369 26.098 C 246.276 26.152,225.275 26.243,199.700 26.300 " stroke="none" fill="#242424" fill-rule="evenodd"></path><path id="path3" d="M160.000 44.165 C 160.000 44.282,160.472 45.418,161.048 46.689 C 161.624 47.960,162.325 49.540,162.606 50.200 C 163.900 53.248,164.835 55.200,165.000 55.200 C 165.287 55.200,164.836 54.099,161.755 47.288 C 161.230 46.127,160.800 45.012,160.800 44.812 C 160.800 44.611,160.620 44.336,160.400 44.200 C 160.180 44.064,160.000 44.048,160.000 44.165 M165.218 55.839 C 165.193 56.457,166.444 58.889,166.671 58.663 C 166.774 58.560,166.493 57.784,166.047 56.938 C 165.600 56.092,165.227 55.597,165.218 55.839 M177.863 84.500 C 178.225 85.435,178.673 86.371,178.860 86.580 C 179.047 86.789,179.200 87.284,179.200 87.680 C 179.200 88.076,179.380 88.400,179.600 88.400 C 179.820 88.400,180.000 88.672,180.000 89.005 C 180.000 89.338,180.173 89.923,180.385 90.305 C 181.254 91.871,182.400 94.584,182.400 95.075 C 182.400 95.364,182.582 95.600,182.805 95.600 C 183.047 95.600,182.983 95.074,182.647 94.300 C 182.337 93.585,181.776 92.280,181.400 91.400 C 180.695 89.749,179.915 87.987,178.436 84.700 C 177.373 82.340,176.975 82.201,177.863 84.500 M193.600 119.778 C 193.600 119.902,194.050 120.937,194.600 122.077 C 195.150 123.217,195.600 124.386,195.600 124.675 C 195.600 124.964,195.780 125.200,196.000 125.200 C 196.220 125.200,196.400 125.465,196.400 125.788 C 196.400 126.565,198.404 130.930,198.648 130.685 C 198.753 130.581,198.392 129.529,197.847 128.348 C 194.893 121.944,194.400 120.816,194.400 120.449 C 194.400 120.228,194.220 119.936,194.000 119.800 C 193.780 119.664,193.600 119.654,193.600 119.778 M199.062 132.600 C 199.196 133.480,199.372 134.275,199.453 134.367 C 199.756 134.710,199.529 132.568,199.181 131.800 C 198.929 131.242,198.893 131.485,199.062 132.600 M59.614 235.974 C 59.108 236.920,59.094 237.200,59.553 237.200 C 59.748 237.200,59.993 236.750,60.098 236.200 C 60.327 235.001,60.173 234.929,59.614 235.974 M23.500 373.900 C 36.095 373.959,56.705 373.959,69.300 373.900 C 81.895 373.841,71.590 373.793,46.400 373.793 C 21.210 373.793,10.905 373.841,23.500 373.900 " stroke="none" fill="#0c94d4" fill-rule="evenodd"></path><path id="path4" d="M152.900 25.482 C 152.019 25.652,151.611 26.400,152.400 26.400 C 152.620 26.400,152.800 26.653,152.800 26.962 C 152.800 27.271,153.151 28.216,153.581 29.062 C 155.070 31.996,156.000 34.153,156.000 34.675 C 156.000 34.964,156.180 35.200,156.400 35.200 C 156.620 35.200,156.800 35.453,156.800 35.762 C 156.800 36.071,157.139 37.016,157.553 37.862 C 158.347 39.484,159.516 42.065,160.516 44.400 C 160.846 45.170,161.515 46.700,162.003 47.800 C 162.492 48.900,163.207 50.520,163.594 51.400 C 163.981 52.280,164.973 54.530,165.800 56.400 C 167.476 60.191,168.507 62.528,169.683 65.200 C 170.119 66.190,170.928 67.990,171.481 69.200 C 172.435 71.290,172.952 72.442,174.800 76.600 C 176.648 80.758,177.165 81.910,178.119 84.000 C 179.220 86.408,180.032 88.246,182.008 92.800 C 182.724 94.450,183.715 96.700,184.210 97.800 C 184.705 98.900,185.508 100.700,185.993 101.800 C 186.478 102.900,187.327 104.790,187.880 106.000 C 188.432 107.210,189.023 108.560,189.193 109.000 C 189.363 109.440,190.086 111.060,190.801 112.600 C 192.200 115.617,193.121 117.675,194.201 120.200 C 194.578 121.080,195.292 122.700,195.789 123.800 C 197.080 126.661,199.080 131.296,199.327 132.000 C 199.486 132.455,199.544 132.423,199.568 131.870 C 199.595 131.263,195.966 122.702,191.485 112.800 C 190.938 111.590,190.130 109.790,189.690 108.800 C 189.251 107.810,188.511 106.145,188.046 105.100 C 187.580 104.055,186.860 102.435,186.446 101.500 C 186.031 100.565,185.290 98.900,184.800 97.800 C 184.310 96.700,183.590 95.080,183.200 94.200 C 182.810 93.320,182.131 91.790,181.692 90.800 C 181.252 89.810,179.060 84.860,176.821 79.800 C 174.582 74.740,172.510 70.060,172.217 69.400 C 171.924 68.740,171.305 67.345,170.842 66.300 C 168.964 62.064,168.265 60.500,167.308 58.400 C 166.757 57.190,164.632 52.412,162.585 47.783 C 160.539 43.153,158.420 38.383,157.877 37.183 C 157.334 35.982,156.489 34.100,156.000 33.000 C 155.511 31.900,154.673 30.033,154.138 28.851 C 153.603 27.668,153.231 26.635,153.311 26.555 C 153.392 26.475,174.549 26.403,200.329 26.395 C 242.811 26.382,249.878 26.236,245.950 25.450 C 244.569 25.174,154.339 25.205,152.900 25.482 " stroke="none" fill="#147cb4" fill-rule="evenodd"></path></g></svg>