<svg id="svg" version="1.1" xmlns="http://www.w3.org/2000/svg" xmlns:xlink="http://www.w3.org/1999/xlink" width="400" height="400" viewBox="0, 0, 400,400"><g id="svgg"><path id="path0" d="M174.400 0.389 C 174.400 0.616,172.117 0.824,168.900 0.889 C 163.946 0.989,163.406 1.069,163.456 1.700 C 163.505 2.323,163.077 2.400,159.556 2.400 C 155.867 2.400,155.600 2.454,155.600 3.200 C 155.600 3.933,155.333 4.000,152.400 4.000 C 149.467 4.000,149.200 4.067,149.200 4.800 C 149.200 5.529,148.933 5.600,146.200 5.600 C 143.467 5.600,143.200 5.671,143.200 6.400 C 143.200 7.111,142.933 7.200,140.800 7.200 C 139.015 7.200,138.400 7.343,138.400 7.757 C 138.400 8.496,137.514 8.800,135.367 8.800 C 134.063 8.800,133.600 8.957,133.600 9.400 C 133.600 9.843,133.137 10.000,131.833 10.000 C 129.686 10.000,128.800 10.304,128.800 11.043 C 128.800 11.373,128.351 11.619,127.700 11.646 C 127.095 11.672,126.420 11.734,126.200 11.785 C 125.980 11.836,125.485 11.906,125.100 11.939 C 124.715 11.973,124.400 12.270,124.400 12.600 C 124.400 13.033,123.956 13.200,122.800 13.200 C 121.467 13.200,121.200 13.333,121.200 14.000 C 121.200 14.667,120.933 14.800,119.600 14.800 C 118.267 14.800,118.000 14.933,118.000 15.600 C 118.000 16.359,116.586 16.697,114.513 16.433 C 114.244 16.399,113.796 16.737,113.516 17.185 C 113.174 17.734,112.582 18.000,111.704 18.000 C 110.667 18.000,110.400 18.164,110.400 18.800 C 110.400 19.467,110.133 19.600,108.800 19.600 C 107.467 19.600,107.200 19.733,107.200 20.400 C 107.200 20.949,106.918 21.214,106.300 21.246 C 104.386 21.344,104.202 21.421,104.256 22.100 C 104.294 22.587,104.020 22.800,103.356 22.800 C 102.667 22.800,102.400 23.023,102.400 23.600 C 102.400 24.267,102.133 24.400,100.800 24.400 C 99.689 24.400,99.200 24.573,99.200 24.965 C 99.200 25.312,98.584 25.634,97.600 25.800 C 96.692 25.953,96.000 26.295,96.000 26.591 C 96.000 26.877,95.370 27.229,94.600 27.374 C 93.762 27.531,93.200 27.870,93.200 28.218 C 93.200 28.538,92.840 28.800,92.400 28.800 C 91.867 28.800,91.600 29.067,91.600 29.600 C 91.600 30.252,91.333 30.400,90.163 30.400 C 89.062 30.400,88.676 30.587,88.516 31.200 C 88.400 31.643,87.970 32.000,87.553 32.000 C 87.067 32.000,86.800 32.283,86.800 32.800 C 86.800 33.452,86.533 33.600,85.363 33.600 C 84.262 33.600,83.876 33.787,83.716 34.400 C 83.600 34.843,83.170 35.200,82.753 35.200 C 82.267 35.200,82.000 35.483,82.000 36.000 C 82.000 36.511,81.733 36.800,81.262 36.800 C 80.856 36.800,80.198 37.160,79.800 37.600 C 79.402 38.040,78.727 38.400,78.301 38.400 C 77.862 38.400,77.434 38.747,77.316 39.200 C 77.201 39.640,76.870 40.000,76.580 40.000 C 76.291 40.000,75.940 40.360,75.800 40.800 C 75.660 41.240,75.288 41.600,74.973 41.600 C 74.658 41.600,74.400 41.971,74.400 42.424 C 74.400 42.877,74.238 43.147,74.041 43.025 C 73.439 42.653,71.200 43.267,71.200 43.803 C 71.200 44.080,70.840 44.401,70.400 44.516 C 69.960 44.631,69.600 45.012,69.600 45.363 C 69.600 45.733,69.265 46.000,68.800 46.000 C 68.267 46.000,68.000 46.267,68.000 46.800 C 68.000 47.333,67.733 47.600,67.200 47.600 C 66.667 47.600,66.400 47.867,66.400 48.400 C 66.400 48.933,66.133 49.200,65.600 49.200 C 65.067 49.200,64.800 49.467,64.800 50.000 C 64.800 50.533,64.533 50.800,64.000 50.800 C 63.467 50.800,63.200 51.067,63.200 51.600 C 63.200 52.133,62.933 52.400,62.400 52.400 C 61.960 52.400,61.621 52.535,61.647 52.700 C 61.787 53.584,61.517 54.000,60.803 54.000 C 60.365 54.000,59.782 54.360,59.507 54.800 C 59.135 55.397,58.574 55.600,57.304 55.600 L 55.600 55.600 55.600 57.304 C 55.600 58.574,55.397 59.135,54.800 59.507 C 54.360 59.782,54.000 60.365,54.000 60.803 C 54.000 61.517,53.584 61.787,52.700 61.647 C 52.535 61.621,52.400 61.960,52.400 62.400 C 52.400 62.933,52.133 63.200,51.600 63.200 C 51.067 63.200,50.800 63.467,50.800 64.000 C 50.800 64.533,50.533 64.800,50.000 64.800 C 49.467 64.800,49.200 65.067,49.200 65.600 C 49.200 66.133,48.933 66.400,48.400 66.400 C 47.867 66.400,47.600 66.667,47.600 67.200 C 47.600 67.733,47.333 68.000,46.800 68.000 C 46.283 68.000,46.000 68.267,46.000 68.753 C 46.000 69.170,45.643 69.600,45.200 69.716 C 44.760 69.831,44.400 70.212,44.400 70.563 C 44.400 70.913,44.153 71.200,43.850 71.200 C 43.279 71.200,42.637 73.412,43.025 74.041 C 43.147 74.238,42.877 74.400,42.424 74.400 C 41.971 74.400,41.600 74.658,41.600 74.973 C 41.600 75.288,41.240 75.660,40.800 75.800 C 40.360 75.940,40.000 76.291,40.000 76.580 C 40.000 76.870,39.640 77.201,39.200 77.316 C 38.747 77.434,38.400 77.862,38.400 78.301 C 38.400 78.727,38.040 79.402,37.600 79.800 C 37.160 80.198,36.800 80.856,36.800 81.262 C 36.800 81.733,36.511 82.000,36.000 82.000 C 35.483 82.000,35.200 82.267,35.200 82.753 C 35.200 83.170,34.843 83.600,34.400 83.716 C 33.787 83.876,33.600 84.262,33.600 85.363 C 33.600 86.533,33.452 86.800,32.800 86.800 C 32.283 86.800,32.000 87.067,32.000 87.553 C 32.000 87.970,31.643 88.400,31.200 88.516 C 30.587 88.676,30.400 89.062,30.400 90.163 C 30.400 91.333,30.252 91.600,29.600 91.600 C 29.067 91.600,28.800 91.867,28.800 92.400 C 28.800 92.840,28.538 93.200,28.218 93.200 C 27.870 93.200,27.531 93.762,27.374 94.600 C 27.229 95.370,26.877 96.000,26.591 96.000 C 26.295 96.000,25.953 96.692,25.800 97.600 C 25.634 98.584,25.312 99.200,24.965 99.200 C 24.573 99.200,24.400 99.689,24.400 100.800 C 24.400 102.133,24.267 102.400,23.600 102.400 C 23.023 102.400,22.800 102.667,22.800 103.356 C 22.800 104.020,22.587 104.294,22.100 104.256 C 21.421 104.202,21.344 104.386,21.246 106.300 C 21.214 106.918,20.949 107.200,20.400 107.200 C 19.733 107.200,19.600 107.467,19.600 108.800 C 19.600 110.133,19.467 110.400,18.800 110.400 C 18.164 110.400,18.000 110.667,18.000 111.704 C 18.000 112.582,17.734 113.174,17.185 113.516 C 16.737 113.796,16.399 114.244,16.433 114.513 C 16.697 116.586,16.359 118.000,15.600 118.000 C 14.933 118.000,14.800 118.267,14.800 119.600 C 14.800 120.933,14.667 121.200,14.000 121.200 C 13.333 121.200,13.200 121.467,13.200 122.800 C 13.200 123.956,13.033 124.400,12.600 124.400 C 12.270 124.400,11.973 124.715,11.939 125.100 C 11.906 125.485,11.836 125.980,11.785 126.200 C 11.734 126.420,11.672 127.095,11.646 127.700 C 11.619 128.351,11.373 128.800,11.043 128.800 C 10.304 128.800,10.000 129.686,10.000 131.833 C 10.000 133.137,9.843 133.600,9.400 133.600 C 8.957 133.600,8.800 134.063,8.800 135.367 C 8.800 137.514,8.496 138.400,7.757 138.400 C 7.343 138.400,7.200 139.015,7.200 140.800 C 7.200 142.933,7.111 143.200,6.400 143.200 C 5.671 143.200,5.600 143.467,5.600 146.200 C 5.600 148.933,5.529 149.200,4.800 149.200 C 4.067 149.200,4.000 149.467,4.000 152.400 C 4.000 155.333,3.933 155.600,3.200 155.600 C 2.454 155.600,2.400 155.867,2.400 159.556 C 2.400 163.077,2.323 163.505,1.700 163.456 C 1.069 163.406,0.989 163.946,0.889 168.900 C 0.824 172.117,0.616 174.400,0.389 174.400 C 0.141 174.400,0.000 183.696,0.000 200.000 C 0.000 216.304,0.141 225.600,0.389 225.600 C 0.616 225.600,0.824 227.883,0.889 231.100 C 0.989 236.054,1.069 236.594,1.700 236.544 C 2.323 236.495,2.400 236.923,2.400 240.444 C 2.400 244.133,2.454 244.400,3.200 244.400 C 3.933 244.400,4.000 244.667,4.000 247.600 C 4.000 250.533,4.067 250.800,4.800 250.800 C 5.529 250.800,5.600 251.067,5.600 253.800 C 5.600 256.533,5.671 256.800,6.400 256.800 C 7.111 256.800,7.200 257.067,7.200 259.200 C 7.200 260.985,7.343 261.600,7.757 261.600 C 8.496 261.600,8.800 262.486,8.800 264.633 C 8.800 265.937,8.957 266.400,9.400 266.400 C 9.843 266.400,10.000 266.863,10.000 268.167 C 10.000 270.314,10.304 271.200,11.043 271.200 C 11.373 271.200,11.619 271.649,11.646 272.300 C 11.672 272.905,11.734 273.580,11.785 273.800 C 11.836 274.020,11.906 274.515,11.939 274.900 C 11.973 275.285,12.270 275.600,12.600 275.600 C 13.033 275.600,13.200 276.044,13.200 277.200 C 13.200 278.533,13.333 278.800,14.000 278.800 C 14.667 278.800,14.800 279.067,14.800 280.400 C 14.800 281.733,14.933 282.000,15.600 282.000 C 16.359 282.000,16.697 283.414,16.433 285.487 C 16.399 285.756,16.737 286.204,17.185 286.484 C 17.734 286.826,18.000 287.418,18.000 288.296 C 18.000 289.333,18.164 289.600,18.800 289.600 C 19.467 289.600,19.600 289.867,19.600 291.200 C 19.600 292.533,19.733 292.800,20.400 292.800 C 20.949 292.800,21.214 293.082,21.246 293.700 C 21.344 295.614,21.421 295.798,22.100 295.744 C 22.587 295.706,22.800 295.980,22.800 296.644 C 22.800 297.333,23.023 297.600,23.600 297.600 C 24.267 297.600,24.400 297.867,24.400 299.200 C 24.400 300.311,24.573 300.800,24.965 300.800 C 25.312 300.800,25.634 301.416,25.800 302.400 C 25.953 303.308,26.295 304.000,26.591 304.000 C 26.877 304.000,27.229 304.630,27.374 305.400 C 27.531 306.238,27.870 306.800,28.218 306.800 C 28.538 306.800,28.800 307.160,28.800 307.600 C 28.800 308.133,29.067 308.400,29.600 308.400 C 30.252 308.400,30.400 308.667,30.400 309.837 C 30.400 310.938,30.587 311.324,31.200 311.484 C 31.643 311.600,32.000 312.030,32.000 312.447 C 32.000 312.933,32.283 313.200,32.800 313.200 C 33.452 313.200,33.600 313.467,33.600 314.637 C 33.600 315.738,33.787 316.124,34.400 316.284 C 34.843 316.400,35.200 316.830,35.200 317.247 C 35.200 317.733,35.483 318.000,36.000 318.000 C 36.511 318.000,36.800 318.267,36.800 318.738 C 36.800 319.144,37.160 319.802,37.600 320.200 C 38.040 320.598,38.400 321.273,38.400 321.699 C 38.400 322.138,38.747 322.566,39.200 322.684 C 39.640 322.799,40.000 323.130,40.000 323.420 C 40.000 323.709,40.360 324.060,40.800 324.200 C 41.240 324.340,41.600 324.712,41.600 325.027 C 41.600 325.342,41.971 325.600,42.424 325.600 C 42.877 325.600,43.147 325.762,43.025 325.959 C 42.637 326.588,43.279 328.800,43.850 328.800 C 44.153 328.800,44.400 329.087,44.400 329.437 C 44.400 329.788,44.760 330.169,45.200 330.284 C 45.643 330.400,46.000 330.830,46.000 331.247 C 46.000 331.733,46.283 332.000,46.800 332.000 C 47.333 332.000,47.600 332.267,47.600 332.800 C 47.600 333.333,47.867 333.600,48.400 333.600 C 48.933 333.600,49.200 333.867,49.200 334.400 C 49.200 334.933,49.467 335.200,50.000 335.200 C 50.533 335.200,50.800 335.467,50.800 336.000 C 50.800 336.533,51.067 336.800,51.600 336.800 C 52.133 336.800,52.400 337.067,52.400 337.600 C 52.400 338.040,52.535 338.379,52.700 338.353 C 53.584 338.213,54.000 338.483,54.000 339.197 C 54.000 339.635,54.360 340.218,54.800 340.493 C 55.397 340.865,55.600 341.426,55.600 342.696 L 55.600 344.400 57.304 344.400 C 58.574 344.400,59.135 344.603,59.507 345.200 C 59.782 345.640,60.365 346.000,60.803 346.000 C 61.517 346.000,61.787 346.416,61.647 347.300 C 61.621 347.465,61.960 347.600,62.400 347.600 C 62.933 347.600,63.200 347.867,63.200 348.400 C 63.200 348.933,63.467 349.200,64.000 349.200 C 64.533 349.200,64.800 349.467,64.800 350.000 C 64.800 350.533,65.067 350.800,65.600 350.800 C 66.133 350.800,66.400 351.067,66.400 351.600 C 66.400 352.133,66.667 352.400,67.200 352.400 C 67.733 352.400,68.000 352.667,68.000 353.200 C 68.000 353.733,68.267 354.000,68.800 354.000 C 69.265 354.000,69.600 354.267,69.600 354.637 C 69.600 354.988,69.960 355.369,70.400 355.484 C 70.840 355.599,71.200 355.920,71.200 356.197 C 71.200 356.733,73.439 357.347,74.041 356.975 C 74.238 356.853,74.400 357.123,74.400 357.576 C 74.400 358.029,74.658 358.400,74.973 358.400 C 75.288 358.400,75.660 358.760,75.800 359.200 C 75.940 359.640,76.291 360.000,76.580 360.000 C 76.870 360.000,77.201 360.360,77.316 360.800 C 77.434 361.253,77.862 361.600,78.301 361.600 C 78.727 361.600,79.402 361.960,79.800 362.400 C 80.198 362.840,80.856 363.200,81.262 363.200 C 81.733 363.200,82.000 363.489,82.000 364.000 C 82.000 364.517,82.267 364.800,82.753 364.800 C 83.170 364.800,83.600 365.157,83.716 365.600 C 83.876 366.213,84.262 366.400,85.363 366.400 C 86.533 366.400,86.800 366.548,86.800 367.200 C 86.800 367.717,87.067 368.000,87.553 368.000 C 87.970 368.000,88.400 368.357,88.516 368.800 C 88.676 369.413,89.062 369.600,90.163 369.600 C 91.333 369.600,91.600 369.748,91.600 370.400 C 91.600 370.933,91.867 371.200,92.400 371.200 C 92.840 371.200,93.200 371.462,93.200 371.782 C 93.200 372.130,93.762 372.469,94.600 372.626 C 95.370 372.771,96.000 373.123,96.000 373.409 C 96.000 373.705,96.692 374.047,97.600 374.200 C 98.584 374.366,99.200 374.688,99.200 375.035 C 99.200 375.427,99.689 375.600,100.800 375.600 C 102.133 375.600,102.400 375.733,102.400 376.400 C 102.400 376.977,102.667 377.200,103.356 377.200 C 104.020 377.200,104.294 377.413,104.256 377.900 C 104.202 378.579,104.386 378.656,106.300 378.754 C 106.918 378.786,107.200 379.051,107.200 379.600 C 107.200 380.267,107.467 380.400,108.800 380.400 C 110.133 380.400,110.400 380.533,110.400 381.200 C 110.400 381.836,110.667 382.000,111.704 382.000 C 112.582 382.000,113.174 382.266,113.516 382.815 C 113.796 383.263,114.244 383.601,114.513 383.567 C 116.586 383.303,118.000 383.641,118.000 384.400 C 118.000 385.067,118.267 385.200,119.600 385.200 C 120.933 385.200,121.200 385.333,121.200 386.000 C 121.200 386.667,121.467 386.800,122.800 386.800 C 123.956 386.800,124.400 386.967,124.400 387.400 C 124.400 387.730,124.715 388.027,125.100 388.061 C 125.485 388.094,125.980 388.164,126.200 388.215 C 126.420 388.266,127.095 388.328,127.700 388.354 C 128.351 388.381,128.800 388.627,128.800 388.957 C 128.800 389.696,129.686 390.000,131.833 390.000 C 133.137 390.000,133.600 390.157,133.600 390.600 C 133.600 391.043,134.063 391.200,135.367 391.200 C 137.514 391.200,138.400 391.504,138.400 392.243 C 138.400 392.657,139.015 392.800,140.800 392.800 C 142.933 392.800,143.200 392.889,143.200 393.600 C 143.200 394.329,143.467 394.400,146.200 394.400 C 148.933 394.400,149.200 394.471,149.200 395.200 C 149.200 395.933,149.467 396.000,152.400 396.000 C 155.333 396.000,155.600 396.067,155.600 396.800 C 155.600 397.546,155.867 397.600,159.556 397.600 C 163.077 397.600,163.505 397.677,163.456 398.300 C 163.406 398.931,163.946 399.011,168.900 399.111 C 172.117 399.176,174.400 399.384,174.400 399.611 C 174.400 399.859,183.696 400.000,200.000 400.000 C 216.304 400.000,225.600 399.859,225.600 399.611 C 225.600 399.384,227.883 399.176,231.100 399.111 C 236.054 399.011,236.594 398.931,236.544 398.300 C 236.495 397.677,236.923 397.600,240.444 397.600 C 244.133 397.600,244.400 397.546,244.400 396.800 C 244.400 396.067,244.667 396.000,247.600 396.000 C 250.533 396.000,250.800 395.933,250.800 395.200 C 250.800 394.471,251.067 394.400,253.800 394.400 C 256.533 394.400,256.800 394.329,256.800 393.600 C 256.800 392.889,257.067 392.800,259.200 392.800 C 260.985 392.800,261.600 392.657,261.600 392.243 C 261.600 391.504,262.486 391.200,264.633 391.200 C 265.937 391.200,266.400 391.043,266.400 390.600 C 266.400 390.157,266.863 390.000,268.167 390.000 C 270.314 390.000,271.200 389.696,271.200 388.957 C 271.200 388.627,271.649 388.381,272.300 388.354 C 272.905 388.328,273.580 388.266,273.800 388.215 C 274.020 388.164,274.515 388.094,274.900 388.061 C 275.285 388.027,275.600 387.730,275.600 387.400 C 275.600 386.967,276.044 386.800,277.200 386.800 C 278.533 386.800,278.800 386.667,278.800 386.000 C 278.800 385.333,279.067 385.200,280.400 385.200 C 281.733 385.200,282.000 385.067,282.000 384.400 C 282.000 383.641,283.414 383.303,285.487 383.567 C 285.756 383.601,286.204 383.263,286.484 382.815 C 286.826 382.266,287.418 382.000,288.296 382.000 C 289.333 382.000,289.600 381.836,289.600 381.200 C 289.600 380.533,289.867 380.400,291.200 380.400 C 292.533 380.400,292.800 380.267,292.800 379.600 C 292.800 379.051,293.082 378.786,293.700 378.754 C 295.614 378.656,295.798 378.579,295.744 377.900 C 295.706 377.413,295.980 377.200,296.644 377.200 C 297.333 377.200,297.600 376.977,297.600 376.400 C 297.600 375.733,297.867 375.600,299.200 375.600 C 300.311 375.600,300.800 375.427,300.800 375.035 C 300.800 374.688,301.416 374.366,302.400 374.200 C 303.308 374.047,304.000 373.705,304.000 373.409 C 304.000 373.123,304.630 372.771,305.400 372.626 C 306.238 372.469,306.800 372.130,306.800 371.782 C 306.800 371.462,307.160 371.200,307.600 371.200 C 308.133 371.200,308.400 370.933,308.400 370.400 C 308.400 369.748,308.667 369.600,309.837 369.600 C 310.938 369.600,311.324 369.413,311.484 368.800 C 311.600 368.357,312.030 368.000,312.447 368.000 C 312.933 368.000,313.200 367.717,313.200 367.200 C 313.200 366.548,313.467 366.400,314.637 366.400 C 315.738 366.400,316.124 366.213,316.284 365.600 C 316.400 365.157,316.830 364.800,317.247 364.800 C 317.733 364.800,318.000 364.517,318.000 364.000 C 318.000 363.489,318.267 363.200,318.738 363.200 C 319.144 363.200,319.802 362.840,320.200 362.400 C 320.598 361.960,321.273 361.600,321.699 361.600 C 322.138 361.600,322.566 361.253,322.684 360.800 C 322.799 360.360,323.130 360.000,323.420 360.000 C 323.709 360.000,324.060 359.640,324.200 359.200 C 324.340 358.760,324.712 358.400,325.027 358.400 C 325.342 358.400,325.600 358.029,325.600 357.576 C 325.600 357.123,325.762 356.853,325.959 356.975 C 326.561 357.347,328.800 356.733,328.800 356.197 C 328.800 355.920,329.160 355.599,329.600 355.484 C 330.040 355.369,330.400 354.988,330.400 354.637 C 330.400 354.267,330.735 354.000,331.200 354.000 C 331.733 354.000,332.000 353.733,332.000 353.200 C 332.000 352.667,332.267 352.400,332.800 352.400 C 333.333 352.400,333.600 352.133,333.600 351.600 C 333.600 351.067,333.867 350.800,334.400 350.800 C 334.933 350.800,335.200 350.533,335.200 350.000 C 335.200 349.467,335.467 349.200,336.000 349.200 C 336.533 349.200,336.800 348.933,336.800 348.400 C 336.800 347.867,337.067 347.600,337.600 347.600 C 338.040 347.600,338.379 347.465,338.353 347.300 C 338.213 346.416,338.483 346.000,339.197 346.000 C 339.635 346.000,340.218 345.640,340.493 345.200 C 340.865 344.603,341.426 344.400,342.696 344.400 L 344.400 344.400 344.400 342.696 C 344.400 341.426,344.603 340.865,345.200 340.493 C 345.640 340.218,346.000 339.635,346.000 339.197 C 346.000 338.483,346.416 338.213,347.300 338.353 C 347.465 338.379,347.600 338.040,347.600 337.600 C 347.600 337.067,347.867 336.800,348.400 336.800 C 348.933 336.800,349.200 336.533,349.200 336.000 C 349.200 335.467,349.467 335.200,350.000 335.200 C 350.533 335.200,350.800 334.933,350.800 334.400 C 350.800 333.867,351.067 333.600,351.600 333.600 C 352.133 333.600,352.400 333.333,352.400 332.800 C 352.400 332.267,352.667 332.000,353.200 332.000 C 353.717 332.000,354.000 331.733,354.000 331.247 C 354.000 330.830,354.357 330.400,354.800 330.284 C 355.240 330.169,355.600 329.788,355.600 329.437 C 355.600 329.087,355.848 328.800,356.150 328.800 C 356.721 328.800,357.363 326.588,356.975 325.959 C 356.853 325.762,357.123 325.600,357.576 325.600 C 358.029 325.600,358.400 325.342,358.400 325.027 C 358.400 324.712,358.760 324.340,359.200 324.200 C 359.640 324.060,360.000 323.709,360.000 323.420 C 360.000 323.130,360.360 322.799,360.800 322.684 C 361.253 322.566,361.600 322.138,361.600 321.699 C 361.600 321.273,361.960 320.598,362.400 320.200 C 362.840 319.802,363.200 319.144,363.200 318.738 C 363.200 318.267,363.489 318.000,364.000 318.000 C 364.517 318.000,364.800 317.733,364.800 317.247 C 364.800 316.830,365.157 316.400,365.600 316.284 C 366.213 316.124,366.400 315.738,366.400 314.637 C 366.400 313.467,366.548 313.200,367.200 313.200 C 367.717 313.200,368.000 312.933,368.000 312.447 C 368.000 312.030,368.357 311.600,368.800 311.484 C 369.413 311.324,369.600 310.938,369.600 309.837 C 369.600 308.667,369.748 308.400,370.400 308.400 C 370.933 308.400,371.200 308.133,371.200 307.600 C 371.200 307.160,371.462 306.800,371.782 306.800 C 372.130 306.800,372.469 306.238,372.626 305.400 C 372.771 304.630,373.123 304.000,373.409 304.000 C 373.705 304.000,374.047 303.308,374.200 302.400 C 374.366 301.416,374.688 300.800,375.035 300.800 C 375.427 300.800,375.600 300.311,375.600 299.200 C 375.600 297.867,375.733 297.600,376.400 297.600 C 376.977 297.600,377.200 297.333,377.200 296.644 C 377.200 295.980,377.413 295.706,377.900 295.744 C 378.579 295.798,378.656 295.614,378.754 293.700 C 378.786 293.082,379.051 292.800,379.600 292.800 C 380.267 292.800,380.400 292.533,380.400 291.200 C 380.400 289.867,380.533 289.600,381.200 289.600 C 381.836 289.600,382.000 289.333,382.000 288.296 C 382.000 287.418,382.266 286.826,382.815 286.484 C 383.263 286.204,383.601 285.756,383.567 285.487 C 383.303 283.414,383.641 282.000,384.400 282.000 C 385.067 282.000,385.200 281.733,385.200 280.400 C 385.200 279.067,385.333 278.800,386.000 278.800 C 386.667 278.800,386.800 278.533,386.800 277.200 C 386.800 276.044,386.967 275.600,387.400 275.600 C 387.730 275.600,388.027 275.285,388.061 274.900 C 388.094 274.515,388.164 274.020,388.215 273.800 C 388.266 273.580,388.328 272.905,388.354 272.300 C 388.381 271.649,388.627 271.200,388.957 271.200 C 389.696 271.200,390.000 270.314,390.000 268.167 C 390.000 266.863,390.157 266.400,390.600 266.400 C 391.043 266.400,391.200 265.937,391.200 264.633 C 391.200 262.486,391.504 261.600,392.243 261.600 C 392.657 261.600,392.800 260.985,392.800 259.200 C 392.800 257.067,392.889 256.800,393.600 256.800 C 394.329 256.800,394.400 256.533,394.400 253.800 C 394.400 251.067,394.471 250.800,395.200 250.800 C 395.933 250.800,396.000 250.533,396.000 247.600 C 396.000 244.667,396.067 244.400,396.800 244.400 C 397.546 244.400,397.600 244.133,397.600 240.444 C 397.600 236.923,397.677 236.495,398.300 236.544 C 398.931 236.594,399.011 236.054,399.111 231.100 C 399.176 227.883,399.384 225.600,399.611 225.600 C 399.859 225.600,400.000 216.304,400.000 200.000 C 400.000 183.696,399.859 174.400,399.611 174.400 C 399.384 174.400,399.176 172.117,399.111 168.900 C 399.011 163.946,398.931 163.406,398.300 163.456 C 397.677 163.505,397.600 163.077,397.600 159.556 C 397.600 155.867,397.546 155.600,396.800 155.600 C 396.067 155.600,396.000 155.333,396.000 152.400 C 396.000 149.467,395.933 149.200,395.200 149.200 C 394.471 149.200,394.400 148.933,394.400 146.200 C 394.400 143.467,394.329 143.200,393.600 143.200 C 392.889 143.200,392.800 142.933,392.800 140.800 C 392.800 139.015,392.657 138.400,392.243 138.400 C 391.504 138.400,391.200 137.514,391.200 135.367 C 391.200 134.063,391.043 133.600,390.600 133.600 C 390.157 133.600,390.000 133.137,390.000 131.833 C 390.000 129.686,389.696 128.800,388.957 128.800 C 388.627 128.800,388.381 128.351,388.354 127.700 C 388.328 127.095,388.266 126.420,388.215 126.200 C 388.164 125.980,388.094 125.485,388.061 125.100 C 388.027 124.715,387.730 124.400,387.400 124.400 C 386.967 124.400,386.800 123.956,386.800 122.800 C 386.800 121.467,386.667 121.200,386.000 121.200 C 385.333 121.200,385.200 120.933,385.200 119.600 C 385.200 118.267,385.067 118.000,384.400 118.000 C 383.641 118.000,383.303 116.586,383.567 114.513 C 383.601 114.244,383.263 113.796,382.815 113.516 C 382.266 113.174,382.000 112.582,382.000 111.704 C 382.000 110.667,381.836 110.400,381.200 110.400 C 380.533 110.400,380.400 110.133,380.400 108.800 C 380.400 107.467,380.267 107.200,379.600 107.200 C 379.051 107.200,378.786 106.918,378.754 106.300 C 378.656 104.386,378.579 104.202,377.900 104.256 C 377.413 104.294,377.200 104.020,377.200 103.356 C 377.200 102.667,376.977 102.400,376.400 102.400 C 375.733 102.400,375.600 102.133,375.600 100.800 C 375.600 99.689,375.427 99.200,375.035 99.200 C 374.688 99.200,374.366 98.584,374.200 97.600 C 374.047 96.692,373.705 96.000,373.409 96.000 C 373.123 96.000,372.771 95.370,372.626 94.600 C 372.469 93.762,372.130 93.200,371.782 93.200 C 371.462 93.200,371.200 92.840,371.200 92.400 C 371.200 91.867,370.933 91.600,370.400 91.600 C 369.748 91.600,369.600 91.333,369.600 90.163 C 369.600 89.062,369.413 88.676,368.800 88.516 C 368.357 88.400,368.000 87.970,368.000 87.553 C 368.000 87.067,367.717 86.800,367.200 86.800 C 366.548 86.800,366.400 86.533,366.400 85.363 C 366.400 84.262,366.213 83.876,365.600 83.716 C 365.157 83.600,364.800 83.170,364.800 82.753 C 364.800 82.267,364.517 82.000,364.000 82.000 C 363.489 82.000,363.200 81.733,363.200 81.262 C 363.200 80.856,362.840 80.198,362.400 79.800 C 361.960 79.402,361.600 78.727,361.600 78.301 C 361.600 77.862,361.253 77.434,360.800 77.316 C 360.360 77.201,360.000 76.870,360.000 76.580 C 360.000 76.291,359.640 75.940,359.200 75.800 C 358.760 75.660,358.400 75.288,358.400 74.973 C 358.400 74.658,358.029 74.400,357.576 74.400 C 357.123 74.400,356.853 74.238,356.975 74.041 C 357.347 73.439,356.733 71.200,356.197 71.200 C 355.920 71.200,355.599 70.840,355.484 70.400 C 355.369 69.960,354.988 69.600,354.637 69.600 C 354.267 69.600,354.000 69.265,354.000 68.800 C 354.000 68.267,353.733 68.000,353.200 68.000 C 352.667 68.000,352.400 67.733,352.400 67.200 C 352.400 66.667,352.133 66.400,351.600 66.400 C 351.067 66.400,350.800 66.133,350.800 65.600 C 350.800 65.067,350.533 64.800,350.000 64.800 C 349.467 64.800,349.200 64.533,349.200 64.000 C 349.200 63.467,348.933 63.200,348.400 63.200 C 347.867 63.200,347.600 62.933,347.600 62.400 C 347.600 61.960,347.465 61.621,347.300 61.647 C 346.416 61.787,346.000 61.517,346.000 60.803 C 346.000 60.365,345.640 59.782,345.200 59.507 C 344.603 59.135,344.400 58.574,344.400 57.304 L 344.400 55.600 342.696 55.600 C 341.426 55.600,340.865 55.397,340.493 54.800 C 340.218 54.360,339.635 54.000,339.197 54.000 C 338.483 54.000,338.213 53.584,338.353 52.700 C 338.379 52.535,338.040 52.400,337.600 52.400 C 337.067 52.400,336.800 52.133,336.800 51.600 C 336.800 51.067,336.533 50.800,336.000 50.800 C 335.467 50.800,335.200 50.533,335.200 50.000 C 335.200 49.467,334.933 49.200,334.400 49.200 C 333.867 49.200,333.600 48.933,333.600 48.400 C 333.600 47.867,333.333 47.600,332.800 47.600 C 332.267 47.600,332.000 47.333,332.000 46.800 C 332.000 46.283,331.733 46.000,331.247 46.000 C 330.830 46.000,330.400 45.643,330.284 45.200 C 330.169 44.760,329.788 44.400,329.437 44.400 C 329.087 44.400,328.800 44.153,328.800 43.850 C 328.800 43.279,326.588 42.637,325.959 43.025 C 325.762 43.147,325.600 42.877,325.600 42.424 C 325.600 41.971,325.342 41.600,325.027 41.600 C 324.712 41.600,324.340 41.240,324.200 40.800 C 324.060 40.360,323.709 40.000,323.420 40.000 C 323.130 40.000,322.799 39.640,322.684 39.200 C 322.566 38.747,322.138 38.400,321.699 38.400 C 321.273 38.400,320.598 38.040,320.200 37.600 C 319.802 37.160,319.144 36.800,318.738 36.800 C 318.267 36.800,318.000 36.511,318.000 36.000 C 318.000 35.483,317.733 35.200,317.247 35.200 C 316.830 35.200,316.400 34.843,316.284 34.400 C 316.124 33.787,315.738 33.600,314.637 33.600 C 313.467 33.600,313.200 33.452,313.200 32.800 C 313.200 32.283,312.933 32.000,312.447 32.000 C 312.030 32.000,311.600 31.643,311.484 31.200 C 311.324 30.587,310.938 30.400,309.837 30.400 C 308.667 30.400,308.400 30.252,308.400 29.600 C 308.400 29.067,308.133 28.800,307.600 28.800 C 307.160 28.800,306.800 28.538,306.800 28.218 C 306.800 27.870,306.238 27.531,305.400 27.374 C 304.630 27.229,304.000 26.877,304.000 26.591 C 304.000 26.295,303.308 25.953,302.400 25.800 C 301.416 25.634,300.800 25.312,300.800 24.965 C 300.800 24.573,300.311 24.400,299.200 24.400 C 297.867 24.400,297.600 24.267,297.600 23.600 C 297.600 23.023,297.333 22.800,296.644 22.800 C 295.980 22.800,295.706 22.587,295.744 22.100 C 295.798 21.421,295.614 21.344,293.700 21.246 C 293.082 21.214,292.800 20.949,292.800 20.400 C 292.800 19.733,292.533 19.600,291.200 19.600 C 289.867 19.600,289.600 19.467,289.600 18.800 C 289.600 18.164,289.333 18.000,288.296 18.000 C 287.418 18.000,286.826 17.734,286.484 17.185 C 286.204 16.737,285.756 16.399,285.487 16.433 C 283.414 16.697,282.000 16.359,282.000 15.600 C 282.000 14.933,281.733 14.800,280.400 14.800 C 279.067 14.800,278.800 14.667,278.800 14.000 C 278.800 13.333,278.533 13.200,277.200 13.200 C 276.044 13.200,275.600 13.033,275.600 12.600 C 275.600 12.270,275.285 11.973,274.900 11.939 C 274.515 11.906,274.020 11.836,273.800 11.785 C 273.580 11.734,272.905 11.672,272.300 11.646 C 271.649 11.619,271.200 11.373,271.200 11.043 C 271.200 10.304,270.314 10.000,268.167 10.000 C 266.863 10.000,266.400 9.843,266.400 9.400 C 266.400 8.957,265.937 8.800,264.633 8.800 C 262.486 8.800,261.600 8.496,261.600 7.757 C 261.600 7.343,260.985 7.200,259.200 7.200 C 257.067 7.200,256.800 7.111,256.800 6.400 C 256.800 5.671,256.533 5.600,253.800 5.600 C 251.067 5.600,250.800 5.529,250.800 4.800 C 250.800 4.067,250.533 4.000,247.600 4.000 C 244.667 4.000,244.400 3.933,244.400 3.200 C 244.400 2.454,244.133 2.400,240.444 2.400 C 236.923 2.400,236.495 2.323,236.544 1.700 C 236.594 1.069,236.054 0.989,231.100 0.889 C 227.883 0.824,225.600 0.616,225.600 0.389 C 225.600 0.141,216.304 0.000,200.000 0.000 C 183.696 0.000,174.400 0.141,174.400 0.389 M280.935 186.600 C 282.660 186.930,284.820 187.201,285.735 187.202 C 286.651 187.204,287.919 187.476,288.553 187.806 C 289.187 188.137,290.414 188.521,291.280 188.659 C 292.145 188.798,293.090 189.147,293.379 189.436 C 293.667 189.724,294.420 190.089,295.052 190.246 C 295.683 190.403,296.650 190.834,297.200 191.203 C 297.750 191.573,298.994 192.397,299.964 193.036 C 303.026 195.052,311.600 203.935,311.600 205.092 C 311.600 205.371,311.773 205.600,311.985 205.600 C 312.498 205.600,313.386 208.938,312.914 209.095 C 312.338 209.287,307.111 212.632,305.937 213.560 C 305.352 214.022,304.690 214.400,304.465 214.400 C 304.241 214.400,303.819 214.625,303.529 214.900 C 302.604 215.775,299.773 217.600,299.340 217.600 C 299.111 217.600,298.598 217.960,298.200 218.400 C 297.802 218.840,297.322 219.200,297.134 219.200 C 296.946 219.200,295.939 219.798,294.896 220.529 C 291.630 222.819,290.263 222.348,288.920 218.470 C 288.545 217.387,283.938 213.199,282.823 212.927 C 282.261 212.790,281.173 212.345,280.406 211.939 C 279.281 211.342,278.124 211.201,274.406 211.207 C 268.657 211.216,267.880 211.616,263.814 216.658 C 262.378 218.438,262.315 224.983,263.712 227.223 C 265.570 230.201,269.684 233.604,272.186 234.232 C 272.726 234.368,273.377 234.731,273.633 235.039 C 273.889 235.348,274.327 235.600,274.608 235.600 C 274.888 235.600,276.351 236.215,277.859 236.966 C 281.750 238.905,285.087 240.400,285.526 240.400 C 285.733 240.400,286.117 240.658,286.379 240.974 C 286.641 241.290,287.421 241.673,288.112 241.825 C 289.226 242.069,291.465 243.027,293.200 244.000 C 293.530 244.186,294.970 244.934,296.400 245.664 C 302.086 248.567,312.800 256.751,312.800 258.192 C 312.800 258.355,313.475 259.325,314.300 260.346 C 316.641 263.245,319.200 268.043,319.200 269.534 C 319.200 269.957,319.482 270.976,319.826 271.800 C 321.225 275.148,321.290 292.333,319.910 293.895 C 319.567 294.283,319.163 295.355,319.012 296.277 C 318.861 297.199,318.482 298.166,318.169 298.426 C 317.856 298.686,317.600 299.225,317.600 299.625 C 317.600 300.025,317.435 300.455,317.232 300.580 C 317.030 300.705,316.222 301.957,315.435 303.363 C 313.990 305.948,307.267 312.800,306.177 312.800 C 305.891 312.800,305.419 313.036,305.129 313.324 C 304.158 314.286,297.351 317.600,296.345 317.600 C 296.033 317.600,295.395 317.868,294.927 318.196 C 294.458 318.524,292.907 318.958,291.479 319.160 C 290.050 319.363,288.458 319.769,287.941 320.064 C 286.358 320.966,265.099 320.826,263.051 319.900 C 262.199 319.515,260.849 319.196,260.051 319.191 C 259.253 319.186,257.815 318.826,256.856 318.391 C 255.897 317.956,254.843 317.600,254.514 317.600 C 253.422 317.600,245.647 313.574,242.000 311.119 C 238.073 308.477,229.200 299.267,229.200 297.833 C 229.200 297.539,228.948 297.089,228.639 296.833 C 228.331 296.577,227.957 295.880,227.808 295.284 C 227.659 294.688,227.270 293.903,226.943 293.540 C 226.317 292.845,227.437 291.600,228.689 291.600 C 228.970 291.600,229.200 291.457,229.200 291.282 C 229.200 291.107,230.325 290.365,231.700 289.634 C 233.075 288.902,234.862 287.920,235.671 287.452 C 236.480 286.983,238.820 285.649,240.871 284.487 C 242.922 283.325,244.870 282.198,245.200 281.984 C 245.530 281.770,246.250 281.381,246.800 281.120 C 247.350 280.859,248.127 280.371,248.527 280.036 C 249.283 279.403,251.946 281.773,251.985 283.113 C 251.993 283.394,252.270 283.729,252.600 283.855 C 252.930 283.982,253.200 284.288,253.200 284.535 C 253.200 285.129,260.051 292.000,260.643 292.000 C 260.895 292.000,261.317 292.258,261.579 292.574 C 261.841 292.890,262.628 293.271,263.328 293.422 C 264.027 293.572,264.960 293.894,265.400 294.137 C 268.840 296.041,282.586 296.148,284.732 294.287 C 285.099 293.968,285.869 293.596,286.443 293.460 C 287.816 293.135,291.999 288.640,292.002 287.486 C 292.004 286.999,292.274 286.084,292.602 285.454 C 293.352 284.017,293.351 281.313,292.600 280.000 C 292.286 279.450,292.022 278.614,292.014 278.143 C 291.998 277.146,287.805 273.092,285.869 272.200 C 284.583 271.608,283.819 271.169,281.984 269.966 C 281.426 269.600,280.403 269.176,279.712 269.025 C 279.021 268.873,278.241 268.490,277.979 268.174 C 277.717 267.858,277.188 267.600,276.805 267.600 C 276.422 267.600,275.650 267.240,275.091 266.800 C 274.531 266.360,273.830 266.000,273.531 266.000 C 273.232 266.000,272.361 265.664,271.594 265.253 C 270.827 264.843,269.627 264.381,268.928 264.228 C 268.228 264.074,267.441 263.690,267.179 263.374 C 266.917 263.058,266.388 262.800,266.005 262.800 C 265.622 262.800,264.850 262.440,264.291 262.000 C 263.731 261.560,263.015 261.200,262.698 261.200 C 262.381 261.200,261.707 260.840,261.200 260.400 C 260.693 259.960,259.967 259.600,259.588 259.600 C 259.208 259.600,258.680 259.337,258.413 259.015 C 258.146 258.694,257.581 258.321,257.157 258.186 C 252.571 256.731,238.800 244.086,238.800 241.331 C 238.800 241.197,238.467 240.348,238.060 239.444 C 236.725 236.480,235.600 232.630,235.593 231.000 C 235.589 230.120,235.319 228.140,234.993 226.600 C 234.667 225.060,234.400 223.170,234.400 222.400 C 234.400 221.630,234.667 219.740,234.993 218.200 C 235.319 216.660,235.590 214.770,235.596 214.000 C 235.601 213.230,235.857 212.117,236.165 211.527 C 236.473 210.937,236.849 209.857,237.002 209.127 C 237.154 208.397,237.574 207.350,237.934 206.800 C 239.043 205.109,239.548 204.239,239.989 203.258 C 241.581 199.715,252.431 190.400,254.966 190.400 C 255.247 190.400,255.893 190.040,256.400 189.600 C 256.907 189.160,257.654 188.800,258.060 188.800 C 258.465 188.800,259.833 188.454,261.098 188.031 C 262.364 187.609,264.794 187.143,266.497 186.997 C 268.201 186.852,270.091 186.583,270.697 186.401 C 272.499 185.858,277.577 185.957,280.935 186.600 M212.171 187.829 C 213.134 188.791,213.126 289.172,212.163 291.000 C 211.816 291.660,211.433 293.190,211.312 294.400 C 211.192 295.610,210.860 297.050,210.576 297.600 C 210.292 298.150,209.478 299.860,208.768 301.400 C 207.350 304.476,204.133 308.808,201.681 310.947 C 201.395 311.196,200.855 311.681,200.481 312.025 C 198.964 313.417,196.097 315.600,195.785 315.600 C 195.602 315.600,194.676 315.960,193.726 316.400 C 192.777 316.840,191.205 317.569,190.233 318.020 C 189.261 318.471,187.776 318.934,186.933 319.050 C 186.090 319.165,184.685 319.561,183.812 319.930 C 181.715 320.815,163.588 320.936,162.078 320.074 C 161.571 319.785,160.060 319.372,158.720 319.156 C 157.380 318.940,155.910 318.502,155.453 318.182 C 154.996 317.862,154.188 317.600,153.658 317.600 C 151.894 317.600,144.334 312.608,140.633 309.000 C 138.507 306.927,135.600 303.400,135.600 302.893 C 135.600 302.676,135.311 302.258,134.958 301.965 C 134.605 301.673,134.156 301.065,133.959 300.616 C 133.763 300.167,133.433 299.530,133.226 299.200 C 131.582 296.573,131.705 294.800,133.531 294.800 C 133.789 294.800,134.000 294.653,134.000 294.474 C 134.000 294.295,134.585 293.837,135.300 293.458 C 137.086 292.509,138.487 291.706,139.200 291.222 C 141.261 289.823,142.677 288.926,143.200 288.689 C 143.530 288.539,144.520 287.967,145.400 287.418 C 146.280 286.869,147.699 286.010,148.554 285.510 C 150.428 284.413,151.069 284.013,152.480 283.062 C 154.061 281.997,154.772 282.441,157.087 285.941 C 159.270 289.241,163.055 293.600,163.738 293.600 C 163.957 293.600,164.421 293.848,164.769 294.151 C 166.520 295.679,177.090 295.747,178.754 294.242 C 179.144 293.889,179.646 293.600,179.869 293.600 C 181.921 293.600,183.703 289.851,185.192 282.400 C 185.392 281.401,185.563 260.106,185.576 234.529 C 185.598 193.199,185.665 188.392,186.229 187.829 C 186.773 187.284,188.513 187.200,199.200 187.200 C 209.887 187.200,211.627 187.284,212.171 187.829 " stroke="none" fill="#f4dc1c" fill-rule="evenodd"></path><path id="path1" d="M267.000 187.962 C 265.680 188.125,264.150 188.448,263.600 188.680 C 263.050 188.911,261.664 189.229,260.520 189.385 C 259.376 189.542,258.229 189.924,257.971 190.235 C 257.713 190.546,257.333 190.800,257.126 190.800 C 255.794 190.800,250.528 193.957,247.624 196.496 C 247.307 196.773,246.836 197.090,246.576 197.200 C 245.965 197.459,241.291 203.354,240.778 204.512 C 240.562 205.001,239.850 206.262,239.195 207.316 C 238.540 208.370,237.885 209.990,237.740 210.916 C 237.594 211.842,237.188 213.042,236.837 213.582 C 235.920 214.997,235.949 229.999,236.873 231.800 C 237.212 232.460,237.611 233.810,237.761 234.800 C 238.009 236.437,239.082 239.276,240.029 240.800 C 240.234 241.130,240.593 241.846,240.826 242.392 C 241.059 242.937,241.374 243.477,241.525 243.592 C 241.676 243.706,242.421 244.610,243.179 245.600 C 243.938 246.590,244.838 247.567,245.179 247.771 C 245.521 247.974,246.880 249.158,248.200 250.402 C 249.520 251.645,251.280 253.071,252.111 253.571 C 252.941 254.070,253.873 254.730,254.180 255.038 C 254.488 255.345,255.158 255.787,255.670 256.019 C 256.181 256.251,257.320 256.864,258.200 257.380 C 261.436 259.279,271.238 264.000,271.943 264.000 C 272.159 264.000,272.845 264.274,273.468 264.608 C 274.090 264.942,275.050 265.392,275.600 265.607 C 276.150 265.822,276.870 266.161,277.200 266.360 C 277.530 266.560,278.970 267.283,280.400 267.968 C 291.276 273.178,293.974 276.146,293.991 282.913 C 294.007 289.379,290.190 293.929,282.800 296.249 C 279.483 297.291,270.907 297.450,268.800 296.509 C 267.810 296.067,266.280 295.596,265.400 295.462 C 261.363 294.849,255.988 290.559,251.417 284.300 C 249.109 281.139,249.132 281.144,245.670 283.137 C 244.201 283.983,242.730 284.802,242.400 284.957 C 242.070 285.111,241.080 285.678,240.200 286.216 C 239.320 286.753,238.150 287.422,237.600 287.701 C 237.050 287.981,235.880 288.673,235.000 289.240 C 233.204 290.398,231.636 291.269,229.662 292.207 C 228.352 292.829,228.086 294.502,229.187 295.196 C 229.365 295.308,229.774 296.030,230.096 296.800 C 231.809 300.894,241.651 310.229,246.600 312.454 C 247.040 312.652,248.210 313.271,249.200 313.830 C 261.488 320.773,284.564 321.804,297.044 315.969 C 297.948 315.546,298.887 315.200,299.131 315.200 C 299.780 315.200,302.873 313.544,303.775 312.714 C 304.202 312.321,304.780 312.000,305.060 312.000 C 306.035 312.000,313.166 304.758,314.457 302.458 C 315.154 301.216,315.930 299.930,316.181 299.600 C 316.603 299.045,317.021 298.027,319.052 292.600 C 320.114 289.761,320.144 277.176,319.095 274.286 C 318.713 273.233,318.400 271.860,318.400 271.234 C 318.400 269.655,316.250 265.276,313.434 261.121 C 312.793 260.174,311.873 258.808,311.391 258.085 C 310.554 256.829,302.432 250.400,301.683 250.400 C 301.486 250.400,301.002 250.045,300.609 249.610 C 300.216 249.176,299.543 248.709,299.114 248.573 C 298.684 248.436,296.833 247.459,295.000 246.400 C 293.167 245.341,291.247 244.343,290.734 244.182 C 290.220 244.020,289.173 243.553,288.406 243.144 C 287.639 242.735,286.803 242.400,286.547 242.400 C 286.291 242.400,284.849 241.790,283.341 241.045 C 281.833 240.300,278.980 238.930,277.000 238.001 C 270.869 235.125,269.460 234.355,267.600 232.863 C 265.367 231.071,263.600 229.354,263.600 228.975 C 263.600 228.817,263.330 228.488,263.001 228.244 C 260.885 226.675,260.881 217.862,262.996 215.639 C 263.778 214.817,266.410 212.185,267.245 211.390 C 269.537 209.208,278.524 209.489,283.310 211.893 C 285.279 212.882,289.600 216.548,289.600 217.230 C 289.600 218.109,291.486 220.368,292.231 220.383 C 292.927 220.397,296.536 218.373,297.200 217.596 C 297.310 217.467,298.300 216.846,299.400 216.215 C 300.500 215.585,301.494 214.929,301.609 214.758 C 301.724 214.587,302.264 214.209,302.809 213.919 C 305.539 212.465,311.200 208.518,311.405 207.925 C 311.728 206.989,307.645 200.972,306.344 200.467 C 306.155 200.393,306.000 200.154,306.000 199.936 C 306.000 199.529,303.830 197.200,303.451 197.200 C 303.336 197.200,302.737 196.728,302.121 196.150 C 300.206 194.357,294.175 190.847,292.949 190.813 C 292.701 190.806,292.281 190.539,292.016 190.220 C 291.751 189.900,290.694 189.518,289.667 189.370 C 288.640 189.222,287.170 188.839,286.400 188.519 C 284.794 187.851,271.076 187.457,267.000 187.962 M186.376 236.300 C 186.352 283.411,186.304 285.163,184.915 289.118 C 183.060 294.403,175.720 298.217,169.971 296.884 C 166.281 296.029,164.102 295.331,163.387 294.775 C 161.364 293.204,157.591 289.052,155.864 286.498 L 153.927 283.634 152.464 284.625 C 151.659 285.170,150.460 285.891,149.800 286.227 C 149.140 286.563,147.340 287.638,145.800 288.615 C 144.260 289.592,142.550 290.615,142.000 290.888 C 141.450 291.161,140.910 291.497,140.800 291.636 C 140.690 291.775,140.060 292.189,139.400 292.556 C 138.740 292.924,137.660 293.573,137.000 294.000 C 136.340 294.427,135.305 295.056,134.700 295.398 C 134.095 295.740,133.600 296.252,133.600 296.535 C 133.600 298.484,139.867 307.155,143.024 309.574 C 143.891 310.238,144.966 311.146,145.414 311.591 C 145.862 312.036,146.359 312.400,146.518 312.400 C 146.678 312.400,147.661 312.986,148.704 313.703 C 151.122 315.364,153.279 316.369,155.800 317.010 C 156.900 317.290,158.340 317.704,159.000 317.931 C 165.061 320.015,176.706 320.429,183.200 318.792 C 186.847 317.872,190.617 316.615,191.231 316.115 C 191.579 315.832,192.119 315.594,192.431 315.587 C 193.013 315.573,195.428 314.229,198.267 312.339 C 201.533 310.165,204.765 306.418,206.861 302.380 C 207.597 300.961,208.335 299.740,208.500 299.667 C 208.665 299.593,208.800 299.273,208.800 298.954 C 208.800 298.635,209.167 297.287,209.615 295.956 C 211.715 289.721,211.755 288.697,211.889 237.100 L 212.013 189.200 199.206 189.200 L 186.400 189.200 186.376 236.300 " stroke="none" fill="#060604" fill-rule="evenodd"></path><path id="path2" d="M270.697 186.401 C 270.091 186.583,268.201 186.852,266.497 186.997 C 264.794 187.143,262.364 187.609,261.098 188.031 C 259.833 188.454,258.465 188.800,258.060 188.800 C 257.654 188.800,256.907 189.160,256.400 189.600 C 255.893 190.040,255.247 190.400,254.966 190.400 C 252.431 190.400,241.581 199.715,239.989 203.258 C 239.548 204.239,239.043 205.109,237.934 206.800 C 237.574 207.350,237.154 208.397,237.002 209.127 C 236.849 209.857,236.473 210.937,236.165 211.527 C 235.857 212.117,235.601 213.230,235.596 214.000 C 235.590 214.770,235.319 216.660,234.993 218.200 C 234.667 219.740,234.400 221.630,234.400 222.400 C 234.400 223.170,234.667 225.060,234.993 226.600 C 235.319 228.140,235.589 230.120,235.593 231.000 C 235.600 232.630,236.725 236.480,238.060 239.444 C 238.467 240.348,238.800 241.197,238.800 241.331 C 238.800 244.086,252.571 256.731,257.157 258.186 C 257.581 258.321,258.146 258.694,258.413 259.015 C 258.680 259.337,259.208 259.600,259.588 259.600 C 259.967 259.600,260.693 259.960,261.200 260.400 C 261.707 260.840,262.381 261.200,262.698 261.200 C 263.015 261.200,263.731 261.560,264.291 262.000 C 264.850 262.440,265.622 262.800,266.005 262.800 C 266.388 262.800,266.917 263.058,267.179 263.374 C 267.441 263.690,268.228 264.074,268.928 264.228 C 269.627 264.381,270.827 264.843,271.594 265.253 C 272.361 265.664,273.232 266.000,273.531 266.000 C 273.830 266.000,274.531 266.360,275.091 266.800 C 275.650 267.240,276.422 267.600,276.805 267.600 C 277.188 267.600,277.717 267.858,277.979 268.174 C 278.241 268.490,279.021 268.873,279.712 269.025 C 280.403 269.176,281.426 269.600,281.984 269.966 C 283.819 271.169,284.583 271.608,285.869 272.200 C 287.805 273.092,291.998 277.146,292.014 278.143 C 292.022 278.614,292.286 279.450,292.600 280.000 C 293.351 281.313,293.352 284.017,292.602 285.454 C 292.274 286.084,292.004 286.999,292.002 287.486 C 291.999 288.640,287.816 293.135,286.443 293.460 C 285.869 293.596,285.099 293.968,284.732 294.287 C 282.586 296.148,268.840 296.041,265.400 294.137 C 264.960 293.894,264.027 293.572,263.328 293.422 C 262.628 293.271,261.841 292.890,261.579 292.574 C 261.317 292.258,260.895 292.000,260.643 292.000 C 260.051 292.000,253.200 285.129,253.200 284.535 C 253.200 284.288,252.930 283.982,252.600 283.855 C 252.270 283.729,251.993 283.394,251.985 283.113 C 251.946 281.773,249.283 279.403,248.527 280.036 C 248.127 280.371,247.350 280.859,246.800 281.120 C 246.250 281.381,245.530 281.770,245.200 281.984 C 244.870 282.198,242.922 283.325,240.871 284.487 C 238.820 285.649,236.480 286.983,235.671 287.452 C 234.862 287.920,233.075 288.902,231.700 289.634 C 230.325 290.365,229.200 291.107,229.200 291.282 C 229.200 291.457,228.970 291.600,228.689 291.600 C 227.437 291.600,226.317 292.845,226.943 293.540 C 227.270 293.903,227.659 294.688,227.808 295.284 C 227.957 295.880,228.331 296.577,228.639 296.833 C 228.948 297.089,229.200 297.539,229.200 297.833 C 229.200 299.267,238.073 308.477,242.000 311.119 C 245.647 313.574,253.422 317.600,254.514 317.600 C 254.843 317.600,255.897 317.956,256.856 318.391 C 257.815 318.826,259.253 319.186,260.051 319.191 C 260.849 319.196,262.199 319.515,263.051 319.900 C 265.099 320.826,286.358 320.966,287.941 320.064 C 288.458 319.769,290.050 319.363,291.479 319.160 C 292.907 318.958,294.458 318.524,294.927 318.196 C 295.395 317.868,296.033 317.600,296.345 317.600 C 297.351 317.600,304.158 314.286,305.129 313.324 C 305.419 313.036,305.891 312.800,306.177 312.800 C 307.267 312.800,313.990 305.948,315.435 303.363 C 316.222 301.957,317.030 300.705,317.232 300.580 C 317.435 300.455,317.600 300.025,317.600 299.625 C 317.600 299.225,317.856 298.686,318.169 298.426 C 318.482 298.166,318.861 297.199,319.012 296.277 C 319.163 295.355,319.567 294.283,319.910 293.895 C 321.290 292.333,321.225 275.148,319.826 271.800 C 319.482 270.976,319.200 269.957,319.200 269.534 C 319.200 268.043,316.641 263.245,314.300 260.346 C 313.475 259.325,312.800 258.355,312.800 258.192 C 312.800 256.751,302.086 248.567,296.400 245.664 C 294.970 244.934,293.530 244.186,293.200 244.000 C 291.465 243.027,289.226 242.069,288.112 241.825 C 287.421 241.673,286.641 241.290,286.379 240.974 C 286.117 240.658,285.733 240.400,285.526 240.400 C 285.087 240.400,281.750 238.905,277.859 236.966 C 276.351 236.215,274.888 235.600,274.608 235.600 C 274.327 235.600,273.889 235.348,273.633 235.039 C 273.377 234.731,272.726 234.368,272.186 234.232 C 269.684 233.604,265.570 230.201,263.712 227.223 C 262.315 224.983,262.378 218.438,263.814 216.658 C 267.880 211.616,268.657 211.216,274.406 211.207 C 278.124 211.201,279.281 211.342,280.406 211.939 C 281.173 212.345,282.261 212.790,282.823 212.927 C 283.938 213.199,288.545 217.387,288.920 218.470 C 290.263 222.348,291.630 222.819,294.896 220.529 C 295.939 219.798,296.946 219.200,297.134 219.200 C 297.322 219.200,297.802 218.840,298.200 218.400 C 298.598 217.960,299.111 217.600,299.340 217.600 C 299.773 217.600,302.604 215.775,303.529 214.900 C 303.819 214.625,304.241 214.400,304.465 214.400 C 304.690 214.400,305.352 214.022,305.937 213.560 C 307.111 212.632,312.338 209.287,312.914 209.095 C 313.386 208.938,312.498 205.600,311.985 205.600 C 311.773 205.600,311.600 205.371,311.600 205.092 C 311.600 203.935,303.026 195.052,299.964 193.036 C 298.994 192.397,297.750 191.573,297.200 191.203 C 296.650 190.834,295.683 190.403,295.052 190.246 C 294.420 190.089,293.667 189.724,293.379 189.436 C 293.090 189.147,292.145 188.798,291.280 188.659 C 290.414 188.521,289.187 188.137,288.553 187.806 C 287.919 187.476,286.651 187.204,285.735 187.202 C 284.820 187.201,282.660 186.930,280.935 186.600 C 277.577 185.957,272.499 185.858,270.697 186.401 M281.492 187.249 C 284.302 187.496,287.050 187.922,287.600 188.195 C 288.150 188.469,289.320 188.824,290.200 188.983 C 291.080 189.143,292.250 189.511,292.800 189.801 C 293.350 190.092,294.790 190.819,296.000 191.418 C 301.107 193.944,311.200 203.302,311.200 205.510 C 311.200 205.725,311.470 206.126,311.800 206.400 C 313.131 207.504,312.518 208.620,309.575 210.446 C 308.021 211.411,304.508 213.671,301.769 215.469 C 291.470 222.229,291.723 222.146,290.090 219.300 C 282.735 206.481,262.336 207.963,262.233 221.324 C 262.190 226.979,263.160 228.835,268.084 232.519 C 270.310 234.185,275.968 236.963,287.675 242.139 C 298.210 246.797,307.795 252.914,311.320 257.229 C 313.281 259.630,315.600 262.768,315.600 263.021 C 315.600 263.155,316.229 264.339,316.999 265.652 C 317.778 266.981,318.680 269.314,319.034 270.919 C 319.385 272.504,319.830 274.520,320.024 275.400 C 321.366 281.487,320.348 291.689,317.788 297.800 C 310.447 315.330,287.862 323.966,262.185 319.062 C 248.203 316.391,234.779 307.067,228.874 295.924 L 227.243 292.849 231.717 290.324 C 234.177 288.936,236.495 287.620,236.868 287.400 C 237.241 287.180,238.953 286.206,240.673 285.236 C 243.683 283.538,244.706 282.960,247.843 281.183 C 249.480 280.256,249.389 280.200,251.471 283.400 C 257.790 293.108,267.714 297.551,279.600 295.995 C 294.334 294.065,298.850 278.739,286.672 271.992 C 282.457 269.657,277.899 267.404,274.021 265.737 C 251.349 255.994,239.710 246.597,237.387 236.158 C 237.245 235.521,236.884 234.190,236.585 233.200 C 235.097 228.273,235.102 215.432,236.594 212.400 C 236.864 211.850,237.203 210.782,237.347 210.027 C 238.393 204.543,247.558 194.342,254.200 191.270 C 255.300 190.761,256.650 190.108,257.200 189.819 C 257.750 189.529,258.830 189.169,259.600 189.018 C 260.370 188.867,261.826 188.482,262.835 188.161 C 266.537 186.986,274.227 186.610,281.492 187.249 M186.229 187.829 C 185.665 188.392,185.598 193.199,185.576 234.529 C 185.563 260.106,185.392 281.401,185.192 282.400 C 183.703 289.851,181.921 293.600,179.869 293.600 C 179.646 293.600,179.144 293.889,178.754 294.242 C 177.090 295.747,166.520 295.679,164.769 294.151 C 164.421 293.848,163.957 293.600,163.738 293.600 C 163.055 293.600,159.270 289.241,157.087 285.941 C 154.772 282.441,154.061 281.997,152.480 283.062 C 151.069 284.013,150.428 284.413,148.554 285.510 C 147.699 286.010,146.280 286.869,145.400 287.418 C 144.520 287.967,143.530 288.539,143.200 288.689 C 142.677 288.926,141.261 289.823,139.200 291.222 C 138.487 291.706,137.086 292.509,135.300 293.458 C 134.585 293.837,134.000 294.295,134.000 294.474 C 134.000 294.653,133.789 294.800,133.531 294.800 C 131.705 294.800,131.582 296.573,133.226 299.200 C 133.433 299.530,133.763 300.167,133.959 300.616 C 134.156 301.065,134.605 301.673,134.958 301.965 C 135.311 302.258,135.600 302.676,135.600 302.893 C 135.600 304.462,142.013 310.679,147.200 314.140 C 151.375 316.925,152.634 317.600,153.658 317.600 C 154.188 317.600,154.996 317.862,155.453 318.182 C 155.910 318.502,157.380 318.940,158.720 319.156 C 160.060 319.372,161.571 319.785,162.078 320.074 C 163.588 320.936,181.715 320.815,183.812 319.930 C 184.685 319.561,186.090 319.165,186.933 319.050 C 187.776 318.934,189.261 318.471,190.233 318.020 C 191.205 317.569,192.777 316.840,193.726 316.400 C 194.676 315.960,195.602 315.600,195.785 315.600 C 196.097 315.600,198.964 313.417,200.481 312.025 C 200.855 311.681,201.395 311.196,201.681 310.947 C 204.133 308.808,207.350 304.476,208.768 301.400 C 209.478 299.860,210.292 298.150,210.576 297.600 C 210.860 297.050,211.192 295.610,211.312 294.400 C 211.433 293.190,211.816 291.660,212.163 291.000 C 213.126 289.172,213.134 188.791,212.171 187.829 C 211.627 187.284,209.887 187.200,199.200 187.200 C 188.513 187.200,186.773 187.284,186.229 187.829 M211.963 188.555 C 212.828 189.598,212.367 288.298,211.481 291.800 C 208.201 304.758,202.613 311.872,192.000 316.598 C 185.340 319.564,179.684 320.548,170.800 320.285 C 164.697 320.105,162.609 319.762,157.000 318.017 C 155.680 317.606,154.146 317.171,153.591 317.050 C 147.944 315.819,137.215 305.871,133.520 298.440 C 132.185 295.754,131.633 296.409,138.988 291.959 C 142.406 289.892,145.634 287.930,146.162 287.600 C 146.691 287.270,148.355 286.300,149.861 285.444 C 151.368 284.589,152.891 283.637,153.247 283.331 C 153.968 282.708,155.269 283.959,157.121 287.059 C 160.543 292.784,164.290 295.265,171.055 296.287 C 176.914 297.173,183.051 293.329,184.606 287.800 C 185.872 283.297,185.933 280.958,185.966 234.980 C 185.992 199.758,186.113 188.847,186.480 188.480 C 187.231 187.729,211.336 187.800,211.963 188.555 " stroke="none" fill="#8e8111" fill-rule="evenodd"></path><path id="path3" d="M268.382 187.389 C 265.622 187.661,263.012 188.066,262.582 188.289 C 262.152 188.512,261.114 188.819,260.275 188.970 C 256.444 189.662,248.697 194.294,245.200 197.985 C 241.486 201.903,237.858 207.578,237.383 210.211 C 237.225 211.085,236.920 212.022,236.705 212.293 C 236.490 212.564,236.077 214.933,235.789 217.556 C 234.438 229.842,238.546 243.417,245.183 248.594 C 245.742 249.030,247.010 250.135,248.000 251.048 C 250.305 253.175,254.269 255.877,258.258 258.042 C 262.684 260.445,269.613 263.851,270.800 264.209 C 271.350 264.375,273.150 265.132,274.800 265.893 C 287.234 271.623,291.362 274.471,292.806 278.315 C 295.137 284.523,292.349 291.142,286.055 294.340 C 282.474 296.160,272.761 297.391,270.126 296.359 C 269.507 296.116,267.769 295.571,266.265 295.148 C 260.480 293.519,256.863 290.746,252.114 284.300 C 250.696 282.375,249.347 280.800,249.116 280.800 C 248.522 280.800,227.596 292.802,227.619 293.129 C 227.630 293.278,227.977 294.030,228.391 294.800 C 228.804 295.570,229.406 296.759,229.727 297.442 C 232.998 304.400,245.765 314.006,256.320 317.452 C 264.737 320.199,281.085 321.235,287.200 319.409 C 288.190 319.113,289.732 318.768,290.627 318.642 C 292.912 318.321,300.286 315.491,302.635 314.034 C 303.716 313.363,305.030 312.626,305.557 312.396 C 308.820 310.967,316.125 301.917,317.984 297.000 C 318.484 295.680,319.163 293.970,319.495 293.200 C 319.910 292.237,320.159 289.867,320.291 285.600 C 320.639 274.404,318.871 267.518,313.952 260.917 C 313.098 259.772,312.400 258.704,312.400 258.544 C 312.400 257.718,305.676 252.133,301.400 249.407 C 299.778 248.372,291.948 244.000,291.718 244.000 C 291.280 244.000,283.837 240.634,275.600 236.712 C 264.078 231.226,261.333 227.755,262.190 219.758 C 263.479 207.720,283.262 207.223,290.034 219.059 C 291.656 221.894,291.856 221.860,298.125 217.700 C 301.026 215.775,303.580 214.110,303.800 214.000 C 304.020 213.890,305.792 212.753,307.738 211.473 C 309.684 210.193,311.529 209.049,311.838 208.930 C 316.374 207.190,298.256 190.671,290.000 189.019 C 289.230 188.865,287.880 188.491,287.000 188.188 C 285.625 187.714,275.920 186.710,274.043 186.847 C 273.689 186.873,271.142 187.117,268.382 187.389 M286.400 188.519 C 287.170 188.839,288.640 189.222,289.667 189.370 C 290.694 189.518,291.751 189.900,292.016 190.220 C 292.281 190.539,292.701 190.806,292.949 190.813 C 294.175 190.847,300.206 194.357,302.121 196.150 C 302.737 196.728,303.336 197.200,303.451 197.200 C 303.830 197.200,306.000 199.529,306.000 199.936 C 306.000 200.154,306.155 200.393,306.344 200.467 C 307.645 200.972,311.728 206.989,311.405 207.925 C 311.200 208.518,305.539 212.465,302.809 213.919 C 302.264 214.209,301.724 214.587,301.609 214.758 C 301.494 214.929,300.500 215.585,299.400 216.215 C 298.300 216.846,297.310 217.467,297.200 217.596 C 296.536 218.373,292.927 220.397,292.231 220.383 C 291.486 220.368,289.600 218.109,289.600 217.230 C 289.600 216.548,285.279 212.882,283.310 211.893 C 278.524 209.489,269.537 209.208,267.245 211.390 C 266.410 212.185,263.778 214.817,262.996 215.639 C 260.881 217.862,260.885 226.675,263.001 228.244 C 263.330 228.488,263.600 228.817,263.600 228.975 C 263.600 229.354,265.367 231.071,267.600 232.863 C 269.460 234.355,270.869 235.125,277.000 238.001 C 278.980 238.930,281.833 240.300,283.341 241.045 C 284.849 241.790,286.291 242.400,286.547 242.400 C 286.803 242.400,287.639 242.735,288.406 243.144 C 289.173 243.553,290.220 244.020,290.734 244.182 C 291.247 244.343,293.167 245.341,295.000 246.400 C 296.833 247.459,298.684 248.436,299.114 248.573 C 299.543 248.709,300.216 249.176,300.609 249.610 C 301.002 250.045,301.486 250.400,301.683 250.400 C 302.432 250.400,310.554 256.829,311.391 258.085 C 311.873 258.808,312.793 260.174,313.434 261.121 C 316.250 265.276,318.400 269.655,318.400 271.234 C 318.400 271.860,318.713 273.233,319.095 274.286 C 320.144 277.176,320.114 289.761,319.052 292.600 C 317.021 298.027,316.603 299.045,316.181 299.600 C 315.930 299.930,315.154 301.216,314.457 302.458 C 313.166 304.758,306.035 312.000,305.060 312.000 C 304.780 312.000,304.202 312.321,303.775 312.714 C 302.873 313.544,299.780 315.200,299.131 315.200 C 298.887 315.200,297.948 315.546,297.044 315.969 C 284.564 321.804,261.488 320.773,249.200 313.830 C 248.210 313.271,247.040 312.652,246.600 312.454 C 241.651 310.229,231.809 300.894,230.096 296.800 C 229.774 296.030,229.365 295.308,229.187 295.196 C 228.086 294.502,228.352 292.829,229.662 292.207 C 231.636 291.269,233.204 290.398,235.000 289.240 C 235.880 288.673,237.050 287.981,237.600 287.701 C 238.150 287.422,239.320 286.753,240.200 286.216 C 241.080 285.678,242.070 285.111,242.400 284.957 C 242.730 284.802,244.201 283.983,245.670 283.137 C 249.132 281.144,249.109 281.139,251.417 284.300 C 255.988 290.559,261.363 294.849,265.400 295.462 C 266.280 295.596,267.810 296.067,268.800 296.509 C 270.907 297.450,279.483 297.291,282.800 296.249 C 290.190 293.929,294.007 289.379,293.991 282.913 C 293.974 276.146,291.276 273.178,280.400 267.968 C 278.970 267.283,277.530 266.560,277.200 266.360 C 276.870 266.161,276.150 265.822,275.600 265.607 C 275.050 265.392,274.090 264.942,273.468 264.608 C 272.845 264.274,272.159 264.000,271.943 264.000 C 271.238 264.000,261.436 259.279,258.200 257.380 C 257.320 256.864,256.181 256.251,255.670 256.019 C 255.158 255.787,254.488 255.345,254.180 255.038 C 253.873 254.730,252.941 254.070,252.111 253.571 C 251.280 253.071,249.520 251.645,248.200 250.402 C 246.880 249.158,245.521 247.974,245.179 247.771 C 244.838 247.567,243.938 246.590,243.179 245.600 C 242.421 244.610,241.676 243.706,241.525 243.592 C 241.374 243.477,241.059 242.937,240.826 242.392 C 240.593 241.846,240.234 241.130,240.029 240.800 C 239.082 239.276,238.009 236.437,237.761 234.800 C 237.611 233.810,237.212 232.460,236.873 231.800 C 235.949 229.999,235.920 214.997,236.837 213.582 C 237.188 213.042,237.594 211.842,237.740 210.916 C 237.885 209.990,238.540 208.370,239.195 207.316 C 239.850 206.262,240.562 205.001,240.778 204.512 C 241.291 203.354,245.965 197.459,246.576 197.200 C 246.836 197.090,247.307 196.773,247.624 196.496 C 250.528 193.957,255.794 190.800,257.126 190.800 C 257.333 190.800,257.713 190.546,257.971 190.235 C 258.229 189.924,259.376 189.542,260.520 189.385 C 261.664 189.229,263.050 188.911,263.600 188.680 C 266.387 187.507,283.673 187.385,286.400 188.519 M186.243 189.033 C 186.109 189.381,185.989 210.486,185.976 235.933 C 185.963 261.380,185.802 283.010,185.618 284.000 C 184.954 287.582,183.947 290.594,182.999 291.837 C 180.404 295.239,173.481 297.233,168.646 295.970 C 167.741 295.734,166.280 295.353,165.400 295.125 C 163.398 294.604,159.043 290.291,156.289 286.100 C 154.087 282.750,154.207 282.789,151.481 284.524 C 150.336 285.253,149.130 285.975,148.800 286.129 C 148.470 286.282,146.979 287.171,145.487 288.104 C 143.995 289.037,140.531 291.150,137.789 292.800 C 135.047 294.450,132.803 296.030,132.802 296.311 C 132.794 298.293,139.477 307.579,142.624 309.958 C 143.491 310.613,144.471 311.386,144.803 311.675 C 145.743 312.494,149.629 314.983,151.400 315.901 C 152.834 316.644,156.447 317.802,161.600 319.171 C 166.658 320.514,179.060 320.524,184.000 319.189 C 193.221 316.696,197.022 314.615,202.443 309.093 C 207.032 304.417,209.444 299.753,211.280 292.000 L 212.180 288.200 212.306 239.200 C 212.375 212.250,212.331 189.795,212.208 189.300 L 211.985 188.400 199.235 188.400 C 187.978 188.400,186.457 188.474,186.243 189.033 M211.889 237.100 C 211.755 288.697,211.715 289.721,209.615 295.956 C 209.167 297.287,208.800 298.635,208.800 298.954 C 208.800 299.273,208.665 299.593,208.500 299.667 C 208.335 299.740,207.597 300.961,206.861 302.380 C 204.765 306.418,201.533 310.165,198.267 312.339 C 195.428 314.229,193.013 315.573,192.431 315.587 C 192.119 315.594,191.579 315.832,191.231 316.115 C 190.617 316.615,186.847 317.872,183.200 318.792 C 176.706 320.429,165.061 320.015,159.000 317.931 C 158.340 317.704,156.900 317.290,155.800 317.010 C 153.279 316.369,151.122 315.364,148.704 313.703 C 147.661 312.986,146.678 312.400,146.518 312.400 C 146.359 312.400,145.862 312.036,145.414 311.591 C 144.966 311.146,143.891 310.238,143.024 309.574 C 139.867 307.155,133.600 298.484,133.600 296.535 C 133.600 296.252,134.095 295.740,134.700 295.398 C 135.305 295.056,136.340 294.427,137.000 294.000 C 137.660 293.573,138.740 292.924,139.400 292.556 C 140.060 292.189,140.690 291.775,140.800 291.636 C 140.910 291.497,141.450 291.161,142.000 290.888 C 142.550 290.615,144.260 289.592,145.800 288.615 C 147.340 287.638,149.140 286.563,149.800 286.227 C 150.460 285.891,151.659 285.170,152.464 284.625 L 153.927 283.634 155.864 286.498 C 157.591 289.052,161.364 293.204,163.387 294.775 C 164.102 295.331,166.281 296.029,169.971 296.884 C 175.720 298.217,183.060 294.403,184.915 289.118 C 186.304 285.163,186.352 283.411,186.376 236.300 L 186.400 189.200 199.206 189.200 L 212.013 189.200 211.889 237.100 " stroke="none" fill="#746c0c" fill-rule="evenodd"></path><path id="path4" d="M192.900 188.299 C 196.365 188.366,202.035 188.366,205.500 188.299 C 208.965 188.233,206.130 188.178,199.200 188.178 C 192.270 188.178,189.435 188.233,192.900 188.299 M256.200 289.200 C 257.728 290.740,259.069 292.000,259.179 292.000 C 259.289 292.000,258.128 290.740,256.600 289.200 C 255.072 287.660,253.731 286.400,253.621 286.400 C 253.511 286.400,254.672 287.660,256.200 289.200 M271.891 296.689 C 272.601 296.777,273.861 296.779,274.691 296.692 C 275.521 296.605,274.940 296.533,273.400 296.531 C 271.860 296.529,271.181 296.600,271.891 296.689 M310.589 308.100 L 307.800 311.000 310.700 308.211 C 313.394 305.620,313.783 305.200,313.489 305.200 C 313.428 305.200,312.123 306.505,310.589 308.100 M167.505 320.283 C 168.002 320.379,168.722 320.375,169.105 320.275 C 169.487 320.175,169.080 320.096,168.200 320.101 C 167.320 320.105,167.007 320.187,167.505 320.283 M176.705 320.283 C 177.202 320.379,177.922 320.375,178.305 320.275 C 178.687 320.175,178.280 320.096,177.400 320.101 C 176.520 320.105,176.207 320.187,176.705 320.283 M270.305 320.283 C 270.802 320.379,271.522 320.375,271.905 320.275 C 272.287 320.175,271.880 320.096,271.000 320.101 C 270.120 320.105,269.807 320.187,270.305 320.283 M280.300 320.282 C 280.795 320.378,281.605 320.378,282.100 320.282 C 282.595 320.187,282.190 320.109,281.200 320.109 C 280.210 320.109,279.805 320.187,280.300 320.282 " stroke="none" fill="#7c6c0c" fill-rule="evenodd"></path></g></svg>