<svg id="svg" version="1.1" xmlns="http://www.w3.org/2000/svg" xmlns:xlink="http://www.w3.org/1999/xlink" width="400" height="209" viewBox="0, 0, 400,209"><g id="svgg"><path id="path0" d="M0.000 104.548 L 0.000 209.096 200.001 209.096 L 400.001 209.096 399.939 112.023 C 399.905 58.633,399.797 14.678,399.699 14.344 C 399.570 13.906,399.587 13.779,399.761 13.886 C 399.901 13.973,400.000 13.900,400.000 13.708 C 400.000 13.529,399.906 13.382,399.791 13.382 C 399.661 13.382,399.582 12.222,399.582 10.321 C 399.582 7.653,399.535 7.223,399.216 6.975 C 398.892 6.724,398.886 6.661,399.166 6.430 C 399.803 5.901,399.678 3.803,399.004 3.725 C 398.380 3.653,398.007 2.718,398.602 2.718 C 398.909 2.718,399.216 2.004,399.001 1.789 C 398.758 1.546,398.327 1.687,398.327 2.009 C 398.327 2.352,397.324 2.266,397.075 1.902 C 396.758 1.441,396.236 1.495,396.236 1.990 C 396.236 2.382,396.414 2.578,396.987 2.817 C 397.837 3.173,397.846 3.626,397.004 3.725 C 396.578 3.776,396.402 3.676,396.260 3.302 C 396.157 3.033,395.791 2.533,395.445 2.191 C 395.099 1.848,394.781 1.380,394.739 1.150 C 394.644 0.630,394.072 0.598,393.974 1.107 C 393.933 1.322,394.132 1.662,394.442 1.906 C 394.778 2.170,394.982 2.538,394.982 2.880 C 394.982 3.430,394.981 3.430,394.145 2.614 C 393.564 2.046,393.309 1.619,393.309 1.212 C 393.309 0.577,391.211 0.299,390.651 0.860 C 390.344 1.167,389.963 0.916,389.963 0.406 C 389.963 0.094,389.818 0.000,389.336 0.000 C 388.918 0.000,388.709 0.105,388.709 0.314 C 388.709 0.486,388.850 0.627,389.022 0.627 C 389.195 0.627,389.336 0.768,389.336 0.941 C 389.336 1.113,389.195 1.255,389.022 1.255 C 388.850 1.255,388.709 1.113,388.709 0.941 C 388.709 0.768,388.568 0.627,388.395 0.627 C 388.223 0.627,388.082 0.486,388.082 0.314 C 388.082 0.070,387.803 0.000,386.827 0.000 C 385.851 0.000,385.572 0.070,385.572 0.314 C 385.572 0.486,385.666 0.627,385.781 0.627 C 385.896 0.627,385.991 0.768,385.991 0.941 C 385.991 1.113,385.849 1.255,385.677 1.255 C 385.504 1.255,385.363 1.113,385.363 0.941 C 385.363 0.768,385.222 0.627,385.050 0.627 C 384.877 0.627,384.736 0.486,384.736 0.314 C 384.736 0.035,363.222 0.000,192.368 0.000 L 0.000 0.000 0.000 104.548 M394.982 0.941 C 394.982 1.278,395.173 1.328,395.696 1.128 C 396.205 0.932,396.088 0.627,395.504 0.627 C 395.179 0.627,394.982 0.746,394.982 0.941 M388.044 1.516 C 388.007 1.775,387.836 1.986,387.663 1.986 C 387.491 1.986,387.320 1.775,387.283 1.516 C 387.231 1.154,387.319 1.045,387.663 1.045 C 388.008 1.045,388.095 1.154,388.044 1.516 M391.323 1.687 C 391.323 1.849,391.158 2.012,390.957 2.051 C 390.596 2.121,390.447 1.677,390.734 1.390 C 390.954 1.170,391.323 1.357,391.323 1.687 M392.577 1.673 C 392.577 1.826,392.459 1.991,392.316 2.039 C 392.160 2.091,392.054 1.942,392.054 1.673 C 392.054 1.403,392.160 1.255,392.316 1.307 C 392.459 1.355,392.577 1.519,392.577 1.673 M390.225 1.964 C 390.779 2.385,390.664 2.718,389.963 2.718 C 389.434 2.718,389.336 2.637,389.336 2.196 C 389.336 1.621,389.661 1.536,390.225 1.964 M393.309 2.823 C 393.309 3.264,393.211 3.346,392.682 3.346 C 392.152 3.346,392.054 3.264,392.054 2.823 C 392.054 2.381,392.152 2.300,392.682 2.300 C 393.211 2.300,393.309 2.381,393.309 2.823 M392.006 4.012 C 391.877 4.400,391.427 4.464,391.427 4.095 C 391.427 3.913,391.576 3.764,391.758 3.764 C 391.940 3.764,392.052 3.875,392.006 4.012 M394.564 4.077 C 394.564 4.252,394.378 4.391,394.145 4.391 C 393.913 4.391,393.727 4.252,393.727 4.077 C 393.727 3.903,393.913 3.764,394.145 3.764 C 394.378 3.764,394.564 3.903,394.564 4.077 M395.975 4.025 C 395.927 4.169,395.715 4.286,395.504 4.286 C 395.294 4.286,395.082 4.169,395.034 4.025 C 394.979 3.860,395.151 3.764,395.504 3.764 C 395.858 3.764,396.030 3.860,395.975 4.025 M397.020 4.652 C 396.972 4.796,396.808 4.914,396.654 4.914 C 396.501 4.914,396.336 4.796,396.289 4.652 C 396.237 4.497,396.385 4.391,396.654 4.391 C 396.924 4.391,397.072 4.497,397.020 4.652 M398.955 4.717 C 398.955 4.896,399.025 4.999,399.111 4.946 C 399.198 4.893,399.268 5.066,399.268 5.332 C 399.268 5.597,399.198 5.771,399.111 5.718 C 399.025 5.665,398.955 5.485,398.955 5.320 C 398.955 5.154,398.813 5.018,398.641 5.018 C 398.468 5.018,398.327 4.877,398.327 4.705 C 398.327 4.532,398.468 4.391,398.641 4.391 C 398.813 4.391,398.955 4.538,398.955 4.717 M254.292 27.549 C 254.523 27.780,254.340 29.097,253.526 33.037 C 253.372 33.785,253.092 35.196,252.904 36.174 C 252.716 37.151,252.374 38.515,252.143 39.205 C 251.693 40.557,251.027 43.613,250.714 45.768 C 250.573 46.738,250.375 47.255,249.991 47.656 C 249.495 48.174,249.481 48.243,249.771 48.801 C 250.168 49.566,250.211 49.467,249.206 50.101 C 248.368 50.630,248.322 50.637,248.050 50.266 C 247.895 50.053,247.130 49.642,246.350 49.352 C 243.730 48.376,242.814 46.924,244.471 46.372 C 244.661 46.308,244.636 46.097,244.373 45.543 C 244.052 44.866,244.047 44.650,244.319 43.152 C 244.483 42.247,244.727 40.800,244.860 39.937 C 244.993 39.075,245.178 38.181,245.271 37.951 C 245.518 37.341,246.031 34.857,246.309 32.933 C 247.072 27.638,247.140 27.460,248.457 27.323 C 250.098 27.153,254.049 27.306,254.292 27.549 M263.251 39.205 C 263.251 48.194,263.193 50.807,262.990 50.974 C 262.530 51.354,260.316 51.647,257.910 51.647 L 255.572 51.647 255.021 52.442 C 254.717 52.879,254.470 53.420,254.470 53.644 C 254.470 53.868,254.292 54.710,254.073 55.515 C 253.684 56.949,253.444 57.910,252.900 60.220 C 252.751 60.852,252.462 61.840,252.258 62.415 C 252.055 62.990,251.722 63.931,251.519 64.506 C 251.316 65.081,250.848 66.869,250.478 68.479 C 249.773 71.545,248.878 74.662,248.347 75.902 C 248.175 76.304,247.872 77.386,247.675 78.306 C 247.477 79.226,247.138 80.605,246.920 81.371 C 246.702 82.136,246.524 82.922,246.524 83.116 C 246.524 83.669,245.953 84.738,245.243 85.515 C 244.518 86.309,244.516 86.372,245.149 90.016 C 245.329 91.051,245.422 92.227,245.355 92.629 C 244.617 97.082,243.761 99.454,242.450 100.680 C 241.958 101.140,241.308 101.916,241.005 102.404 C 240.703 102.893,239.999 103.723,239.442 104.249 L 238.428 105.206 238.305 107.229 C 238.218 108.660,238.022 109.681,237.636 110.716 C 237.335 111.521,237.033 112.368,236.963 112.598 C 236.830 113.038,236.008 114.209,235.389 114.839 C 235.188 115.044,235.024 115.394,235.024 115.618 C 235.024 115.841,234.938 116.077,234.833 116.141 C 234.728 116.206,234.194 116.941,233.647 117.774 C 233.100 118.607,232.480 119.412,232.270 119.562 C 231.812 119.889,231.786 120.188,232.179 120.632 C 233.057 121.624,233.627 126.065,233.053 127.439 C 232.872 127.872,232.723 128.407,232.723 128.626 C 232.723 128.846,232.488 129.490,232.201 130.058 C 231.913 130.625,231.678 131.248,231.678 131.442 C 231.678 131.636,231.410 132.368,231.081 133.069 C 230.753 133.770,230.418 134.621,230.336 134.959 C 230.253 135.297,229.816 136.016,229.364 136.556 C 228.912 137.096,228.542 137.656,228.542 137.800 C 228.542 138.267,226.678 141.217,225.705 142.290 C 225.183 142.865,224.510 143.769,224.208 144.299 C 223.907 144.829,223.388 145.440,223.055 145.658 C 222.723 145.875,221.992 146.680,221.430 147.446 C 220.869 148.211,220.039 149.136,219.586 149.500 C 219.133 149.864,218.426 150.650,218.016 151.246 C 217.605 151.842,216.981 152.500,216.629 152.708 C 216.276 152.916,215.599 153.602,215.123 154.232 C 214.647 154.863,214.090 155.468,213.886 155.577 C 213.435 155.819,135.515 155.844,135.130 155.603 C 134.862 155.435,134.711 115.424,134.976 114.994 C 135.041 114.889,135.584 114.473,136.183 114.068 C 136.781 113.663,137.755 112.885,138.346 112.338 C 138.938 111.791,140.059 110.826,140.839 110.193 C 141.619 109.561,142.641 108.679,143.109 108.234 C 143.577 107.789,144.384 107.140,144.902 106.792 C 145.420 106.444,146.268 105.715,146.785 105.172 C 147.303 104.629,148.150 103.938,148.667 103.636 C 149.185 103.334,149.878 102.718,150.209 102.268 C 150.539 101.818,151.264 101.202,151.820 100.900 C 152.376 100.597,153.188 99.890,153.624 99.328 C 154.060 98.767,154.614 98.255,154.854 98.191 C 155.094 98.127,156.044 97.391,156.964 96.554 C 157.884 95.718,159.046 94.705,159.547 94.302 C 160.047 93.900,160.651 93.409,160.887 93.212 C 163.508 91.027,164.128 90.546,164.703 90.253 C 165.070 90.066,165.528 89.646,165.721 89.318 C 165.914 88.991,166.676 88.314,167.414 87.814 C 168.151 87.314,169.070 86.519,169.456 86.049 C 170.201 85.139,171.545 84.282,171.810 84.547 C 171.984 84.721,171.459 85.127,171.238 84.990 C 171.163 84.944,170.996 85.138,170.866 85.422 C 170.737 85.706,170.545 85.938,170.440 85.938 C 170.335 85.938,170.193 86.150,170.125 86.409 C 170.056 86.668,169.482 87.427,168.847 88.096 C 168.190 88.790,167.692 89.508,167.688 89.769 C 167.684 90.020,167.543 90.407,167.374 90.631 C 166.922 91.229,166.999 92.952,167.548 94.519 C 167.991 95.785,168.199 96.162,169.216 97.539 C 169.655 98.133,171.508 99.214,172.399 99.396 C 172.954 99.509,172.980 99.493,172.627 99.265 C 171.406 98.476,171.326 98.226,172.208 97.949 C 172.658 97.807,173.399 97.494,173.855 97.252 C 174.311 97.009,174.785 96.811,174.910 96.811 C 175.035 96.811,175.509 96.423,175.964 95.949 C 176.418 95.475,177.261 94.772,177.836 94.387 C 179.231 93.452,179.445 93.264,179.983 92.498 C 180.235 92.139,180.749 91.697,181.125 91.516 C 181.789 91.197,182.287 90.764,183.785 89.201 C 184.182 88.786,184.615 88.447,184.747 88.447 C 184.879 88.447,185.605 87.812,186.360 87.036 C 187.115 86.260,188.423 84.958,189.266 84.142 C 191.610 81.876,195.880 77.334,196.325 76.632 C 196.544 76.288,197.059 75.688,197.470 75.300 C 197.881 74.911,198.566 74.064,198.992 73.418 C 199.418 72.771,199.837 72.213,199.922 72.177 C 200.007 72.142,200.389 71.838,200.771 71.502 L 201.464 70.892 201.716 71.463 C 202.093 72.318,202.031 74.973,201.594 76.634 C 201.208 78.102,200.855 78.828,199.535 80.870 C 199.144 81.476,198.646 82.374,198.428 82.867 C 198.210 83.359,197.604 84.164,197.081 84.654 C 195.659 85.986,195.434 86.526,195.835 87.647 C 196.030 88.189,196.182 89.433,196.216 90.748 C 196.247 91.955,196.345 93.106,196.432 93.305 C 196.583 93.646,195.973 94.631,194.206 96.904 C 192.919 98.557,193.006 102.383,194.355 103.503 C 194.527 103.646,194.668 103.849,194.668 103.955 C 194.668 104.401,196.473 106.639,196.834 106.639 C 196.947 106.639,197.612 106.864,198.311 107.139 C 199.922 107.773,200.790 108.015,200.261 107.684 C 199.752 107.364,199.805 106.881,200.366 106.723 C 200.625 106.650,201.260 106.096,201.777 105.491 C 202.295 104.886,203.069 104.186,203.497 103.936 C 203.925 103.687,204.562 103.082,204.913 102.593 C 205.264 102.104,205.855 101.532,206.226 101.322 C 206.597 101.112,207.512 100.311,208.259 99.541 C 209.007 98.772,210.159 97.737,210.821 97.242 C 211.482 96.747,212.023 96.227,212.023 96.085 C 212.023 95.944,212.611 95.323,213.330 94.705 C 214.049 94.087,214.721 93.438,214.824 93.262 C 214.928 93.087,215.774 92.170,216.706 91.225 C 220.012 87.873,220.989 86.803,221.308 86.186 C 221.485 85.843,222.092 85.153,222.657 84.653 C 223.221 84.152,223.830 83.461,224.011 83.116 C 224.371 82.427,225.938 80.689,226.476 80.382 C 226.662 80.275,227.017 79.788,227.264 79.300 C 228.015 77.815,228.335 78.196,228.329 80.571 C 228.325 82.100,227.867 84.749,227.531 85.178 C 227.429 85.309,227.290 85.711,227.222 86.071 C 227.087 86.786,226.179 88.243,225.703 88.510 C 225.539 88.602,225.405 88.845,225.405 89.049 C 225.405 89.470,223.307 92.722,222.617 93.368 C 221.613 94.310,221.613 94.314,222.276 96.169 C 223.239 98.863,223.018 101.834,221.652 104.548 C 220.820 106.201,221.123 107.429,222.073 106.255 C 222.275 106.006,222.528 105.802,222.636 105.802 C 222.743 105.802,222.999 105.617,223.204 105.390 C 223.690 104.854,226.305 103.502,226.858 103.502 C 227.575 103.502,227.340 103.893,226.343 104.362 C 225.824 104.606,225.202 105.083,224.961 105.421 C 224.720 105.759,223.804 106.510,222.926 107.090 C 222.047 107.670,221.061 108.467,220.734 108.860 C 220.407 109.253,219.874 109.712,219.550 109.880 C 219.225 110.048,218.458 110.681,217.845 111.287 C 217.233 111.893,216.531 112.530,216.286 112.703 C 215.702 113.114,214.355 114.327,211.291 117.199 C 209.911 118.492,208.156 120.084,207.390 120.735 C 206.624 121.386,205.941 122.067,205.871 122.248 C 205.791 122.459,205.591 122.537,205.318 122.466 C 204.374 122.219,204.176 124.993,204.990 127.038 C 205.814 129.106,205.945 129.298,207.034 130.058 C 207.612 130.460,208.242 130.944,208.434 131.133 C 208.973 131.666,210.340 132.195,211.575 132.349 C 212.513 132.466,212.635 132.446,212.330 132.222 C 211.860 131.879,212.272 131.166,213.319 130.507 C 213.699 130.269,214.474 129.505,215.042 128.811 C 215.610 128.116,216.174 127.548,216.295 127.548 C 216.417 127.548,217.368 126.678,218.408 125.614 C 219.449 124.550,220.592 123.454,220.949 123.178 C 221.306 122.901,221.819 122.318,222.090 121.881 C 222.361 121.444,222.888 120.920,223.262 120.716 C 223.636 120.511,223.941 120.235,223.941 120.102 C 223.941 119.969,224.162 119.715,224.432 119.538 C 224.702 119.362,225.033 118.951,225.168 118.626 C 225.303 118.301,225.718 117.823,226.089 117.564 C 227.371 116.670,229.531 113.817,229.186 113.473 C 228.822 113.108,228.922 112.660,229.504 112.053 L 230.048 111.485 228.446 111.227 L 226.845 110.969 228.164 110.378 C 228.889 110.053,229.592 109.784,229.726 109.781 C 229.860 109.778,230.425 109.349,230.981 108.828 C 231.537 108.308,232.227 107.825,232.514 107.755 C 233.312 107.563,234.351 106.702,234.957 105.733 C 235.257 105.254,235.806 104.521,236.178 104.105 C 236.550 103.688,236.972 102.983,237.116 102.536 C 237.260 102.090,237.500 101.490,237.650 101.202 C 237.800 100.915,238.164 100.162,238.459 99.530 C 238.754 98.897,239.275 98.003,239.616 97.543 C 239.958 97.083,240.241 96.519,240.245 96.289 C 240.250 96.059,240.401 95.588,240.581 95.243 C 240.761 94.898,241.047 94.016,241.218 93.282 C 241.417 92.423,241.783 91.613,242.248 91.004 C 243.201 89.756,243.274 88.265,242.424 87.379 L 241.879 86.809 242.420 85.799 C 242.718 85.243,243.156 83.941,243.393 82.906 C 244.442 78.327,245.100 75.737,245.411 74.961 C 245.595 74.501,245.819 73.795,245.909 73.393 C 246.000 72.990,246.209 72.143,246.374 71.511 C 246.648 70.460,247.049 68.700,247.921 64.715 C 248.097 63.910,248.508 62.452,248.834 61.474 C 249.877 58.349,250.783 53.426,250.570 52.045 C 250.451 51.274,250.638 51.020,251.885 50.260 C 252.258 50.032,252.255 50.003,251.803 49.514 C 251.170 48.830,251.207 48.648,252.065 48.239 C 252.656 47.957,252.797 47.772,252.797 47.275 C 252.797 46.937,252.895 46.159,253.015 45.547 C 253.584 42.654,253.879 41.221,254.085 40.355 C 254.208 39.838,254.422 38.850,254.559 38.160 C 254.696 37.470,254.927 36.687,255.072 36.421 C 255.217 36.155,255.413 35.496,255.507 34.957 C 255.602 34.419,255.825 33.366,256.002 32.619 C 256.180 31.871,256.478 30.549,256.666 29.680 C 256.918 28.517,257.128 28.026,257.464 27.815 C 258.005 27.476,262.599 27.185,262.990 27.465 C 263.194 27.611,263.251 30.202,263.251 39.205 M247.151 50.693 C 247.151 50.974,247.057 51.262,246.942 51.333 C 246.820 51.408,246.733 51.196,246.733 50.823 C 246.733 50.471,246.827 50.183,246.942 50.183 C 247.057 50.183,247.151 50.413,247.151 50.693 M249.242 52.940 C 249.242 53.510,248.871 55.405,248.417 57.150 C 247.963 58.896,247.392 61.218,247.148 62.311 C 246.384 65.728,245.685 68.420,245.386 69.089 C 245.228 69.443,244.943 70.439,244.753 71.302 C 244.563 72.164,244.229 73.670,244.010 74.647 C 243.792 75.625,243.460 77.130,243.274 77.993 C 243.088 78.855,242.702 80.220,242.416 81.025 C 242.131 81.830,241.775 83.081,241.627 83.806 C 241.479 84.531,241.250 85.232,241.118 85.364 C 240.797 85.685,240.827 86.550,241.181 87.190 C 241.475 87.722,240.269 90.499,239.226 91.688 C 238.798 92.177,237.535 95.167,237.528 95.709 C 237.521 96.295,236.808 97.715,236.182 98.390 C 235.458 99.170,234.114 101.478,233.778 102.518 C 233.637 102.955,233.222 103.707,232.855 104.191 C 232.489 104.675,231.883 105.682,231.509 106.430 C 230.429 108.590,229.187 109.681,227.359 110.076 C 226.358 110.291,226.386 110.001,227.524 108.333 C 228.665 106.660,228.715 106.186,227.640 107.228 C 227.262 107.594,226.847 107.893,226.716 107.893 C 226.510 107.893,225.042 108.967,223.314 110.383 C 222.684 110.899,222.930 111.158,224.255 111.377 C 225.661 111.610,227.040 113.312,226.085 113.634 C 225.627 113.789,224.360 114.930,224.360 115.188 C 224.360 115.293,224.017 115.648,223.599 115.975 C 223.180 116.303,222.101 117.277,221.200 118.139 C 220.299 119.002,219.147 120.037,218.640 120.439 C 218.133 120.842,217.560 121.430,217.367 121.747 C 217.174 122.064,216.763 122.457,216.454 122.620 C 216.144 122.783,215.182 123.606,214.315 124.449 C 213.448 125.291,212.256 126.426,211.667 126.970 C 211.078 127.515,210.564 128.032,210.526 128.120 C 210.487 128.208,210.065 128.545,209.589 128.868 C 208.946 129.304,208.751 129.560,208.829 129.861 C 209.124 130.987,206.389 129.354,205.833 128.071 C 205.214 126.644,205.112 126.225,205.102 125.072 C 205.093 123.992,205.560 123.015,205.965 123.265 C 206.335 123.494,207.648 122.681,208.243 121.854 C 208.596 121.363,209.366 120.634,209.955 120.234 C 210.543 119.833,211.297 119.109,211.630 118.625 C 211.963 118.141,212.776 117.364,213.436 116.899 C 214.096 116.434,214.864 115.717,215.143 115.306 C 215.421 114.896,216.154 114.224,216.773 113.813 C 217.391 113.403,218.146 112.741,218.449 112.344 C 218.753 111.946,219.477 111.308,220.060 110.927 C 220.642 110.546,221.593 109.778,222.172 109.221 C 222.752 108.663,223.679 107.878,224.233 107.475 C 224.787 107.073,225.536 106.526,225.898 106.260 C 226.259 105.995,227.039 105.313,227.630 104.744 C 228.897 103.528,229.587 103.385,229.587 104.339 C 229.587 104.684,229.681 104.966,229.796 104.966 C 229.911 104.966,230.005 104.838,230.005 104.681 C 230.005 104.524,230.178 104.171,230.388 103.896 C 230.599 103.622,231.076 102.457,231.448 101.307 C 231.820 100.157,232.435 98.604,232.815 97.857 C 233.194 97.109,233.574 96.262,233.658 95.975 C 233.989 94.852,235.527 91.865,236.081 91.270 C 236.402 90.925,236.842 90.173,237.059 89.597 C 237.523 88.366,239.045 85.704,239.502 85.325 C 239.678 85.179,239.876 84.717,239.943 84.297 C 240.059 83.569,240.584 80.928,241.198 77.993 C 241.354 77.245,241.542 76.262,241.615 75.808 C 241.689 75.354,241.883 74.792,242.046 74.559 C 242.209 74.326,242.342 73.878,242.342 73.563 C 242.342 73.248,242.525 72.493,242.748 71.884 C 242.971 71.276,243.216 70.403,243.292 69.942 C 243.758 67.123,244.981 61.431,245.581 59.285 C 245.969 57.902,246.535 55.664,246.839 54.313 C 247.467 51.522,247.841 50.986,248.747 51.579 C 249.157 51.848,249.242 52.081,249.242 52.940 M293.211 67.416 C 294.335 68.116,295.481 68.829,295.757 69.002 C 296.033 69.174,296.948 69.729,297.790 70.236 C 298.632 70.742,300.167 71.696,301.202 72.355 C 302.237 73.014,304.496 74.424,306.221 75.488 C 307.946 76.552,310.533 78.154,311.971 79.050 C 313.408 79.945,316.937 82.136,319.812 83.919 C 322.687 85.702,325.698 87.572,326.503 88.075 C 327.308 88.578,329.641 90.020,331.688 91.280 C 333.735 92.540,335.993 93.953,336.706 94.420 L 338.003 95.269 338.059 100.248 C 338.123 105.903,338.259 105.437,336.176 106.703 C 335.382 107.185,334.512 107.721,334.243 107.893 C 333.974 108.066,333.016 108.659,332.115 109.213 C 331.213 109.766,329.535 110.821,328.385 111.558 C 327.235 112.294,326.080 113.018,325.820 113.166 C 325.271 113.477,320.170 116.677,317.721 118.248 C 316.801 118.838,315.389 119.718,314.584 120.205 C 313.779 120.692,312.180 121.691,311.030 122.425 C 309.880 123.159,308.201 124.212,307.300 124.766 C 306.398 125.319,305.441 125.912,305.172 126.085 C 304.903 126.257,303.806 126.947,302.734 127.618 C 301.661 128.288,299.984 129.340,299.007 129.956 C 298.029 130.571,296.354 131.622,295.285 132.291 C 294.215 132.960,293.115 133.649,292.841 133.821 C 288.879 136.310,289.556 136.431,286.778 132.741 C 284.133 129.228,284.192 129.630,286.148 128.446 C 288.130 127.247,290.029 126.064,291.793 124.928 C 292.943 124.187,294.072 123.486,294.302 123.369 C 294.532 123.253,295.520 122.639,296.498 122.005 C 297.475 121.372,299.151 120.313,300.222 119.653 C 301.293 118.993,302.392 118.312,302.664 118.139 C 302.936 117.967,303.837 117.402,304.665 116.884 C 305.494 116.367,306.386 115.802,306.648 115.630 C 306.910 115.457,307.862 114.864,308.764 114.311 C 309.665 113.758,311.343 112.702,312.493 111.966 C 313.643 111.229,314.794 110.505,315.051 110.358 C 315.490 110.104,317.028 109.144,321.171 106.537 C 322.148 105.922,323.826 104.870,324.898 104.199 C 325.970 103.528,327.069 102.838,327.340 102.666 C 327.611 102.493,328.497 101.948,329.311 101.454 C 331.009 100.423,331.015 100.411,330.108 99.816 C 327.860 98.341,326.871 97.710,326.600 97.580 C 326.432 97.500,325.494 96.921,324.516 96.294 C 323.539 95.667,321.892 94.627,320.857 93.984 C 319.822 93.341,318.176 92.301,317.198 91.674 C 316.221 91.047,314.574 90.011,313.539 89.371 C 312.504 88.731,310.716 87.610,309.566 86.878 C 308.416 86.146,306.628 85.018,305.593 84.370 C 304.558 83.722,302.912 82.687,301.934 82.070 C 300.957 81.453,299.282 80.401,298.212 79.732 C 297.142 79.063,296.043 78.374,295.770 78.202 C 295.497 78.029,294.631 77.491,293.847 77.005 C 288.780 73.866,284.899 71.344,284.736 71.083 C 284.598 70.862,285.036 70.041,286.341 68.076 C 288.879 64.254,288.575 64.478,289.988 65.386 C 290.636 65.803,292.086 66.717,293.211 67.416 M95.503 69.106 C 97.913 72.757,97.917 72.568,95.392 74.110 C 94.275 74.792,92.440 75.921,91.315 76.619 C 90.190 77.317,89.041 78.029,88.763 78.202 C 82.560 82.045,79.114 84.187,75.218 86.621 C 73.237 87.859,71.123 89.176,70.522 89.548 C 69.921 89.920,68.525 90.789,67.421 91.479 C 65.136 92.907,64.967 93.012,61.565 95.108 C 60.193 95.954,58.129 97.247,56.979 97.982 C 55.829 98.716,54.699 99.413,54.469 99.530 C 53.317 100.117,51.536 101.376,51.489 101.638 C 51.458 101.814,52.248 102.444,53.435 103.189 C 54.535 103.879,55.970 104.783,56.625 105.198 C 58.731 106.533,62.589 108.976,63.819 109.753 C 67.295 111.948,68.262 112.560,70.465 113.955 C 71.788 114.792,73.481 115.871,74.229 116.352 C 74.976 116.833,76.180 117.596,76.904 118.048 C 77.628 118.501,78.851 119.279,79.623 119.777 C 80.394 120.276,81.636 121.057,82.384 121.513 C 83.131 121.969,85.342 123.368,87.297 124.623 C 89.252 125.878,91.558 127.336,92.420 127.863 C 97.134 130.746,97.743 131.236,97.333 131.815 C 96.331 133.231,92.978 137.167,92.774 137.167 C 92.632 137.167,92.047 136.859,91.475 136.482 C 90.902 136.106,89.606 135.283,88.593 134.653 C 87.581 134.023,86.528 133.366,86.254 133.194 C 85.980 133.021,84.879 132.340,83.808 131.680 C 82.737 131.020,81.061 129.968,80.084 129.342 C 79.106 128.716,77.224 127.533,75.902 126.713 C 74.579 125.892,72.697 124.716,71.720 124.099 C 70.742 123.482,69.067 122.429,67.998 121.760 C 66.928 121.091,65.828 120.403,65.554 120.230 C 65.280 120.058,64.179 119.372,63.108 118.706 C 62.037 118.041,60.361 116.984,59.383 116.357 C 58.406 115.731,57.418 115.122,57.188 115.003 C 56.958 114.885,55.829 114.183,54.679 113.444 C 53.528 112.705,51.741 111.578,50.706 110.940 C 49.671 110.302,48.024 109.261,47.047 108.627 C 46.069 107.993,45.070 107.388,44.827 107.282 C 44.149 106.986,44.119 106.741,44.119 101.423 L 44.119 96.450 44.903 95.921 C 45.335 95.630,47.710 94.148,50.183 92.628 C 52.656 91.109,54.914 89.712,55.201 89.525 C 55.489 89.338,55.886 89.089,56.083 88.973 C 56.800 88.550,61.425 85.677,63.670 84.261 C 64.935 83.463,66.158 82.713,66.388 82.596 C 66.618 82.478,68.076 81.582,69.629 80.603 C 71.181 79.624,73.534 78.159,74.856 77.348 C 76.179 76.536,78.437 75.135,79.875 74.236 C 82.665 72.489,87.535 69.490,88.299 69.047 C 88.553 68.900,89.702 68.172,90.852 67.430 C 93.477 65.735,93.215 65.640,95.503 69.106 M198.830 67.950 C 201.711 68.777,201.531 69.449,197.332 73.559 C 197.014 73.870,196.191 74.689,195.504 75.379 C 194.816 76.069,194.182 76.698,194.094 76.777 C 193.389 77.414,190.240 80.349,188.709 81.795 C 185.282 85.032,181.220 88.657,181.020 88.657 C 180.911 88.657,180.291 89.207,179.643 89.880 C 178.994 90.554,178.084 91.298,177.620 91.534 C 177.156 91.771,176.649 92.203,176.493 92.494 C 176.337 92.786,175.695 93.383,175.066 93.820 C 174.437 94.258,173.430 95.063,172.827 95.609 C 172.225 96.155,171.623 96.602,171.491 96.602 C 171.358 96.602,171.056 96.795,170.820 97.031 C 170.248 97.604,169.691 97.403,169.054 96.394 C 168.776 95.953,168.464 95.540,168.360 95.476 C 167.298 94.819,167.690 91.536,168.951 90.537 C 169.407 90.176,169.935 89.618,170.125 89.297 C 170.315 88.976,170.716 88.568,171.016 88.389 C 171.797 87.927,172.556 87.210,173.237 86.292 C 173.561 85.854,174.075 85.367,174.378 85.210 C 174.681 85.054,175.548 84.330,176.304 83.602 C 177.061 82.875,178.198 81.856,178.832 81.338 C 180.196 80.224,183.320 77.543,185.246 75.833 C 186.000 75.163,186.947 74.444,187.350 74.235 C 187.752 74.026,188.375 73.490,188.733 73.044 C 189.091 72.598,189.844 72.000,190.406 71.716 C 190.967 71.432,191.898 70.764,192.473 70.231 C 194.501 68.351,197.045 67.438,198.830 67.950 M189.326 71.469 C 189.216 71.561,188.657 72.002,188.082 72.449 C 187.507 72.896,186.707 73.584,186.304 73.979 C 185.902 74.374,185.196 74.932,184.736 75.220 C 184.276 75.507,183.456 76.201,182.913 76.761 C 182.371 77.321,181.477 78.058,180.927 78.399 C 180.377 78.740,179.661 79.357,179.336 79.769 C 179.012 80.181,178.250 80.847,177.645 81.249 C 177.039 81.652,176.235 82.392,175.858 82.894 C 175.482 83.397,174.714 84.106,174.152 84.470 C 173.590 84.834,172.844 85.549,172.494 86.058 C 172.143 86.567,171.602 87.115,171.291 87.276 C 170.980 87.437,170.321 88.013,169.827 88.555 C 168.156 90.391,168.556 88.888,170.263 86.913 C 171.870 85.055,173.818 83.177,176.059 81.328 C 177.151 80.426,178.558 79.212,179.186 78.631 C 179.813 78.050,180.409 77.574,180.511 77.574 C 180.612 77.574,181.275 77.019,181.984 76.341 C 182.692 75.663,183.661 74.906,184.136 74.660 C 184.611 74.414,185.166 74.028,185.371 73.803 C 185.575 73.577,185.868 73.393,186.023 73.393 C 186.178 73.393,186.304 73.275,186.305 73.131 C 186.305 72.987,186.940 72.529,187.716 72.113 C 189.083 71.380,189.746 71.115,189.326 71.469 M226.552 75.691 C 227.460 76.036,227.507 77.298,226.638 77.970 C 226.250 78.270,225.649 78.830,225.303 79.215 C 224.512 80.095,223.688 80.903,221.372 83.069 C 220.361 84.015,218.885 85.400,218.091 86.147 C 217.297 86.895,215.831 88.259,214.833 89.179 C 213.836 90.099,212.337 91.511,211.502 92.316 C 210.668 93.121,209.598 94.062,209.124 94.407 C 208.651 94.752,208.065 95.342,207.823 95.719 C 207.581 96.095,207.086 96.555,206.723 96.740 C 206.360 96.924,205.499 97.653,204.809 98.358 C 204.119 99.064,203.225 99.890,202.823 100.194 C 202.420 100.499,201.762 101.060,201.359 101.441 C 200.957 101.823,199.969 102.678,199.164 103.341 C 198.359 104.005,197.508 104.736,197.274 104.966 C 195.860 106.356,193.336 101.620,194.233 99.260 C 194.339 98.981,195.068 98.303,195.854 97.752 C 196.639 97.202,197.791 96.192,198.412 95.509 C 199.034 94.825,199.897 94.042,200.330 93.769 C 200.763 93.496,201.277 93.010,201.472 92.689 C 201.667 92.369,202.255 91.777,202.778 91.375 C 203.301 90.972,204.254 90.119,204.896 89.479 C 205.538 88.839,206.414 88.104,206.842 87.846 C 207.270 87.587,207.975 86.973,208.410 86.481 C 208.845 85.989,209.624 85.324,210.141 85.003 C 210.659 84.681,211.610 83.937,212.256 83.349 C 212.901 82.760,214.006 81.856,214.710 81.338 C 215.414 80.821,216.669 79.843,217.499 79.167 C 218.329 78.490,219.321 77.805,219.702 77.646 C 220.084 77.486,220.769 77.019,221.224 76.608 C 222.543 75.417,224.805 75.027,226.552 75.691 M216.892 78.557 C 216.637 78.607,215.978 79.121,215.428 79.701 C 214.878 80.280,213.957 81.023,213.381 81.351 C 212.805 81.679,211.958 82.335,211.499 82.808 C 211.040 83.281,210.029 84.092,209.252 84.610 C 208.476 85.128,207.841 85.629,207.841 85.722 C 207.841 85.815,207.148 86.443,206.301 87.117 C 203.898 89.029,200.826 91.742,199.054 93.518 C 198.164 94.409,197.337 95.139,197.215 95.139 C 197.093 95.139,196.588 95.656,196.094 96.289 C 194.845 97.889,194.498 97.817,195.283 96.120 C 195.692 95.238,196.299 94.494,197.210 93.759 C 197.481 93.540,198.016 92.961,198.399 92.472 C 198.782 91.982,199.582 91.257,200.175 90.859 C 200.769 90.461,201.481 89.800,201.757 89.389 C 202.033 88.978,202.841 88.266,203.552 87.806 C 204.264 87.346,205.052 86.691,205.304 86.350 C 205.556 86.009,206.394 85.310,207.167 84.796 C 207.940 84.283,208.910 83.553,209.323 83.175 C 210.172 82.398,212.590 80.711,212.856 80.711 C 213.173 80.711,214.741 79.596,214.746 79.367 C 214.752 79.036,216.005 78.467,216.728 78.468 C 217.170 78.468,217.218 78.494,216.892 78.557 M235.978 89.843 C 235.684 90.283,235.213 90.972,234.932 91.375 C 234.650 91.777,234.415 92.237,234.408 92.395 C 234.402 92.554,234.021 93.401,233.562 94.277 C 233.103 95.153,232.635 96.129,232.521 96.445 C 232.408 96.762,232.159 97.020,231.968 97.020 C 231.482 97.020,231.720 95.049,232.301 94.263 C 232.533 93.949,232.723 93.552,232.723 93.382 C 232.723 93.212,232.825 93.009,232.950 92.932 C 233.074 92.855,233.350 92.403,233.563 91.927 C 233.997 90.955,234.574 90.188,235.651 89.152 C 236.561 88.276,236.753 88.683,235.978 89.843 M228.490 102.927 C 228.443 103.071,228.181 103.221,227.908 103.261 C 227.475 103.324,227.447 103.291,227.689 103.000 C 228.016 102.605,228.614 102.551,228.490 102.927 M228.751 106.012 C 228.751 106.402,228.806 106.458,229.002 106.262 C 229.197 106.067,229.197 105.956,229.002 105.761 C 228.806 105.565,228.751 105.621,228.751 106.012 M225.416 110.327 C 225.674 111.006,225.648 111.033,224.695 111.069 C 223.610 111.110,223.357 110.772,224.059 110.220 C 224.808 109.631,225.162 109.659,225.416 110.327 " stroke="none" fill="#fb9b73" fill-rule="evenodd"></path><path id="path1" d="M248.457 27.323 C 247.140 27.460,247.072 27.638,246.309 32.933 C 246.031 34.857,245.518 37.341,245.271 37.951 C 245.178 38.181,244.993 39.075,244.860 39.937 C 244.727 40.800,244.483 42.247,244.319 43.152 C 244.047 44.650,244.052 44.866,244.373 45.543 C 244.636 46.097,244.661 46.308,244.471 46.372 C 242.814 46.924,243.730 48.376,246.350 49.352 C 247.130 49.642,247.895 50.053,248.050 50.266 C 248.322 50.637,248.368 50.630,249.206 50.101 C 250.211 49.467,250.168 49.566,249.771 48.801 C 249.481 48.243,249.495 48.174,249.991 47.656 C 250.375 47.255,250.573 46.738,250.714 45.768 C 251.027 43.613,251.693 40.557,252.143 39.205 C 252.374 38.515,252.716 37.151,252.904 36.174 C 253.092 35.196,253.372 33.785,253.526 33.037 C 254.340 29.097,254.523 27.780,254.292 27.549 C 254.049 27.306,250.098 27.153,248.457 27.323 M247.822 51.556 C 247.501 51.781,247.252 52.478,246.839 54.313 C 246.535 55.664,245.969 57.902,245.581 59.285 C 244.981 61.431,243.758 67.123,243.292 69.942 C 243.216 70.403,242.971 71.276,242.748 71.884 C 242.525 72.493,242.342 73.248,242.342 73.563 C 242.342 73.878,242.209 74.326,242.046 74.559 C 241.883 74.792,241.689 75.354,241.615 75.808 C 241.542 76.262,241.354 77.245,241.198 77.993 C 240.584 80.928,240.059 83.569,239.943 84.297 C 239.876 84.717,239.678 85.179,239.502 85.325 C 239.045 85.704,237.523 88.366,237.059 89.597 C 236.842 90.173,236.402 90.925,236.081 91.270 C 235.527 91.865,233.989 94.852,233.658 95.975 C 233.574 96.262,233.194 97.109,232.815 97.857 C 232.435 98.604,231.820 100.157,231.448 101.307 C 231.076 102.457,230.599 103.622,230.388 103.896 C 230.178 104.171,230.005 104.524,230.005 104.681 C 230.005 104.838,229.911 104.966,229.796 104.966 C 229.681 104.966,229.587 104.684,229.587 104.339 C 229.587 103.385,228.897 103.528,227.630 104.744 C 227.039 105.313,226.259 105.995,225.898 106.260 C 225.536 106.526,224.787 107.073,224.233 107.475 C 223.679 107.878,222.752 108.663,222.172 109.221 C 221.593 109.778,220.642 110.546,220.060 110.927 C 219.477 111.308,218.753 111.946,218.449 112.344 C 218.146 112.741,217.391 113.403,216.773 113.813 C 216.154 114.224,215.421 114.896,215.143 115.306 C 214.864 115.717,214.096 116.434,213.436 116.899 C 212.776 117.364,211.963 118.141,211.630 118.625 C 211.297 119.109,210.543 119.833,209.955 120.234 C 209.366 120.634,208.596 121.363,208.243 121.854 C 207.648 122.681,206.335 123.494,205.965 123.265 C 205.560 123.015,205.093 123.992,205.102 125.072 C 205.112 126.225,205.214 126.644,205.833 128.071 C 206.389 129.354,209.124 130.987,208.829 129.861 C 208.751 129.560,208.946 129.304,209.589 128.868 C 210.065 128.545,210.487 128.208,210.526 128.120 C 210.564 128.032,211.078 127.515,211.667 126.970 C 212.256 126.426,213.448 125.291,214.315 124.449 C 215.182 123.606,216.144 122.783,216.454 122.620 C 216.763 122.457,217.174 122.064,217.367 121.747 C 217.560 121.430,218.133 120.842,218.640 120.439 C 219.147 120.037,220.299 119.002,221.200 118.139 C 222.101 117.277,223.180 116.303,223.599 115.975 C 224.017 115.648,224.360 115.293,224.360 115.188 C 224.360 114.930,225.627 113.789,226.085 113.634 C 227.040 113.312,225.661 111.610,224.255 111.377 C 222.930 111.158,222.684 110.899,223.314 110.383 C 225.042 108.967,226.510 107.893,226.716 107.893 C 226.847 107.893,227.262 107.594,227.640 107.228 C 228.715 106.186,228.665 106.660,227.524 108.333 C 226.386 110.001,226.358 110.291,227.359 110.076 C 229.187 109.681,230.429 108.590,231.509 106.430 C 231.883 105.682,232.489 104.675,232.855 104.191 C 233.222 103.707,233.637 102.955,233.778 102.518 C 234.114 101.478,235.458 99.170,236.182 98.390 C 236.808 97.715,237.521 96.295,237.528 95.709 C 237.535 95.167,238.798 92.177,239.226 91.688 C 240.269 90.499,241.475 87.722,241.181 87.190 C 240.827 86.550,240.797 85.685,241.118 85.364 C 241.250 85.232,241.479 84.531,241.627 83.806 C 241.775 83.081,242.131 81.830,242.416 81.025 C 242.702 80.220,243.088 78.855,243.274 77.993 C 243.460 77.130,243.792 75.625,244.010 74.647 C 244.229 73.670,244.563 72.164,244.753 71.302 C 244.943 70.439,245.228 69.443,245.386 69.089 C 245.685 68.420,246.384 65.728,247.148 62.311 C 247.392 61.218,247.963 58.896,248.417 57.150 C 249.398 53.376,249.476 52.057,248.747 51.579 C 248.314 51.295,248.198 51.293,247.822 51.556 M288.473 65.001 C 287.397 66.190,284.562 70.804,284.736 71.083 C 284.899 71.344,288.780 73.866,293.847 77.005 C 294.631 77.491,295.497 78.029,295.770 78.202 C 296.043 78.374,297.142 79.063,298.212 79.732 C 299.282 80.401,300.957 81.453,301.934 82.070 C 302.912 82.687,304.558 83.722,305.593 84.370 C 306.628 85.018,308.416 86.146,309.566 86.878 C 310.716 87.610,312.504 88.731,313.539 89.371 C 314.574 90.011,316.221 91.047,317.198 91.674 C 318.176 92.301,319.822 93.341,320.857 93.984 C 321.892 94.627,323.539 95.667,324.516 96.294 C 325.494 96.921,326.432 97.500,326.600 97.580 C 326.871 97.710,327.860 98.341,330.108 99.816 C 331.015 100.411,331.009 100.423,329.311 101.454 C 328.497 101.948,327.611 102.493,327.340 102.666 C 327.069 102.838,325.970 103.528,324.898 104.199 C 323.826 104.870,322.148 105.922,321.171 106.537 C 317.028 109.144,315.490 110.104,315.051 110.358 C 314.794 110.505,313.643 111.229,312.493 111.966 C 311.343 112.702,309.665 113.758,308.764 114.311 C 307.862 114.864,306.910 115.457,306.648 115.630 C 306.386 115.802,305.494 116.367,304.665 116.884 C 303.837 117.402,302.936 117.967,302.664 118.139 C 302.392 118.312,301.293 118.993,300.222 119.653 C 299.151 120.313,297.475 121.372,296.498 122.005 C 295.520 122.639,294.532 123.253,294.302 123.369 C 294.072 123.486,292.943 124.187,291.793 124.928 C 290.029 126.064,288.130 127.247,286.148 128.446 C 284.192 129.630,284.133 129.228,286.778 132.741 C 289.556 136.431,288.879 136.310,292.841 133.821 C 293.115 133.649,294.215 132.960,295.285 132.291 C 296.354 131.622,298.029 130.571,299.007 129.956 C 299.984 129.340,301.661 128.288,302.734 127.618 C 303.806 126.947,304.903 126.257,305.172 126.085 C 305.441 125.912,306.398 125.319,307.300 124.766 C 308.201 124.212,309.880 123.159,311.030 122.425 C 312.180 121.691,313.779 120.692,314.584 120.205 C 315.389 119.718,316.801 118.838,317.721 118.248 C 320.170 116.677,325.271 113.477,325.820 113.166 C 326.080 113.018,327.235 112.294,328.385 111.558 C 329.535 110.821,331.213 109.766,332.115 109.213 C 333.016 108.659,333.974 108.066,334.243 107.893 C 334.512 107.721,335.382 107.185,336.176 106.703 C 338.259 105.437,338.123 105.903,338.059 100.248 L 338.003 95.269 336.706 94.420 C 335.993 93.953,333.735 92.540,331.688 91.280 C 329.641 90.020,327.308 88.578,326.503 88.075 C 325.698 87.572,322.687 85.702,319.812 83.919 C 316.937 82.136,313.408 79.945,311.971 79.050 C 310.533 78.154,307.946 76.552,306.221 75.488 C 304.496 74.424,302.237 73.014,301.202 72.355 C 300.167 71.696,298.632 70.742,297.790 70.236 C 296.948 69.729,296.033 69.174,295.757 69.002 C 295.481 68.829,294.335 68.116,293.211 67.416 C 292.086 66.717,290.636 65.803,289.988 65.386 C 288.867 64.666,288.793 64.647,288.473 65.001 M90.852 67.430 C 89.702 68.172,88.553 68.900,88.299 69.047 C 87.535 69.490,82.665 72.489,79.875 74.236 C 78.437 75.135,76.179 76.536,74.856 77.348 C 73.534 78.159,71.181 79.624,69.629 80.603 C 68.076 81.582,66.618 82.478,66.388 82.596 C 66.158 82.713,64.935 83.463,63.670 84.261 C 61.425 85.677,56.800 88.550,56.083 88.973 C 55.886 89.089,55.489 89.338,55.201 89.525 C 54.914 89.712,52.656 91.109,50.183 92.628 C 47.710 94.148,45.335 95.630,44.903 95.921 L 44.119 96.450 44.119 101.423 C 44.119 106.741,44.149 106.986,44.827 107.282 C 45.070 107.388,46.069 107.993,47.047 108.627 C 48.024 109.261,49.671 110.302,50.706 110.940 C 51.741 111.578,53.528 112.705,54.679 113.444 C 55.829 114.183,56.958 114.885,57.188 115.003 C 57.418 115.122,58.406 115.731,59.383 116.357 C 60.361 116.984,62.037 118.041,63.108 118.706 C 64.179 119.372,65.280 120.058,65.554 120.230 C 65.828 120.403,66.928 121.091,67.998 121.760 C 69.067 122.429,70.742 123.482,71.720 124.099 C 72.697 124.716,74.579 125.892,75.902 126.713 C 77.224 127.533,79.106 128.716,80.084 129.342 C 81.061 129.968,82.737 131.020,83.808 131.680 C 84.879 132.340,85.980 133.021,86.254 133.194 C 86.528 133.366,87.581 134.023,88.593 134.653 C 89.606 135.283,90.902 136.106,91.475 136.482 C 92.047 136.859,92.632 137.167,92.774 137.167 C 92.978 137.167,96.331 133.231,97.333 131.815 C 97.743 131.236,97.134 130.746,92.420 127.863 C 91.558 127.336,89.252 125.878,87.297 124.623 C 85.342 123.368,83.131 121.969,82.384 121.513 C 81.636 121.057,80.394 120.276,79.623 119.777 C 78.851 119.279,77.628 118.501,76.904 118.048 C 76.180 117.596,74.976 116.833,74.229 116.352 C 73.481 115.871,71.788 114.792,70.465 113.955 C 68.262 112.560,67.295 111.948,63.819 109.753 C 62.589 108.976,58.731 106.533,56.625 105.198 C 55.970 104.783,54.535 103.879,53.435 103.189 C 52.248 102.444,51.458 101.814,51.489 101.638 C 51.536 101.376,53.317 100.117,54.469 99.530 C 54.699 99.413,55.829 98.716,56.979 97.982 C 58.129 97.247,60.193 95.954,61.565 95.108 C 64.967 93.012,65.136 92.907,67.421 91.479 C 68.525 90.789,69.921 89.920,70.522 89.548 C 71.123 89.176,73.237 87.859,75.218 86.621 C 79.114 84.187,82.560 82.045,88.763 78.202 C 89.041 78.029,90.190 77.317,91.315 76.619 C 92.440 75.921,94.275 74.792,95.392 74.110 C 97.917 72.568,97.913 72.757,95.503 69.106 C 93.215 65.640,93.477 65.735,90.852 67.430 M196.550 67.944 C 195.389 68.180,193.608 69.179,192.473 70.231 C 191.898 70.764,190.967 71.432,190.406 71.716 C 189.844 72.000,189.091 72.598,188.733 73.044 C 188.375 73.490,187.752 74.026,187.350 74.235 C 186.947 74.444,186.000 75.163,185.246 75.833 C 183.320 77.543,180.196 80.224,178.832 81.338 C 178.198 81.856,177.061 82.875,176.304 83.602 C 175.548 84.330,174.681 85.054,174.378 85.210 C 174.075 85.367,173.561 85.854,173.237 86.292 C 172.556 87.210,171.797 87.927,171.016 88.389 C 170.716 88.568,170.315 88.976,170.125 89.297 C 169.935 89.618,169.407 90.176,168.951 90.537 C 167.690 91.536,167.298 94.819,168.360 95.476 C 168.464 95.540,168.776 95.953,169.054 96.394 C 169.691 97.403,170.248 97.604,170.820 97.031 C 171.056 96.795,171.358 96.602,171.491 96.602 C 171.623 96.602,172.225 96.155,172.827 95.609 C 173.430 95.063,174.437 94.258,175.066 93.820 C 175.695 93.383,176.337 92.786,176.493 92.494 C 176.649 92.203,177.156 91.771,177.620 91.534 C 178.084 91.298,178.994 90.554,179.643 89.880 C 180.291 89.207,180.911 88.657,181.020 88.657 C 181.220 88.657,185.282 85.032,188.709 81.795 C 190.240 80.349,193.389 77.414,194.094 76.777 C 194.182 76.698,194.816 76.069,195.504 75.379 C 196.191 74.689,197.014 73.870,197.332 73.559 C 201.071 69.899,201.367 69.398,200.239 68.630 C 199.043 67.816,198.070 67.635,196.550 67.944 M223.049 75.576 C 222.497 75.733,221.681 76.195,221.224 76.608 C 220.769 77.019,220.084 77.486,219.702 77.646 C 219.321 77.805,218.329 78.490,217.499 79.167 C 216.669 79.843,215.414 80.821,214.710 81.338 C 214.006 81.856,212.901 82.760,212.256 83.349 C 211.610 83.937,210.659 84.681,210.141 85.003 C 209.624 85.324,208.845 85.989,208.410 86.481 C 207.975 86.973,207.270 87.587,206.842 87.846 C 206.414 88.104,205.538 88.839,204.896 89.479 C 204.254 90.119,203.301 90.972,202.778 91.375 C 202.255 91.777,201.667 92.369,201.472 92.689 C 201.277 93.010,200.763 93.496,200.330 93.769 C 199.897 94.042,199.034 94.825,198.412 95.509 C 197.791 96.192,196.639 97.202,195.854 97.752 C 195.068 98.303,194.339 98.981,194.233 99.260 C 193.336 101.620,195.860 106.356,197.274 104.966 C 197.508 104.736,198.359 104.005,199.164 103.341 C 199.969 102.678,200.957 101.823,201.359 101.441 C 201.762 101.060,202.420 100.499,202.823 100.194 C 203.225 99.890,204.119 99.064,204.809 98.358 C 205.499 97.653,206.360 96.924,206.723 96.740 C 207.086 96.555,207.581 96.095,207.823 95.719 C 208.065 95.342,208.651 94.752,209.124 94.407 C 209.598 94.062,210.668 93.121,211.502 92.316 C 212.337 91.511,213.836 90.099,214.833 89.179 C 215.831 88.259,217.297 86.895,218.091 86.147 C 218.885 85.400,220.361 84.015,221.372 83.069 C 223.688 80.903,224.512 80.095,225.303 79.215 C 225.649 78.830,226.250 78.270,226.638 77.970 C 228.599 76.455,226.013 74.731,223.049 75.576 M229.002 106.262 C 228.806 106.458,228.751 106.402,228.751 106.012 C 228.751 105.621,228.806 105.565,229.002 105.761 C 229.197 105.956,229.197 106.067,229.002 106.262 " stroke="none" fill="#fad1ec" fill-rule="evenodd"></path><path id="path2" d="M169.949 86.043 C 169.481 86.686,168.864 87.184,168.008 87.611 C 166.513 88.358,166.255 88.556,165.643 89.428 C 165.385 89.795,164.983 90.156,164.749 90.231 C 164.391 90.344,163.140 91.309,160.887 93.208 C 160.651 93.407,160.047 93.900,159.547 94.302 C 159.046 94.705,157.884 95.718,156.964 96.554 C 156.044 97.391,155.094 98.127,154.854 98.191 C 154.614 98.255,154.060 98.767,153.624 99.328 C 153.188 99.890,152.376 100.597,151.820 100.900 C 151.264 101.202,150.539 101.818,150.209 102.268 C 149.878 102.718,149.185 103.334,148.667 103.636 C 148.150 103.938,147.303 104.629,146.785 105.172 C 146.268 105.715,145.420 106.444,144.902 106.792 C 144.384 107.140,143.577 107.789,143.109 108.234 C 142.641 108.679,141.620 109.561,140.841 110.193 C 140.062 110.826,138.904 111.814,138.270 112.389 C 137.635 112.964,136.639 113.766,136.057 114.171 C 134.709 115.109,134.330 117.298,135.451 117.672 C 135.716 117.760,137.540 115.978,138.285 114.904 C 138.498 114.597,138.837 114.283,139.039 114.204 C 139.431 114.052,141.140 112.163,141.140 111.881 C 141.140 111.789,141.519 111.461,141.984 111.154 C 143.198 110.350,143.772 109.817,144.403 108.906 C 144.710 108.464,145.089 108.102,145.247 108.102 C 145.404 108.102,146.215 107.433,147.048 106.615 C 147.881 105.796,149.032 104.738,149.605 104.262 C 150.178 103.787,151.061 103.010,151.567 102.537 C 152.072 102.063,152.642 101.546,152.834 101.387 C 154.065 100.365,155.622 99.001,156.603 98.085 C 157.231 97.499,157.821 97.020,157.914 97.020 C 158.008 97.020,158.780 96.319,159.629 95.461 C 160.478 94.604,161.403 93.844,161.684 93.774 C 161.964 93.703,162.552 93.217,162.990 92.694 C 163.493 92.092,164.193 91.561,164.894 91.251 C 165.504 90.982,166.159 90.523,166.349 90.233 C 166.734 89.646,167.067 89.708,167.067 90.367 C 167.067 90.727,167.120 90.755,167.381 90.538 C 167.784 90.204,167.777 89.931,167.356 89.465 C 166.868 88.926,167.139 88.405,167.865 88.486 C 168.489 88.556,170.204 86.909,170.204 86.239 C 170.204 86.074,170.295 85.938,170.406 85.938 C 170.517 85.938,170.708 85.750,170.831 85.520 C 171.257 84.724,170.647 85.086,169.949 86.043 M195.295 87.183 C 195.295 87.293,194.862 87.714,194.332 88.118 C 193.803 88.523,193.108 89.256,192.788 89.748 C 192.469 90.240,191.855 90.925,191.423 91.270 C 190.992 91.615,190.073 92.444,189.381 93.111 C 188.689 93.778,187.831 94.471,187.475 94.649 C 187.118 94.828,186.404 95.375,185.886 95.865 C 185.369 96.355,183.581 97.498,181.913 98.404 L 178.881 100.052 176.268 100.032 C 174.261 100.017,173.508 99.932,173.027 99.668 C 172.682 99.478,172.266 99.322,172.104 99.322 C 171.733 99.320,170.044 98.358,169.420 97.792 C 169.038 97.446,168.949 97.427,168.949 97.690 C 168.949 97.869,169.090 98.132,169.263 98.275 C 169.435 98.418,169.577 98.654,169.577 98.799 C 169.577 99.121,171.149 100.572,171.511 100.584 C 171.836 100.595,172.758 102.006,172.604 102.256 C 172.541 102.356,172.361 102.389,172.202 102.328 C 172.033 102.263,171.858 102.396,171.777 102.651 C 171.701 102.889,171.506 103.084,171.343 103.084 C 171.179 103.084,170.911 103.406,170.747 103.800 C 170.582 104.193,170.205 104.675,169.908 104.869 C 169.609 105.065,169.366 105.423,169.364 105.670 C 169.360 106.100,168.558 107.051,168.188 107.063 C 167.900 107.072,166.980 108.117,166.214 109.305 C 165.776 109.984,165.357 110.403,165.116 110.403 C 164.659 110.403,163.304 111.688,163.304 112.121 C 163.304 112.704,162.277 113.367,161.604 113.219 C 161.023 113.092,160.986 113.121,161.045 113.654 C 161.110 114.245,159.976 115.168,159.526 114.889 C 159.419 114.823,159.331 115.038,159.331 115.367 C 159.331 116.175,158.983 116.466,158.020 116.466 C 157.334 116.466,157.230 116.524,157.332 116.846 C 157.519 117.435,156.506 118.304,156.001 117.988 C 155.559 117.712,154.731 118.399,154.731 119.041 C 154.731 119.235,154.611 119.394,154.464 119.394 C 154.317 119.394,153.965 119.556,153.682 119.754 C 153.399 119.953,152.974 120.090,152.739 120.059 C 152.496 120.027,152.096 120.233,151.812 120.535 C 151.537 120.827,151.219 121.066,151.105 121.066 C 150.747 121.066,149.294 121.767,149.294 121.939 C 149.294 122.030,148.837 122.336,148.279 122.620 C 147.720 122.903,146.966 123.384,146.603 123.690 C 146.227 124.005,145.805 124.193,145.624 124.123 C 145.419 124.044,144.848 124.444,144.012 125.252 C 142.985 126.245,142.581 126.503,142.056 126.503 C 141.660 126.503,141.345 126.629,141.273 126.817 C 141.207 126.989,140.976 127.130,140.760 127.130 C 140.545 127.130,140.195 127.322,139.983 127.556 C 139.771 127.790,139.481 127.937,139.338 127.882 C 139.041 127.768,138.565 128.249,138.771 128.455 C 138.846 128.530,138.617 128.693,138.263 128.817 C 137.908 128.940,137.567 129.176,137.504 129.340 C 137.441 129.505,137.221 129.642,137.016 129.646 C 135.224 129.680,134.752 133.025,134.908 144.590 C 134.989 150.555,135.104 151.385,135.844 151.385 C 136.132 151.385,136.958 150.294,136.958 149.912 C 136.958 149.770,137.946 148.668,139.153 147.464 C 140.361 146.259,141.349 145.183,141.349 145.072 C 141.349 144.840,142.728 143.477,143.440 143.004 C 143.704 142.828,143.876 142.552,143.821 142.389 C 143.746 142.163,143.630 142.202,143.326 142.558 C 143.107 142.813,142.761 143.021,142.557 143.021 C 142.352 143.021,142.185 143.109,142.185 143.216 C 142.185 143.323,141.973 143.441,141.715 143.477 C 141.428 143.518,141.254 143.680,141.270 143.893 C 141.301 144.297,140.581 144.556,140.371 144.216 C 140.293 144.090,140.345 143.948,140.487 143.901 C 140.629 143.854,140.904 143.653,141.099 143.455 C 141.294 143.257,141.830 142.871,142.290 142.599 C 142.750 142.326,143.193 142.004,143.275 141.882 C 143.826 141.067,144.027 140.815,144.553 140.278 C 144.879 139.947,145.212 139.676,145.294 139.676 C 145.534 139.676,147.412 137.914,147.414 137.687 C 147.415 137.573,147.978 137.118,148.665 136.675 C 149.875 135.896,151.176 134.635,151.176 134.242 C 151.176 134.136,151.484 133.904,151.860 133.725 C 152.236 133.547,153.134 132.839,153.856 132.153 C 154.577 131.466,155.293 130.831,155.447 130.742 C 155.601 130.653,156.861 129.513,158.247 128.208 C 159.633 126.904,161.032 125.630,161.356 125.377 C 161.680 125.125,162.462 124.429,163.095 123.830 C 163.727 123.232,164.340 122.741,164.456 122.740 C 164.572 122.740,164.902 122.440,165.188 122.074 C 165.962 121.084,167.553 119.603,167.842 119.603 C 167.982 119.603,168.593 119.081,169.202 118.444 C 169.811 117.806,170.686 117.062,171.147 116.791 C 171.608 116.520,172.292 115.872,172.667 115.350 C 173.053 114.812,173.877 114.079,174.570 113.658 C 175.243 113.250,176.011 112.598,176.277 112.209 C 176.543 111.821,177.091 111.326,177.494 111.109 C 177.897 110.893,178.768 110.163,179.431 109.487 C 180.093 108.811,180.960 108.058,181.359 107.814 C 182.142 107.335,183.324 106.376,184.702 105.104 C 185.181 104.662,186.137 103.864,186.827 103.331 C 187.517 102.798,188.381 102.078,188.747 101.730 C 189.971 100.567,190.274 100.366,190.800 100.366 C 191.087 100.366,191.323 100.260,191.323 100.131 C 191.323 99.969,191.419 99.977,191.636 100.157 C 191.809 100.300,191.950 100.508,191.950 100.620 C 191.950 100.731,192.138 101.062,192.368 101.354 C 192.598 101.647,192.786 102.149,192.786 102.470 C 192.786 102.791,192.951 103.220,193.152 103.422 C 193.671 103.945,193.773 102.977,193.338 101.649 C 192.837 100.117,193.185 98.193,194.195 96.916 C 195.935 94.712,196.575 93.664,196.439 93.236 C 196.301 92.803,196.286 92.807,195.919 93.367 C 195.469 94.053,194.461 94.911,194.093 94.922 C 193.710 94.933,193.764 94.780,194.448 93.924 C 194.788 93.499,195.157 92.741,195.268 92.238 C 195.487 91.255,195.923 90.591,195.923 91.241 C 195.923 91.452,196.019 91.549,196.150 91.468 C 196.557 91.217,195.922 86.984,195.477 86.984 C 195.377 86.984,195.295 87.074,195.295 87.183 M166.246 91.741 C 166.280 92.598,166.619 92.963,166.635 92.159 C 166.643 91.728,166.555 91.375,166.440 91.375 C 166.325 91.375,166.238 91.539,166.246 91.741 M220.914 95.372 C 220.572 95.830,219.747 96.678,219.081 97.257 C 218.415 97.836,217.731 98.580,217.560 98.910 C 217.389 99.240,216.850 99.786,216.361 100.123 C 215.873 100.460,214.900 101.288,214.199 101.963 C 213.498 102.637,212.391 103.565,211.737 104.025 C 211.084 104.485,210.042 105.242,209.423 105.707 C 205.837 108.401,202.531 108.836,198.352 107.164 C 197.630 106.875,196.939 106.639,196.816 106.639 C 196.537 106.639,194.459 104.263,194.459 103.944 C 194.459 103.816,194.318 103.711,194.145 103.711 C 193.761 103.711,193.735 104.210,194.101 104.585 C 194.250 104.737,194.568 105.244,194.810 105.712 C 195.051 106.179,195.533 106.873,195.881 107.254 C 197.839 109.398,197.084 112.208,193.566 115.870 C 192.533 116.945,191.593 118.094,191.477 118.423 C 191.343 118.802,191.006 119.129,190.553 119.318 C 190.161 119.482,189.781 119.778,189.709 119.975 C 189.636 120.173,189.358 120.542,189.090 120.795 C 188.823 121.048,188.604 121.401,188.604 121.579 C 188.604 121.757,188.510 121.903,188.395 121.903 C 188.280 121.903,188.186 122.039,188.186 122.207 C 188.186 122.374,187.880 122.657,187.507 122.836 C 186.655 123.244,185.050 124.762,185.050 125.159 C 185.050 125.323,184.909 125.457,184.737 125.457 C 184.565 125.457,183.577 126.304,182.541 127.339 C 181.505 128.374,180.519 129.221,180.350 129.221 C 180.182 129.221,179.835 129.503,179.580 129.848 C 179.313 130.209,178.924 130.476,178.664 130.476 C 178.415 130.476,177.608 130.933,176.870 131.492 C 176.131 132.051,175.294 132.580,175.009 132.667 C 174.192 132.919,172.504 134.072,172.504 134.379 C 172.504 134.548,172.261 134.658,171.884 134.658 C 171.478 134.658,171.187 134.802,171.040 135.076 C 170.917 135.306,170.679 135.494,170.510 135.494 C 170.342 135.494,170.204 135.581,170.204 135.687 C 170.204 135.793,169.851 135.993,169.420 136.132 C 168.988 136.271,168.505 136.490,168.346 136.619 C 168.186 136.748,167.669 137.009,167.196 137.199 C 166.612 137.433,166.347 137.663,166.370 137.911 C 166.423 138.475,165.920 138.840,165.089 138.840 C 164.527 138.840,164.179 138.999,163.722 139.467 C 163.385 139.812,162.976 140.094,162.814 140.094 C 162.651 140.094,162.401 140.235,162.258 140.408 C 162.115 140.580,161.918 140.721,161.821 140.721 C 161.724 140.721,161.323 141.044,160.929 141.437 C 160.205 142.161,158.742 143.021,158.235 143.021 C 158.084 143.021,157.445 143.524,156.816 144.137 C 156.171 144.767,154.988 145.601,154.104 146.050 C 153.241 146.489,152.296 146.972,152.005 147.123 C 151.713 147.275,151.265 147.681,151.010 148.026 C 150.743 148.388,150.424 148.606,150.256 148.541 C 150.096 148.480,149.838 148.612,149.682 148.834 C 149.526 149.056,149.044 149.428,148.609 149.661 C 148.175 149.893,147.477 150.447,147.058 150.891 C 146.635 151.340,146.071 151.717,145.787 151.740 C 145.507 151.763,145.076 151.931,144.829 152.113 C 144.582 152.295,144.072 152.640,143.696 152.879 C 143.319 153.119,142.911 153.501,142.789 153.729 C 142.646 153.997,142.426 154.106,142.167 154.038 C 141.934 153.977,141.690 154.068,141.586 154.255 C 141.409 154.571,139.297 155.086,137.794 155.179 C 135.586 155.316,142.957 155.550,153.713 155.683 L 165.973 155.836 167.088 154.750 C 167.700 154.154,168.898 153.129,169.749 152.473 C 170.599 151.817,171.795 150.793,172.404 150.196 C 173.014 149.600,173.893 148.918,174.357 148.682 C 174.821 148.445,175.370 148.008,175.577 147.710 C 176.123 146.925,176.952 146.187,177.793 145.736 C 178.511 145.351,179.613 144.380,179.613 144.133 C 179.613 143.962,180.300 143.454,180.541 143.446 C 180.649 143.443,180.484 143.704,180.175 144.026 C 179.866 144.349,179.613 144.701,179.613 144.810 C 179.613 145.044,178.476 145.977,177.731 146.354 C 177.184 146.632,176.059 147.771,176.059 148.048 C 176.059 148.136,175.518 148.561,174.856 148.991 C 174.195 149.422,173.231 150.216,172.713 150.755 C 172.196 151.294,171.443 151.954,171.040 152.221 C 170.072 152.862,168.740 154.131,168.740 154.412 C 168.740 154.535,168.411 154.813,168.008 155.030 C 166.997 155.575,167.092 155.776,168.360 155.776 C 170.723 155.776,173.131 155.337,173.131 154.905 C 173.131 154.279,173.666 153.615,175.013 152.569 C 175.698 152.037,176.473 151.271,176.734 150.867 C 176.995 150.463,177.397 150.074,177.627 150.002 C 178.013 149.881,178.670 149.279,182.848 145.217 C 183.676 144.412,184.910 143.266,185.590 142.671 C 186.270 142.076,187.598 140.853,188.540 139.953 C 196.670 132.186,199.430 129.719,200.462 129.294 C 200.784 129.161,201.357 128.667,201.736 128.196 C 202.576 127.150,203.911 126.949,204.301 127.810 C 204.719 128.735,205.041 129.180,205.646 129.667 C 205.984 129.939,206.780 130.688,207.416 131.331 C 208.703 132.632,209.698 133.286,210.716 133.502 C 211.090 133.581,211.396 133.732,211.396 133.838 C 211.396 133.944,212.064 134.030,212.882 134.030 C 213.990 134.030,214.340 134.097,214.257 134.292 C 213.827 135.307,213.556 135.690,213.330 135.605 C 213.018 135.488,212.970 136.245,213.278 136.435 C 213.393 136.506,213.487 136.788,213.487 137.062 C 213.487 137.336,213.393 137.618,213.278 137.689 C 213.163 137.761,213.068 138.030,213.068 138.287 C 213.068 138.545,212.988 138.845,212.889 138.955 C 212.790 139.064,212.602 139.708,212.472 140.385 C 212.227 141.657,211.904 142.265,211.581 142.066 C 211.479 142.003,211.394 142.310,211.393 142.748 C 211.386 144.277,210.814 145.560,209.361 147.297 C 208.982 147.751,208.569 148.503,208.444 148.970 C 208.318 149.436,208.122 149.875,208.008 149.947 C 207.893 150.018,207.735 150.395,207.656 150.783 C 207.545 151.327,207.335 151.573,206.744 151.853 C 206.322 152.053,205.871 152.414,205.743 152.654 C 204.985 154.070,204.023 154.889,202.901 155.075 L 201.882 155.244 203.555 155.385 C 206.573 155.638,212.988 155.842,213.545 155.702 C 213.873 155.620,214.475 155.067,215.049 154.320 C 215.576 153.635,216.291 152.907,216.638 152.702 C 216.985 152.497,217.605 151.842,218.016 151.246 C 218.426 150.650,219.133 149.864,219.586 149.500 C 220.039 149.136,220.869 148.211,221.430 147.446 C 221.992 146.680,222.723 145.875,223.055 145.658 C 223.388 145.440,223.907 144.829,224.208 144.299 C 224.510 143.769,225.183 142.865,225.705 142.290 C 226.678 141.217,228.542 138.267,228.542 137.800 C 228.542 137.656,228.912 137.096,229.364 136.556 C 229.816 136.016,230.253 135.297,230.336 134.959 C 230.418 134.621,230.753 133.770,231.081 133.069 C 231.410 132.368,231.678 131.636,231.678 131.442 C 231.678 131.248,231.913 130.625,232.201 130.058 C 232.488 129.490,232.723 128.846,232.723 128.626 C 232.723 128.407,232.872 127.872,233.053 127.439 C 233.636 126.042,233.075 121.784,232.145 120.551 C 231.775 120.060,231.023 120.567,230.405 121.723 C 230.243 122.027,229.616 122.665,229.011 123.140 C 228.407 123.615,227.661 124.385,227.353 124.850 C 227.045 125.316,226.448 125.873,226.026 126.088 C 225.604 126.303,224.823 126.903,224.290 127.420 C 223.192 128.488,220.995 129.831,219.446 130.383 C 218.871 130.587,218.212 130.912,217.982 131.105 C 215.963 132.797,209.168 132.841,208.438 131.167 C 208.329 130.918,207.058 130.058,206.798 130.058 C 206.674 130.058,206.519 129.916,206.453 129.744 C 206.387 129.571,206.202 129.430,206.041 129.430 C 205.881 129.430,205.750 129.302,205.750 129.145 C 205.750 128.988,205.562 128.620,205.332 128.328 C 205.102 128.035,204.914 127.620,204.914 127.405 C 204.914 127.190,204.771 126.811,204.597 126.562 C 204.283 126.114,204.411 123.746,204.825 122.361 C 204.939 121.978,204.876 121.854,204.523 121.761 C 204.107 121.653,203.874 121.066,204.247 121.066 C 204.340 121.066,204.834 120.433,205.344 119.659 C 205.855 118.884,206.816 117.739,207.480 117.114 C 208.144 116.489,208.868 115.684,209.090 115.325 C 209.312 114.967,209.857 114.469,210.301 114.219 C 210.746 113.969,211.584 113.267,212.164 112.659 C 212.743 112.050,214.007 111.009,214.973 110.344 C 215.938 109.679,217.040 108.861,217.422 108.526 C 217.804 108.191,218.812 107.465,219.663 106.912 C 220.514 106.359,221.213 105.784,221.217 105.635 C 221.220 105.485,221.403 105.015,221.622 104.589 C 222.962 101.991,223.237 98.912,222.357 96.377 C 221.667 94.392,221.654 94.382,220.914 95.372 M203.315 122.431 C 203.247 122.606,202.686 123.241,202.068 123.842 C 201.450 124.443,200.943 125.055,200.942 125.201 C 200.942 125.348,200.729 125.549,200.470 125.648 C 200.212 125.747,199.813 126.035,199.584 126.289 C 199.114 126.811,198.290 127.319,198.522 126.944 C 198.771 126.541,203.131 122.125,203.287 122.118 C 203.369 122.115,203.382 122.255,203.315 122.431 M193.698 132.044 C 193.632 132.216,193.495 132.358,193.394 132.358 C 193.293 132.358,192.882 132.710,192.481 133.142 C 192.063 133.592,191.750 133.798,191.746 133.625 C 191.741 133.337,193.357 131.748,193.668 131.736 C 193.751 131.733,193.764 131.871,193.698 132.044 M215.578 133.588 C 215.578 133.829,214.771 134.039,214.643 133.831 C 214.588 133.743,214.604 133.610,214.677 133.537 C 214.878 133.336,215.578 133.376,215.578 133.588 M191.532 134.018 C 191.532 134.265,191.124 134.529,190.974 134.379 C 190.824 134.229,191.088 133.821,191.335 133.821 C 191.443 133.821,191.532 133.910,191.532 134.018 M190.299 135.347 C 190.030 135.615,189.758 135.408,189.957 135.086 C 190.034 134.962,190.193 134.919,190.310 134.991 C 190.453 135.080,190.449 135.197,190.299 135.347 M189.117 136.341 C 188.781 136.691,188.473 136.878,188.432 136.755 C 188.391 136.632,188.578 136.349,188.847 136.125 C 189.612 135.487,189.795 135.633,189.117 136.341 M186.037 139.205 C 185.854 139.407,185.393 139.750,185.011 139.968 L 184.318 140.364 185.038 139.602 C 185.774 138.823,186.727 138.445,186.037 139.205 M183.168 141.472 C 183.168 141.724,181.608 143.231,181.347 143.231 C 180.874 143.231,181.061 142.934,181.918 142.328 C 182.375 142.005,182.750 141.652,182.750 141.544 C 182.750 141.437,182.844 141.349,182.959 141.349 C 183.074 141.349,183.168 141.404,183.168 141.472 M135.546 155.293 C 135.748 155.346,136.077 155.346,136.278 155.293 C 136.479 155.241,136.315 155.197,135.912 155.197 C 135.510 155.197,135.345 155.241,135.546 155.293 " stroke="none" fill="#f6ae10" fill-rule="evenodd"></path><path id="path3" d="M260.324 27.404 C 257.250 27.565,257.105 27.655,256.666 29.680 C 256.478 30.549,256.180 31.871,256.002 32.619 C 255.825 33.366,255.602 34.419,255.507 34.957 C 255.413 35.496,255.217 36.155,255.072 36.421 C 254.927 36.687,254.696 37.470,254.559 38.160 C 254.422 38.850,254.208 39.838,254.085 40.355 C 253.879 41.221,253.584 42.654,253.015 45.547 C 252.895 46.159,252.797 46.937,252.797 47.275 C 252.797 47.772,252.656 47.957,252.065 48.239 C 251.207 48.648,251.170 48.830,251.803 49.514 C 252.255 50.003,252.258 50.032,251.885 50.260 C 250.638 51.020,250.451 51.274,250.570 52.045 C 250.783 53.426,249.877 58.349,248.834 61.474 C 248.508 62.452,248.097 63.910,247.921 64.715 C 247.049 68.700,246.648 70.460,246.374 71.511 C 246.209 72.143,246.000 72.990,245.909 73.393 C 245.819 73.795,245.595 74.501,245.411 74.961 C 245.100 75.737,244.442 78.327,243.393 82.906 C 243.156 83.941,242.718 85.243,242.420 85.799 L 241.879 86.809 242.424 87.379 C 243.274 88.265,243.201 89.756,242.248 91.004 C 241.783 91.613,241.417 92.423,241.218 93.282 C 241.047 94.016,240.761 94.898,240.581 95.243 C 240.401 95.588,240.250 96.059,240.245 96.289 C 240.241 96.519,239.958 97.083,239.616 97.543 C 239.275 98.003,238.754 98.897,238.459 99.530 C 238.164 100.162,237.800 100.915,237.650 101.202 C 237.500 101.490,237.260 102.090,237.116 102.536 C 236.972 102.983,236.550 103.688,236.178 104.105 C 235.806 104.521,235.257 105.254,234.957 105.733 C 234.351 106.702,233.312 107.563,232.514 107.755 C 232.227 107.825,231.537 108.308,230.981 108.828 C 230.425 109.349,229.860 109.778,229.726 109.781 C 229.592 109.784,228.889 110.053,228.164 110.378 L 226.845 110.969 228.446 111.227 L 230.048 111.485 229.504 112.053 C 228.922 112.660,228.822 113.108,229.186 113.473 C 229.531 113.817,227.371 116.670,226.089 117.564 C 225.718 117.823,225.303 118.301,225.168 118.626 C 225.033 118.951,224.702 119.362,224.432 119.538 C 224.162 119.715,223.941 119.969,223.941 120.102 C 223.941 120.235,223.636 120.511,223.262 120.716 C 222.888 120.920,222.361 121.444,222.090 121.881 C 221.819 122.318,221.306 122.901,220.949 123.178 C 220.592 123.454,219.434 124.527,218.376 125.562 C 217.318 126.597,216.232 127.637,215.962 127.873 C 215.693 128.109,215.037 128.768,214.503 129.337 C 213.970 129.906,213.193 130.664,212.778 131.021 C 211.859 131.813,211.840 132.022,212.656 132.360 C 213.740 132.809,216.812 132.085,217.982 131.105 C 218.212 130.912,218.871 130.587,219.446 130.383 C 220.995 129.831,223.192 128.488,224.290 127.420 C 224.823 126.903,225.604 126.303,226.026 126.088 C 226.448 125.873,227.045 125.316,227.353 124.850 C 227.661 124.385,228.407 123.615,229.011 123.140 C 229.616 122.665,230.239 122.035,230.396 121.741 C 230.554 121.446,231.144 120.744,231.709 120.179 C 232.274 119.614,233.165 118.501,233.689 117.706 C 234.213 116.910,234.728 116.206,234.833 116.141 C 234.938 116.077,235.024 115.841,235.024 115.618 C 235.024 115.394,235.188 115.044,235.389 114.839 C 236.008 114.209,236.830 113.038,236.963 112.598 C 237.033 112.368,237.335 111.521,237.636 110.716 C 238.022 109.681,238.218 108.660,238.305 107.229 L 238.428 105.206 239.442 104.249 C 239.999 103.723,240.703 102.893,241.005 102.404 C 241.308 101.916,241.958 101.140,242.450 100.680 C 243.761 99.454,244.617 97.082,245.355 92.629 C 245.422 92.227,245.329 91.051,245.149 90.016 C 244.516 86.372,244.518 86.309,245.243 85.515 C 245.953 84.738,246.524 83.669,246.524 83.116 C 246.524 82.922,246.702 82.136,246.920 81.371 C 247.138 80.605,247.477 79.226,247.675 78.306 C 247.872 77.386,248.175 76.304,248.347 75.902 C 248.878 74.662,249.773 71.545,250.478 68.479 C 250.848 66.869,251.316 65.081,251.519 64.506 C 251.722 63.931,252.055 62.990,252.258 62.415 C 252.462 61.840,252.751 60.852,252.900 60.220 C 253.444 57.910,253.684 56.949,254.073 55.515 C 254.292 54.710,254.470 53.868,254.470 53.644 C 254.470 53.420,254.717 52.879,255.021 52.442 L 255.572 51.647 257.910 51.647 C 260.316 51.647,262.530 51.354,262.990 50.974 C 263.193 50.807,263.251 48.194,263.251 39.205 C 263.251 30.202,263.194 27.611,262.990 27.465 C 262.846 27.362,261.647 27.334,260.324 27.404 M246.733 50.823 C 246.733 51.196,246.820 51.408,246.942 51.333 C 247.057 51.262,247.151 50.974,247.151 50.693 C 247.151 50.413,247.057 50.183,246.942 50.183 C 246.827 50.183,246.733 50.471,246.733 50.823 M200.771 71.502 C 200.389 71.838,200.007 72.142,199.922 72.177 C 199.837 72.213,199.418 72.771,198.992 73.418 C 198.566 74.064,197.881 74.911,197.470 75.300 C 197.059 75.688,196.544 76.288,196.325 76.632 C 195.880 77.334,191.610 81.876,189.266 84.142 C 188.423 84.958,187.115 86.260,186.360 87.036 C 185.605 87.812,184.879 88.447,184.747 88.447 C 184.615 88.447,184.182 88.786,183.785 89.201 C 182.287 90.764,181.789 91.197,181.125 91.516 C 180.749 91.697,180.235 92.139,179.983 92.498 C 179.445 93.264,179.231 93.452,177.836 94.387 C 177.261 94.772,176.418 95.475,175.964 95.949 C 175.509 96.423,175.035 96.811,174.910 96.811 C 174.785 96.811,174.311 97.009,173.855 97.252 C 173.399 97.494,172.658 97.807,172.208 97.949 C 171.415 98.198,171.402 98.217,171.790 98.562 C 173.479 100.062,173.409 100.039,176.248 100.046 L 178.881 100.052 181.913 98.404 C 183.581 97.498,185.369 96.355,185.886 95.865 C 186.404 95.375,187.118 94.828,187.475 94.649 C 187.831 94.471,188.689 93.778,189.381 93.111 C 190.073 92.444,190.992 91.615,191.423 91.270 C 191.855 90.925,192.473 90.234,192.798 89.733 C 193.123 89.233,193.774 88.540,194.246 88.193 C 194.726 87.840,195.329 87.119,195.614 86.557 C 195.894 86.004,196.552 85.149,197.077 84.657 C 197.602 84.165,198.210 83.359,198.428 82.867 C 198.646 82.374,199.144 81.476,199.535 80.870 C 200.855 78.828,201.208 78.102,201.594 76.634 C 202.031 74.973,202.093 72.318,201.716 71.463 L 201.464 70.892 200.771 71.502 M187.716 72.113 C 186.940 72.529,186.305 72.987,186.305 73.131 C 186.304 73.275,186.178 73.393,186.023 73.393 C 185.868 73.393,185.575 73.577,185.371 73.803 C 185.166 74.028,184.611 74.414,184.136 74.660 C 183.661 74.906,182.692 75.663,181.984 76.341 C 181.275 77.019,180.612 77.574,180.511 77.574 C 180.409 77.574,179.813 78.050,179.186 78.631 C 178.558 79.212,177.151 80.426,176.059 81.328 C 173.818 83.177,171.870 85.055,170.263 86.913 C 168.556 88.888,168.156 90.391,169.827 88.555 C 170.321 88.013,170.980 87.437,171.291 87.276 C 171.602 87.115,172.143 86.567,172.494 86.058 C 172.844 85.549,173.590 84.834,174.152 84.470 C 174.714 84.106,175.482 83.397,175.858 82.894 C 176.235 82.392,177.039 81.652,177.645 81.249 C 178.250 80.847,179.012 80.181,179.336 79.769 C 179.661 79.357,180.377 78.740,180.927 78.399 C 181.477 78.058,182.371 77.321,182.913 76.761 C 183.456 76.201,184.276 75.507,184.736 75.220 C 185.196 74.932,185.902 74.374,186.304 73.979 C 186.707 73.584,187.507 72.896,188.082 72.449 C 188.657 72.002,189.216 71.561,189.326 71.469 C 189.746 71.115,189.083 71.380,187.716 72.113 M215.425 78.805 C 215.054 78.991,214.748 79.244,214.746 79.367 C 214.741 79.596,213.173 80.711,212.856 80.711 C 212.590 80.711,210.172 82.398,209.323 83.175 C 208.910 83.553,207.940 84.283,207.167 84.796 C 206.394 85.310,205.556 86.009,205.304 86.350 C 205.052 86.691,204.264 87.346,203.552 87.806 C 202.841 88.266,202.033 88.978,201.757 89.389 C 201.481 89.800,200.769 90.461,200.175 90.859 C 199.582 91.257,198.782 91.982,198.399 92.472 C 198.016 92.961,197.481 93.540,197.210 93.759 C 196.299 94.494,195.692 95.238,195.283 96.120 C 194.498 97.817,194.845 97.889,196.094 96.289 C 196.588 95.656,197.093 95.139,197.215 95.139 C 197.337 95.139,198.164 94.409,199.054 93.518 C 200.826 91.742,203.898 89.029,206.301 87.117 C 207.148 86.443,207.841 85.815,207.841 85.722 C 207.841 85.629,208.476 85.128,209.252 84.610 C 210.029 84.092,211.040 83.281,211.499 82.808 C 211.958 82.335,212.805 81.679,213.381 81.351 C 213.957 81.023,214.878 80.280,215.428 79.701 C 215.978 79.121,216.637 78.607,216.892 78.557 C 217.218 78.494,217.170 78.468,216.728 78.468 C 216.383 78.468,215.797 78.619,215.425 78.805 M227.264 79.300 C 227.017 79.788,226.662 80.275,226.476 80.382 C 225.938 80.689,224.371 82.427,224.011 83.116 C 223.830 83.461,223.221 84.152,222.657 84.653 C 222.092 85.153,221.485 85.843,221.308 86.186 C 220.989 86.803,220.012 87.873,216.706 91.225 C 215.774 92.170,214.928 93.087,214.824 93.262 C 214.721 93.438,214.049 94.087,213.330 94.705 C 212.611 95.323,212.023 95.944,212.023 96.085 C 212.023 96.227,211.482 96.747,210.821 97.242 C 210.159 97.737,209.007 98.772,208.259 99.541 C 207.512 100.311,206.597 101.112,206.226 101.322 C 205.855 101.532,205.264 102.104,204.913 102.593 C 204.562 103.082,203.925 103.687,203.497 103.936 C 203.069 104.186,202.295 104.886,201.777 105.491 C 201.260 106.096,200.618 106.652,200.352 106.727 C 199.618 106.933,199.874 107.534,200.839 107.871 C 203.226 108.704,206.547 107.867,209.423 105.707 C 210.042 105.242,211.084 104.485,211.737 104.025 C 212.391 103.565,213.498 102.637,214.199 101.963 C 214.900 101.288,215.873 100.460,216.361 100.123 C 216.850 99.786,217.390 99.238,217.562 98.906 C 217.734 98.574,218.393 97.854,219.028 97.306 C 219.662 96.759,220.627 95.741,221.172 95.045 C 221.718 94.349,222.368 93.591,222.617 93.361 C 223.299 92.732,225.405 89.474,225.405 89.049 C 225.405 88.845,225.539 88.602,225.703 88.510 C 226.179 88.243,227.087 86.786,227.222 86.071 C 227.290 85.711,227.429 85.309,227.531 85.178 C 227.867 84.749,228.325 82.100,228.329 80.571 C 228.335 78.196,228.015 77.815,227.264 79.300 M235.651 89.152 C 234.574 90.188,233.997 90.955,233.563 91.927 C 233.350 92.403,233.074 92.855,232.950 92.932 C 232.825 93.009,232.723 93.212,232.723 93.382 C 232.723 93.552,232.533 93.949,232.301 94.263 C 231.720 95.049,231.482 97.020,231.968 97.020 C 232.159 97.020,232.408 96.762,232.521 96.445 C 232.635 96.129,233.103 95.153,233.562 94.277 C 234.021 93.401,234.402 92.554,234.408 92.395 C 234.415 92.237,234.650 91.777,234.932 91.375 C 236.193 89.570,236.508 89.024,236.447 88.746 C 236.402 88.538,236.161 88.661,235.651 89.152 M195.567 91.275 C 195.450 91.502,195.292 92.016,195.216 92.417 C 195.139 92.818,194.797 93.495,194.454 93.921 C 193.385 95.252,193.953 95.372,195.270 94.093 C 196.160 93.230,196.366 92.363,195.941 91.275 C 195.780 90.863,195.778 90.863,195.567 91.275 M227.689 103.000 C 227.447 103.291,227.475 103.324,227.908 103.261 C 228.181 103.221,228.443 103.071,228.490 102.927 C 228.614 102.551,228.016 102.605,227.689 103.000 M225.023 104.221 C 224.295 104.608,223.489 105.122,223.232 105.363 C 222.975 105.605,222.676 105.802,222.567 105.802 C 222.458 105.802,222.252 105.991,222.108 106.221 C 221.803 106.709,221.315 106.766,221.077 106.340 C 220.908 106.039,218.542 107.473,217.277 108.644 C 217.004 108.896,215.979 109.654,214.999 110.327 C 214.019 111.001,212.743 112.050,212.164 112.659 C 211.584 113.267,210.746 113.969,210.301 114.219 C 209.857 114.469,209.312 114.967,209.090 115.325 C 208.868 115.684,208.144 116.489,207.480 117.114 C 206.816 117.739,205.855 118.884,205.344 119.659 C 204.834 120.433,204.340 121.066,204.247 121.066 C 204.154 121.066,204.077 121.208,204.077 121.380 C 204.077 121.553,204.215 121.694,204.384 121.694 C 204.552 121.694,204.791 121.882,204.914 122.112 C 205.175 122.601,205.712 122.663,205.881 122.224 C 205.945 122.056,206.624 121.386,207.390 120.735 C 208.156 120.084,209.911 118.492,211.291 117.199 C 214.355 114.327,215.702 113.114,216.286 112.703 C 216.531 112.530,217.233 111.893,217.845 111.287 C 218.458 110.681,219.225 110.048,219.550 109.880 C 219.874 109.712,220.407 109.253,220.734 108.860 C 221.061 108.467,222.047 107.670,222.926 107.090 C 223.804 106.510,224.720 105.759,224.961 105.421 C 225.202 105.083,225.824 104.606,226.343 104.362 C 226.862 104.118,227.287 103.825,227.287 103.710 C 227.287 103.310,226.334 103.525,225.023 104.221 M224.059 110.220 C 223.357 110.772,223.610 111.110,224.695 111.069 C 225.648 111.033,225.674 111.006,225.416 110.327 C 225.162 109.659,224.808 109.631,224.059 110.220 M200.899 124.421 C 199.669 125.684,198.599 126.819,198.522 126.944 C 198.290 127.319,199.114 126.811,199.584 126.289 C 199.813 126.035,200.212 125.747,200.470 125.648 C 200.729 125.549,200.942 125.348,200.942 125.201 C 200.943 125.055,201.450 124.443,202.068 123.842 C 203.125 122.815,203.628 122.104,203.287 122.118 C 203.204 122.122,202.130 123.158,200.899 124.421 M192.629 132.533 C 192.141 132.968,191.743 133.460,191.746 133.625 C 191.750 133.798,192.063 133.592,192.481 133.142 C 192.882 132.710,193.293 132.358,193.394 132.358 C 193.495 132.358,193.632 132.216,193.698 132.044 C 193.890 131.544,193.583 131.684,192.629 132.533 M191.000 134.044 C 190.924 134.167,190.913 134.317,190.974 134.379 C 191.124 134.529,191.532 134.265,191.532 134.018 C 191.532 133.751,191.171 133.769,191.000 134.044 M189.957 135.086 C 189.758 135.408,190.030 135.615,190.299 135.347 C 190.449 135.197,190.453 135.080,190.310 134.991 C 190.193 134.919,190.034 134.962,189.957 135.086 M188.847 136.125 C 188.578 136.349,188.391 136.632,188.432 136.755 C 188.473 136.878,188.781 136.691,189.117 136.341 C 189.795 135.633,189.612 135.487,188.847 136.125 M185.038 139.602 L 184.318 140.364 185.011 139.968 C 185.931 139.442,186.493 138.840,186.064 138.840 C 185.896 138.840,185.435 139.183,185.038 139.602 M182.750 141.544 C 182.750 141.652,182.375 142.005,181.918 142.328 C 181.061 142.934,180.874 143.231,181.347 143.231 C 181.608 143.231,183.168 141.724,183.168 141.472 C 183.168 141.404,183.074 141.349,182.959 141.349 C 182.844 141.349,182.750 141.437,182.750 141.544 M179.979 143.731 C 179.778 143.883,179.613 144.064,179.613 144.133 C 179.613 144.380,178.511 145.351,177.793 145.736 C 176.952 146.187,176.123 146.925,175.577 147.710 C 175.370 148.008,174.821 148.445,174.357 148.682 C 173.893 148.918,173.014 149.600,172.404 150.196 C 171.795 150.793,170.603 151.820,169.756 152.478 C 166.931 154.677,166.069 155.567,166.765 155.567 C 167.216 155.567,168.737 154.674,168.739 154.407 C 168.741 154.130,170.082 152.856,171.040 152.221 C 171.443 151.954,172.196 151.294,172.713 150.755 C 173.231 150.216,174.195 149.422,174.856 148.991 C 175.518 148.561,176.059 148.136,176.059 148.048 C 176.059 147.771,177.184 146.632,177.731 146.354 C 178.476 145.977,179.613 145.044,179.613 144.810 C 179.613 144.701,179.866 144.349,180.175 144.026 C 180.753 143.423,180.630 143.237,179.979 143.731 " stroke="none" fill="#993c6a" fill-rule="evenodd"></path><path id="path4" d="M384.736 0.314 C 384.736 0.486,384.877 0.627,385.050 0.627 C 385.222 0.627,385.363 0.768,385.363 0.941 C 385.363 1.113,385.504 1.255,385.677 1.255 C 385.849 1.255,385.991 1.113,385.991 0.941 C 385.991 0.768,385.896 0.627,385.781 0.627 C 385.666 0.627,385.572 0.486,385.572 0.314 C 385.572 0.139,385.387 0.000,385.154 0.000 C 384.922 0.000,384.736 0.139,384.736 0.314 M388.082 0.314 C 388.082 0.486,388.223 0.627,388.395 0.627 C 388.568 0.627,388.709 0.768,388.709 0.941 C 388.709 1.113,388.850 1.255,389.022 1.255 C 389.195 1.255,389.336 1.113,389.336 0.941 C 389.336 0.768,389.195 0.627,389.022 0.627 C 388.850 0.627,388.709 0.486,388.709 0.314 C 388.709 0.141,388.568 0.000,388.395 0.000 C 388.223 0.000,388.082 0.141,388.082 0.314 M389.963 0.406 C 389.963 0.916,390.344 1.167,390.651 0.860 C 391.211 0.299,393.309 0.577,393.309 1.212 C 393.309 1.619,393.564 2.046,394.145 2.614 C 394.981 3.430,394.982 3.430,394.982 2.880 C 394.982 2.538,394.778 2.170,394.442 1.906 C 394.132 1.662,393.933 1.322,393.974 1.107 C 394.072 0.598,394.644 0.630,394.739 1.150 C 394.781 1.380,395.099 1.848,395.445 2.191 C 395.791 2.533,396.157 3.033,396.260 3.302 C 396.402 3.676,396.578 3.776,397.004 3.725 C 397.846 3.626,397.837 3.173,396.987 2.817 C 396.414 2.578,396.236 2.382,396.236 1.990 C 396.236 1.495,396.758 1.441,397.075 1.902 C 397.324 2.266,398.327 2.352,398.327 2.009 C 398.327 1.687,398.758 1.546,399.001 1.789 C 399.216 2.004,398.909 2.718,398.602 2.718 C 398.007 2.718,398.380 3.653,399.004 3.725 C 399.678 3.803,399.803 5.901,399.166 6.430 C 398.886 6.661,398.892 6.724,399.216 6.975 C 399.535 7.223,399.582 7.653,399.582 10.321 C 399.582 12.222,399.661 13.382,399.791 13.382 C 399.926 13.382,400.000 11.012,400.000 6.691 L 400.000 0.000 394.982 0.000 C 390.154 0.000,389.963 0.015,389.963 0.406 M396.027 0.814 C 396.027 1.001,395.535 1.255,395.174 1.255 C 395.068 1.255,394.982 1.113,394.982 0.941 C 394.982 0.746,395.179 0.627,395.504 0.627 C 395.792 0.627,396.027 0.711,396.027 0.814 M387.283 1.516 C 387.320 1.775,387.491 1.986,387.663 1.986 C 387.836 1.986,388.007 1.775,388.044 1.516 C 388.095 1.154,388.008 1.045,387.663 1.045 C 387.319 1.045,387.231 1.154,387.283 1.516 M390.734 1.390 C 390.447 1.677,390.596 2.121,390.957 2.051 C 391.158 2.012,391.323 1.849,391.323 1.687 C 391.323 1.357,390.954 1.170,390.734 1.390 M392.054 1.673 C 392.054 1.942,392.160 2.091,392.316 2.039 C 392.459 1.991,392.577 1.826,392.577 1.673 C 392.577 1.519,392.459 1.355,392.316 1.307 C 392.160 1.255,392.054 1.403,392.054 1.673 M389.336 2.196 C 389.336 2.637,389.434 2.718,389.963 2.718 C 390.664 2.718,390.779 2.385,390.225 1.964 C 389.661 1.536,389.336 1.621,389.336 2.196 M392.054 2.823 C 392.054 3.264,392.152 3.346,392.682 3.346 C 393.211 3.346,393.309 3.264,393.309 2.823 C 393.309 2.381,393.211 2.300,392.682 2.300 C 392.152 2.300,392.054 2.381,392.054 2.823 M391.427 4.095 C 391.427 4.277,391.539 4.389,391.675 4.343 C 392.063 4.214,392.127 3.764,391.758 3.764 C 391.576 3.764,391.427 3.913,391.427 4.095 M393.727 4.077 C 393.727 4.252,393.913 4.391,394.145 4.391 C 394.378 4.391,394.564 4.252,394.564 4.077 C 394.564 3.903,394.378 3.764,394.145 3.764 C 393.913 3.764,393.727 3.903,393.727 4.077 M395.034 4.025 C 395.082 4.169,395.294 4.286,395.504 4.286 C 395.715 4.286,395.927 4.169,395.975 4.025 C 396.030 3.860,395.858 3.764,395.504 3.764 C 395.151 3.764,394.979 3.860,395.034 4.025 M396.289 4.652 C 396.336 4.796,396.501 4.914,396.654 4.914 C 396.808 4.914,396.972 4.796,397.020 4.652 C 397.072 4.497,396.924 4.391,396.654 4.391 C 396.385 4.391,396.237 4.497,396.289 4.652 M398.327 4.705 C 398.327 4.877,398.468 5.018,398.641 5.018 C 398.813 5.018,398.955 5.154,398.955 5.320 C 398.955 5.485,399.025 5.665,399.111 5.718 C 399.198 5.771,399.268 5.597,399.268 5.332 C 399.268 5.066,399.198 4.893,399.111 4.946 C 399.025 4.999,398.955 4.896,398.955 4.717 C 398.955 4.538,398.813 4.391,398.641 4.391 C 398.468 4.391,398.327 4.532,398.327 4.705 M399.597 14.154 C 399.627 14.947,399.969 15.428,399.985 14.701 C 399.993 14.334,399.906 13.976,399.791 13.905 C 399.676 13.834,399.588 13.946,399.597 14.154 M170.455 85.095 C 169.984 85.437,169.494 85.910,169.367 86.147 C 169.241 86.385,168.751 86.858,168.280 87.199 C 167.289 87.917,167.401 88.013,168.503 87.390 C 168.921 87.154,169.529 86.588,169.854 86.133 C 170.179 85.677,170.790 85.122,171.213 84.899 C 171.635 84.676,171.831 84.489,171.647 84.484 C 171.463 84.479,170.926 84.754,170.455 85.095 M167.142 88.764 C 166.908 89.374,167.520 89.803,167.829 89.246 C 167.977 88.979,168.101 88.691,168.106 88.604 C 168.120 88.307,167.263 88.448,167.142 88.764 M166.357 90.221 C 166.163 90.518,165.504 90.982,164.894 91.251 C 164.193 91.561,163.493 92.092,162.990 92.694 C 162.552 93.217,161.964 93.703,161.684 93.774 C 161.403 93.844,160.478 94.604,159.629 95.461 C 158.780 96.319,158.008 97.020,157.914 97.020 C 157.821 97.020,157.231 97.499,156.603 98.085 C 155.622 99.001,154.065 100.365,152.834 101.387 C 152.642 101.546,152.072 102.063,151.567 102.537 C 151.061 103.010,150.178 103.787,149.605 104.262 C 149.032 104.738,147.881 105.796,147.048 106.615 C 146.215 107.433,145.404 108.102,145.247 108.102 C 145.089 108.102,144.710 108.464,144.403 108.906 C 143.772 109.817,143.198 110.350,141.984 111.154 C 141.519 111.461,141.140 111.789,141.140 111.881 C 141.140 112.163,139.431 114.052,139.039 114.204 C 138.837 114.283,138.498 114.597,138.285 114.904 C 136.836 116.992,135.401 118.044,135.082 117.250 C 134.966 116.961,134.900 120.603,134.912 126.712 C 134.924 133.121,134.983 135.713,135.078 134.019 C 135.253 130.907,135.802 129.669,137.016 129.646 C 137.221 129.642,137.441 129.505,137.504 129.340 C 137.567 129.176,137.908 128.940,138.263 128.817 C 138.617 128.693,138.846 128.530,138.771 128.455 C 138.565 128.249,139.041 127.768,139.338 127.882 C 139.481 127.937,139.771 127.790,139.983 127.556 C 140.195 127.322,140.545 127.130,140.760 127.130 C 140.976 127.130,141.207 126.989,141.273 126.817 C 141.345 126.629,141.660 126.503,142.056 126.503 C 142.581 126.503,142.985 126.245,144.012 125.252 C 144.848 124.444,145.419 124.044,145.624 124.123 C 145.805 124.193,146.227 124.005,146.603 123.690 C 146.966 123.384,147.720 122.903,148.279 122.620 C 148.837 122.336,149.294 122.030,149.294 121.939 C 149.294 121.767,150.747 121.066,151.105 121.066 C 151.219 121.066,151.537 120.827,151.812 120.535 C 152.096 120.233,152.496 120.027,152.739 120.059 C 152.974 120.090,153.399 119.953,153.682 119.754 C 153.965 119.556,154.317 119.394,154.464 119.394 C 154.611 119.394,154.731 119.235,154.731 119.041 C 154.731 118.399,155.559 117.712,156.001 117.988 C 156.506 118.304,157.519 117.435,157.332 116.846 C 157.230 116.524,157.334 116.466,158.020 116.466 C 158.983 116.466,159.331 116.175,159.331 115.367 C 159.331 115.038,159.419 114.823,159.526 114.889 C 159.976 115.168,161.110 114.245,161.045 113.654 C 160.986 113.121,161.023 113.092,161.604 113.219 C 162.277 113.367,163.304 112.704,163.304 112.121 C 163.304 111.688,164.659 110.403,165.116 110.403 C 165.357 110.403,165.776 109.984,166.214 109.305 C 167.007 108.076,167.901 107.073,168.217 107.059 C 168.582 107.043,169.367 106.074,169.367 105.640 C 169.367 105.411,169.611 105.064,169.908 104.869 C 170.205 104.675,170.582 104.193,170.747 103.800 C 170.911 103.406,171.179 103.084,171.343 103.084 C 171.506 103.084,171.701 102.889,171.777 102.651 C 171.858 102.396,172.033 102.263,172.202 102.328 C 172.361 102.389,172.541 102.356,172.604 102.256 C 172.758 102.006,171.836 100.595,171.511 100.584 C 171.149 100.572,169.577 99.121,169.577 98.799 C 169.577 98.654,169.435 98.418,169.263 98.275 C 169.090 98.132,168.949 97.804,168.949 97.546 C 168.949 97.288,168.744 96.816,168.494 96.497 C 167.678 95.461,167.063 93.317,167.093 91.621 C 167.124 89.867,166.886 89.414,166.357 90.221 M166.635 92.159 C 166.623 92.788,166.584 92.860,166.440 92.525 C 166.190 91.944,166.190 91.375,166.440 91.375 C 166.555 91.375,166.643 91.728,166.635 92.159 M191.323 100.131 C 191.323 100.260,191.087 100.366,190.800 100.366 C 190.274 100.366,189.971 100.567,188.747 101.730 C 188.381 102.078,187.517 102.798,186.827 103.331 C 186.137 103.864,185.181 104.662,184.702 105.104 C 183.324 106.376,182.142 107.335,181.359 107.814 C 180.960 108.058,180.093 108.811,179.431 109.487 C 178.768 110.163,177.897 110.893,177.494 111.109 C 177.091 111.326,176.543 111.821,176.277 112.209 C 176.011 112.598,175.243 113.250,174.570 113.658 C 173.877 114.079,173.053 114.812,172.667 115.350 C 172.292 115.872,171.608 116.520,171.147 116.791 C 170.686 117.062,169.811 117.806,169.202 118.444 C 168.593 119.081,167.982 119.603,167.842 119.603 C 167.553 119.603,165.962 121.084,165.188 122.074 C 164.902 122.440,164.572 122.740,164.456 122.740 C 164.340 122.741,163.727 123.232,163.095 123.830 C 162.462 124.429,161.680 125.125,161.356 125.377 C 161.032 125.630,159.633 126.904,158.247 128.208 C 156.861 129.513,155.601 130.653,155.447 130.742 C 155.293 130.831,154.577 131.466,153.856 132.153 C 153.134 132.839,152.236 133.547,151.860 133.725 C 151.484 133.904,151.176 134.136,151.176 134.242 C 151.176 134.635,149.875 135.896,148.665 136.675 C 147.978 137.118,147.415 137.573,147.414 137.687 C 147.412 137.914,145.534 139.676,145.294 139.676 C 145.212 139.676,144.879 139.947,144.553 140.278 C 144.027 140.815,143.826 141.067,143.275 141.882 C 143.193 142.004,142.750 142.326,142.290 142.599 C 141.830 142.871,141.294 143.257,141.099 143.455 C 140.904 143.653,140.629 143.854,140.487 143.901 C 140.345 143.948,140.293 144.090,140.371 144.216 C 140.581 144.556,141.301 144.297,141.270 143.893 C 141.254 143.680,141.428 143.518,141.715 143.477 C 141.973 143.441,142.185 143.323,142.185 143.216 C 142.185 143.109,142.352 143.021,142.557 143.021 C 142.761 143.021,143.107 142.813,143.326 142.558 C 143.630 142.202,143.746 142.163,143.821 142.389 C 143.876 142.552,143.704 142.828,143.440 143.004 C 142.728 143.477,141.349 144.840,141.349 145.072 C 141.349 145.183,140.361 146.259,139.153 147.464 C 137.946 148.668,136.958 149.770,136.958 149.912 C 136.958 150.304,136.129 151.385,135.829 151.385 C 135.461 151.385,135.101 150.601,135.012 149.608 C 134.971 149.148,134.921 150.291,134.902 152.147 C 134.859 156.225,134.127 155.786,140.895 155.740 C 146.231 155.704,145.318 155.545,138.735 155.363 L 137.062 155.317 138.840 155.033 C 139.817 154.876,140.735 154.745,140.880 154.740 C 141.025 154.735,141.295 154.554,141.480 154.339 C 141.667 154.120,141.982 153.990,142.191 154.045 C 142.423 154.105,142.653 153.984,142.789 153.729 C 142.911 153.501,143.319 153.119,143.696 152.879 C 144.072 152.640,144.582 152.295,144.829 152.113 C 145.076 151.931,145.507 151.763,145.787 151.740 C 146.071 151.717,146.635 151.340,147.058 150.891 C 147.477 150.447,148.175 149.893,148.609 149.661 C 149.044 149.428,149.526 149.056,149.682 148.834 C 149.838 148.612,150.096 148.480,150.256 148.541 C 150.424 148.606,150.743 148.388,151.010 148.026 C 151.265 147.681,151.713 147.275,152.005 147.123 C 152.296 146.972,153.241 146.489,154.104 146.050 C 154.988 145.601,156.171 144.767,156.816 144.137 C 157.445 143.524,158.084 143.021,158.235 143.021 C 158.742 143.021,160.205 142.161,160.929 141.437 C 161.323 141.044,161.724 140.721,161.821 140.721 C 161.918 140.721,162.115 140.580,162.258 140.408 C 162.401 140.235,162.651 140.094,162.814 140.094 C 162.976 140.094,163.385 139.812,163.722 139.467 C 164.179 138.999,164.527 138.840,165.089 138.840 C 165.920 138.840,166.423 138.475,166.370 137.911 C 166.347 137.663,166.612 137.433,167.196 137.199 C 167.669 137.009,168.186 136.748,168.346 136.619 C 168.505 136.490,168.988 136.271,169.420 136.132 C 169.851 135.993,170.204 135.793,170.204 135.687 C 170.204 135.581,170.342 135.494,170.510 135.494 C 170.679 135.494,170.917 135.306,171.040 135.076 C 171.187 134.802,171.478 134.658,171.884 134.658 C 172.261 134.658,172.504 134.548,172.504 134.379 C 172.504 134.072,174.192 132.919,175.009 132.667 C 175.294 132.580,176.131 132.051,176.870 131.492 C 177.608 130.933,178.415 130.476,178.664 130.476 C 178.924 130.476,179.313 130.209,179.580 129.848 C 179.835 129.503,180.182 129.221,180.350 129.221 C 180.519 129.221,181.505 128.374,182.541 127.339 C 183.577 126.304,184.565 125.457,184.737 125.457 C 184.909 125.457,185.050 125.323,185.050 125.159 C 185.050 124.762,186.655 123.244,187.507 122.836 C 187.880 122.657,188.186 122.374,188.186 122.207 C 188.186 122.039,188.280 121.903,188.395 121.903 C 188.510 121.903,188.604 121.757,188.604 121.579 C 188.604 121.401,188.823 121.048,189.090 120.795 C 189.358 120.542,189.639 120.165,189.715 119.959 C 189.791 119.752,190.147 119.481,190.506 119.355 C 190.926 119.209,191.256 118.894,191.433 118.472 C 191.583 118.111,192.548 116.938,193.576 115.865 C 197.084 112.203,197.836 109.394,195.881 107.254 C 195.533 106.873,195.051 106.179,194.810 105.712 C 194.568 105.244,194.250 104.737,194.101 104.585 C 193.735 104.210,193.761 103.711,194.145 103.711 C 194.318 103.711,194.459 103.838,194.459 103.993 C 194.459 104.147,194.671 104.453,194.929 104.672 C 195.399 105.070,195.400 105.070,195.034 104.636 C 194.833 104.397,194.668 104.122,194.668 104.025 C 194.668 103.928,194.528 103.694,194.357 103.505 C 194.186 103.316,193.911 102.791,193.746 102.338 L 193.447 101.516 193.564 102.614 C 193.628 103.217,193.627 103.711,193.562 103.711 C 193.238 103.711,192.786 102.988,192.786 102.470 C 192.786 102.149,192.598 101.647,192.368 101.354 C 192.138 101.062,191.950 100.731,191.950 100.620 C 191.950 100.508,191.809 100.300,191.636 100.157 C 191.419 99.977,191.323 99.969,191.323 100.131 M193.013 100.470 C 193.007 100.700,193.093 101.030,193.204 101.202 C 193.473 101.618,193.473 101.096,193.204 100.470 L 193.025 100.052 193.013 100.470 M204.302 125.666 C 204.301 125.954,204.438 126.372,204.607 126.595 C 204.985 127.096,204.985 127.032,204.606 125.980 C 204.367 125.316,204.304 125.251,204.302 125.666 M204.930 127.470 C 204.921 127.715,205.070 128.044,205.262 128.202 C 205.573 128.459,205.587 128.445,205.394 128.071 C 205.276 127.841,205.127 127.512,205.063 127.339 C 204.983 127.124,204.942 127.165,204.930 127.470 M201.736 128.196 C 201.357 128.667,200.784 129.161,200.462 129.294 C 199.430 129.719,196.670 132.186,188.540 139.953 C 187.598 140.853,186.270 142.076,185.590 142.671 C 184.910 143.266,183.676 144.412,182.848 145.217 C 178.670 149.279,178.013 149.881,177.627 150.002 C 177.397 150.074,176.995 150.463,176.734 150.867 C 176.473 151.271,175.698 152.037,175.013 152.569 C 173.662 153.619,173.131 154.279,173.131 154.913 C 173.131 155.259,172.907 155.348,171.615 155.519 C 170.575 155.657,176.072 155.718,189.127 155.714 C 205.013 155.710,209.517 155.596,203.032 155.364 L 201.882 155.323 203.024 155.047 C 203.743 154.873,204.309 154.589,204.551 154.280 C 204.763 154.011,205.065 153.633,205.222 153.440 C 205.380 153.248,205.614 152.894,205.743 152.654 C 205.871 152.414,206.322 152.053,206.744 151.853 C 207.335 151.573,207.545 151.327,207.656 150.783 C 207.735 150.395,207.893 150.018,208.008 149.947 C 208.122 149.875,208.318 149.436,208.444 148.970 C 208.569 148.503,208.982 147.751,209.361 147.297 C 210.814 145.560,211.386 144.277,211.393 142.748 C 211.394 142.310,211.479 142.003,211.581 142.066 C 211.904 142.265,212.227 141.657,212.472 140.385 C 212.602 139.708,212.790 139.064,212.889 138.955 C 212.988 138.845,213.068 138.545,213.068 138.287 C 213.068 138.030,213.163 137.761,213.278 137.689 C 213.393 137.618,213.487 137.336,213.487 137.062 C 213.487 136.788,213.393 136.506,213.278 136.435 C 212.970 136.245,213.018 135.488,213.330 135.605 C 213.556 135.690,213.827 135.307,214.257 134.292 C 214.340 134.097,213.990 134.030,212.882 134.030 C 212.064 134.030,211.396 133.944,211.396 133.838 C 211.396 133.732,211.090 133.581,210.716 133.502 C 209.698 133.286,208.703 132.632,207.416 131.331 C 206.780 130.688,205.984 129.939,205.646 129.667 C 205.041 129.180,204.719 128.735,204.301 127.810 C 203.911 126.949,202.576 127.150,201.736 128.196 M214.677 133.537 C 214.604 133.610,214.588 133.743,214.643 133.831 C 214.771 134.039,215.578 133.829,215.578 133.588 C 215.578 133.376,214.878 133.336,214.677 133.537 M136.278 155.293 C 136.077 155.346,135.748 155.346,135.546 155.293 C 135.345 155.241,135.510 155.197,135.912 155.197 C 136.315 155.197,136.479 155.241,136.278 155.293 " stroke="none" fill="#fcd44f" fill-rule="evenodd"></path></g></svg>